<?xml version="1.0" encoding="UTF-8"?>
<svg version="1.1" xmlns="http://www.w3.org/2000/svg" width="2560" height="1188">
<path d="M0 0 C159.72 0 319.44 0 484 0 C484 105.27 484 210.54 484 319 C467.83 319 451.66 319 435 319 C435 500.5 435 682 435 869 C483.84 869 532.68 869 583 869 C583 687.5 583 506 583 319 C567.16 319 551.32 319 535 319 C535 213.73 535 108.46 535 0 C694.72 0 854.44 0 1019 0 C1019 105.27 1019 210.54 1019 319 C992.6 319 966.2 319 939 319 C939.04885345 326.99417145 939.09770691 334.9883429 939.14804077 343.22476196 C939.46346259 396.04539966 939.75414472 448.8660437 939.93154907 501.68734741 C939.93458633 502.58936166 939.93762358 503.49137591 939.94075288 504.42072392 C940.00660467 524.02632829 940.06754755 543.63194504 940.12343725 563.23758028 C940.15087743 572.85288829 940.17940178 582.46819295 940.20849609 592.08349609 C940.21137279 593.0403084 940.21424949 593.99712071 940.21721336 594.98292734 C940.31087851 625.9677877 940.47606207 656.95176246 940.67853886 687.93608682 C940.88631996 719.79014791 941.02154021 751.64371938 941.06612978 783.49844667 C941.07246871 788.00291645 941.07963271 792.50738456 941.08729935 797.01185226 C941.08878265 797.89835157 941.09026596 798.78485087 941.09179421 799.69821379 C941.11774137 813.93962482 941.2196361 828.17951704 941.35030475 842.42030991 C941.48020231 856.75517529 941.52920379 871.08854297 941.4970303 885.42397566 C941.48182042 893.18510599 941.50189647 900.94215129 941.62252045 908.70246506 C942.40283033 960.84538133 942.40283033 960.84538133 931.29676783 972.61908662 C927.72279987 975.99857859 923.79041495 978.72672686 919.5907681 981.27670741 C915.63816872 983.90584478 912.92372419 987.31339269 910 991 C908.56158798 992.4985463 907.10650299 993.98154017 905.625 995.4375 C904.86703125 996.18773437 904.1090625 996.93796875 903.328125 997.7109375 C901.77604167 999.23697917 900.22395833 1000.76302083 898.671875 1002.2890625 C895.158686 1005.76640264 891.72274736 1009.25002899 888.5 1013 C883.86197988 1018.39677457 878.74247097 1023.30354364 873.671875 1028.2890625 C870.16907073 1031.75612387 866.74236279 1035.22804602 863.53125 1038.96875 C858.68703971 1044.60544631 853.32068928 1049.72387138 848.02734375 1054.93359375 C843.7652762 1059.1546141 839.69341441 1063.43968391 835.78710938 1067.99023438 C831.64943836 1072.6434185 827.10991768 1076.92548362 822.671875 1081.2890625 C819.16907073 1084.75612387 815.74236279 1088.22804602 812.53125 1091.96875 C807.68703971 1097.60544631 802.32068928 1102.72387138 797.02734375 1107.93359375 C792.7652762 1112.1546141 788.69341441 1116.43968391 784.78710938 1120.99023438 C780.64943836 1125.6434185 776.10991768 1129.92548362 771.671875 1134.2890625 C768.16907073 1137.75612387 764.74236279 1141.22804602 761.53125 1144.96875 C756.68703971 1150.60544631 751.32068928 1155.72387138 746.02734375 1160.93359375 C742.38620763 1164.53966275 738.80990139 1168.14350472 735.46875 1172.03125 C734.93660873 1172.63032453 734.40446746 1173.22939905 733.8562007 1173.84662735 C731.96790844 1175.98138045 731.96790844 1175.98138045 730.29565859 1178.31614482 C726.53876507 1182.88687457 723.43481436 1185.43966917 717.39521542 1186.03200788 C713.54050613 1186.21529828 709.70132314 1186.19249319 705.84362793 1186.14285278 C704.08920788 1186.15323038 702.33480742 1186.16752942 700.58044767 1186.18539798 C695.77195333 1186.22291444 690.96506975 1186.20442735 686.1565702 1186.17652202 C680.96621359 1186.1561442 675.77613243 1186.18759699 670.58583069 1186.21234131 C660.4230532 1186.2523541 650.26087403 1186.24372046 640.09807312 1186.21762754 C631.83839835 1186.19729911 623.57889122 1186.19454674 615.31919861 1186.20434189 C613.55563269 1186.20641053 613.55563269 1186.20641053 611.75643918 1186.20852097 C609.36797952 1186.21139851 606.9795199 1186.21431643 604.59106034 1186.21727429 C582.19620063 1186.24293615 559.80167253 1186.21343364 537.40686721 1186.165071 C518.19246546 1186.12486117 498.97855307 1186.13184545 479.76416016 1186.17333984 C457.44928127 1186.22150734 435.13469299 1186.24046424 412.81976938 1186.21282947 C410.44011343 1186.20996254 408.06045743 1186.2071332 405.68080139 1186.20434189 C404.50997583 1186.20295341 403.33915026 1186.20156493 402.13284513 1186.20013437 C393.88340923 1186.19236465 385.63415771 1186.20547757 377.38475037 1186.22665787 C367.33084277 1186.25190387 357.27756753 1186.24506198 347.22373235 1186.19713117 C342.09422594 1186.17348239 336.96577363 1186.16420535 331.8362751 1186.19397354 C327.13905213 1186.22082076 322.44385869 1186.20601602 317.74681956 1186.15817557 C316.04911348 1186.14813345 314.35123545 1186.15321319 312.65364021 1186.17505766 C300.00314114 1186.32533875 300.00314114 1186.32533875 295.06756496 1183.05981231 C292.78988265 1180.81958713 290.89076806 1178.5694926 289 1176 C287.85284496 1174.66918901 286.6980797 1173.3448447 285.53125 1172.03125 C284.97179688 1171.38027344 284.41234375 1170.72929688 283.8359375 1170.05859375 C280.24144219 1166.02817028 276.34751703 1162.28673477 272.5 1158.5 C267.40015869 1153.48072491 262.44816517 1148.43954375 257.78710938 1143.00976562 C254.36999116 1139.1669081 250.66541335 1135.60391313 247 1132 C238.43436166 1123.57808043 238.43436166 1123.57808043 234.53125 1119.03125 C230.43797243 1114.26833486 225.97353063 1109.90285874 221.5 1105.5 C216.40015869 1100.48072491 211.44816517 1095.43954375 206.78710938 1090.00976562 C203.36999116 1086.1669081 199.66541335 1082.60391313 196 1079 C191.07089282 1074.15359596 186.31027789 1069.27002381 181.8046875 1064.02734375 C178.37990169 1060.18001943 174.67145474 1056.60985315 171 1053 C162.43436166 1044.57808043 162.43436166 1044.57808043 158.53125 1040.03125 C154.43797243 1035.26833486 149.97353063 1030.90285874 145.5 1026.5 C140.40015869 1021.48072491 135.44816517 1016.43954375 130.78710938 1011.00976562 C127.36999116 1007.1669081 123.66541335 1003.60391313 120 1000 C111.43414255 991.57786499 111.43414255 991.57786499 107.546875 987.046875 C103.37293312 982.18931173 98.81124395 977.74074559 94.25 973.25 C92.56535962 971.5909232 90.88297487 969.92955212 89.203125 968.265625 C88.09952637 967.17942871 88.09952637 967.17942871 86.97363281 966.07128906 C83.62758025 962.5596723 81.62448546 960.37884055 81.62740451 955.39309525 C81.62066263 954.46528566 81.61392075 953.53747606 81.60697457 952.58155102 C81.61879613 951.05473496 81.61879613 951.05473496 81.63085651 949.49707413 C81.62566421 947.86677976 81.62566421 947.86677976 81.62036702 946.20355016 C81.61237207 942.53027864 81.62593016 938.85739484 81.63923645 935.18414307 C81.63792926 932.53668356 81.63543138 929.88924966 81.63146895 927.2417953 C81.62524083 921.46967541 81.63019073 915.69764816 81.64238358 909.92553902 C81.66046368 901.34259756 81.66139332 892.75971471 81.65875761 884.17675767 C81.65481257 869.73998515 81.66485276 855.30325377 81.68280983 840.86649323 C81.70054907 826.5682683 81.71210528 812.2700605 81.71536827 797.97182465 C81.71557449 797.08345132 81.71578071 796.19507799 81.71599318 795.27978426 C81.71700815 790.76835132 81.71791231 786.25691837 81.7187738 781.7454854 C81.72507831 749.77481062 81.74529949 717.80415825 81.77368164 685.83349609 C81.80122607 654.77067179 81.82248125 623.7078536 81.83520508 592.64501953 C81.83559966 591.6878558 81.83599424 590.73069206 81.83640077 589.74452337 C81.84035626 580.13246254 81.84418372 570.52040166 81.84791735 560.90834075 C81.85552639 541.32673123 81.86399014 521.74512212 81.87297058 502.16351318 C81.87358839 500.81295932 81.87358839 500.81295932 81.87421867 499.43512155 C81.90182975 439.29007118 81.95005042 379.14503534 82 319 C54.94 319 27.88 319 0 319 C0 213.73 0 108.46 0 0 Z " fill="#081E3E" transform="translate(1539,0)"/>
<path d="M0 0 C311.19 0 622.38 0 943 0 C943 131.01 943 262.02 943 397 C826.18 397 709.36 397 589 397 C589 371.92 589 346.84 589 321 C539.5 321 490 321 439 321 C439 366.21 439 411.42 439 458 C525.46 458 611.92 458 701 458 C701 559.31 701 660.62 701 765 C614.54 765 528.08 765 439 765 C439 799.65 439 834.3 439 870 C464.74 870 490.48 870 517 870 C517 973.95 517 1077.9 517 1185 C346.39 1185 175.78 1185 0 1185 C0 1081.05 0 977.1 0 870 C26.4 870 52.8 870 80 870 C80 688.5 80 507 80 320 C53.6 320 27.2 320 0 320 C0 214.4 0 108.8 0 0 Z " fill="#081E3E" transform="translate(0,0)"/>
<path d="M0 0 C170.94 0 341.88 0 518 0 C518 105.27 518 210.54 518 319 C492.26 319 466.52 319 440 319 C440 500.5 440 682 440 869 C465.74 869 491.48 869 518 869 C518 972.95 518 1076.9 518 1184 C347.06 1184 176.12 1184 0 1184 C0 1080.05 0 976.1 0 869 C26.4 869 52.8 869 80 869 C80 687.5 80 506 80 319 C53.6 319 27.2 319 0 319 C0 213.73 0 108.46 0 0 Z " fill="#081E3E" transform="translate(984,0)"/>
<path d="M0 0 C159.72 0 319.44 0 484 0 C484 105.27 484 210.54 484 319 C467.83 319 451.66 319 435 319 C435 500.5 435 682 435 869 C483.84 869 532.68 869 583 869 C583 687.5 583 506 583 319 C567.16 319 551.32 319 535 319 C535 213.73 535 108.46 535 0 C694.72 0 854.44 0 1019 0 C1019 105.27 1019 210.54 1019 319 C992.6 319 966.2 319 939 319 C939.04885345 326.99417145 939.09770691 334.9883429 939.14804077 343.22476196 C939.46346259 396.04539966 939.75414472 448.8660437 939.93154907 501.68734741 C939.93458633 502.58936166 939.93762358 503.49137591 939.94075288 504.42072392 C940.00660467 524.02632829 940.06754755 543.63194504 940.12343725 563.23758028 C940.15087743 572.85288829 940.17940178 582.46819295 940.20849609 592.08349609 C940.21137279 593.0403084 940.21424949 593.99712071 940.21721336 594.98292734 C940.31087851 625.9677877 940.47606207 656.95176246 940.67853886 687.93608682 C940.88631996 719.79014791 941.02154021 751.64371938 941.06612978 783.49844667 C941.07246871 788.00291645 941.07963271 792.50738456 941.08729935 797.01185226 C941.08878265 797.89835157 941.09026596 798.78485087 941.09179421 799.69821379 C941.11774137 813.93962482 941.2196361 828.17951704 941.35030475 842.42030991 C941.48020231 856.75517529 941.52920379 871.08854297 941.4970303 885.42397566 C941.48182042 893.18510599 941.50189647 900.94215129 941.62252045 908.70246506 C942.40283033 960.84538133 942.40283033 960.84538133 931.29676783 972.61908662 C927.72279987 975.99857859 923.79041495 978.72672686 919.5907681 981.27670741 C915.63816872 983.90584478 912.92372419 987.31339269 910 991 C908.56158798 992.4985463 907.10650299 993.98154017 905.625 995.4375 C904.86703125 996.18773437 904.1090625 996.93796875 903.328125 997.7109375 C901.77604167 999.23697917 900.22395833 1000.76302083 898.671875 1002.2890625 C895.158686 1005.76640264 891.72274736 1009.25002899 888.5 1013 C883.86197988 1018.39677457 878.74247097 1023.30354364 873.671875 1028.2890625 C870.16907073 1031.75612387 866.74236279 1035.22804602 863.53125 1038.96875 C858.68703971 1044.60544631 853.32068928 1049.72387138 848.02734375 1054.93359375 C843.7652762 1059.1546141 839.69341441 1063.43968391 835.78710938 1067.99023438 C831.64943836 1072.6434185 827.10991768 1076.92548362 822.671875 1081.2890625 C819.16907073 1084.75612387 815.74236279 1088.22804602 812.53125 1091.96875 C807.68703971 1097.60544631 802.32068928 1102.72387138 797.02734375 1107.93359375 C792.7652762 1112.1546141 788.69341441 1116.43968391 784.78710938 1120.99023438 C780.64943836 1125.6434185 776.10991768 1129.92548362 771.671875 1134.2890625 C768.16907073 1137.75612387 764.74236279 1141.22804602 761.53125 1144.96875 C756.68703971 1150.60544631 751.32068928 1155.72387138 746.02734375 1160.93359375 C742.38620763 1164.53966275 738.80990139 1168.14350472 735.46875 1172.03125 C734.93660873 1172.63032453 734.40446746 1173.22939905 733.8562007 1173.84662735 C731.96790844 1175.98138045 731.96790844 1175.98138045 730.29565859 1178.31614482 C726.53876507 1182.88687457 723.43481436 1185.43966917 717.39521542 1186.03200788 C713.54050613 1186.21529828 709.70132314 1186.19249319 705.84362793 1186.14285278 C704.08920788 1186.15323038 702.33480742 1186.16752942 700.58044767 1186.18539798 C695.77195333 1186.22291444 690.96506975 1186.20442735 686.1565702 1186.17652202 C680.96621359 1186.1561442 675.77613243 1186.18759699 670.58583069 1186.21234131 C660.4230532 1186.2523541 650.26087403 1186.24372046 640.09807312 1186.21762754 C631.83839835 1186.19729911 623.57889122 1186.19454674 615.31919861 1186.20434189 C613.55563269 1186.20641053 613.55563269 1186.20641053 611.75643918 1186.20852097 C609.36797952 1186.21139851 606.9795199 1186.21431643 604.59106034 1186.21727429 C582.19620063 1186.24293615 559.80167253 1186.21343364 537.40686721 1186.165071 C518.19246546 1186.12486117 498.97855307 1186.13184545 479.76416016 1186.17333984 C457.44928127 1186.22150734 435.13469299 1186.24046424 412.81976938 1186.21282947 C410.44011343 1186.20996254 408.06045743 1186.2071332 405.68080139 1186.20434189 C404.50997583 1186.20295341 403.33915026 1186.20156493 402.13284513 1186.20013437 C393.88340923 1186.19236465 385.63415771 1186.20547757 377.38475037 1186.22665787 C367.33084277 1186.25190387 357.27756753 1186.24506198 347.22373235 1186.19713117 C342.09422594 1186.17348239 336.96577363 1186.16420535 331.8362751 1186.19397354 C327.13905213 1186.22082076 322.44385869 1186.20601602 317.74681956 1186.15817557 C316.04911348 1186.14813345 314.35123545 1186.15321319 312.65364021 1186.17505766 C300.00314114 1186.32533875 300.00314114 1186.32533875 295.06756496 1183.05981231 C292.78988265 1180.81958713 290.89076806 1178.5694926 289 1176 C287.85284496 1174.66918901 286.6980797 1173.3448447 285.53125 1172.03125 C284.97179688 1171.38027344 284.41234375 1170.72929688 283.8359375 1170.05859375 C280.24144219 1166.02817028 276.34751703 1162.28673477 272.5 1158.5 C267.40015869 1153.48072491 262.44816517 1148.43954375 257.78710938 1143.00976562 C254.36999116 1139.1669081 250.66541335 1135.60391313 247 1132 C238.43436166 1123.57808043 238.43436166 1123.57808043 234.53125 1119.03125 C230.43797243 1114.26833486 225.97353063 1109.90285874 221.5 1105.5 C216.40015869 1100.48072491 211.44816517 1095.43954375 206.78710938 1090.00976562 C203.36999116 1086.1669081 199.66541335 1082.60391313 196 1079 C191.07089282 1074.15359596 186.31027789 1069.27002381 181.8046875 1064.02734375 C178.37990169 1060.18001943 174.67145474 1056.60985315 171 1053 C162.43436166 1044.57808043 162.43436166 1044.57808043 158.53125 1040.03125 C154.43797243 1035.26833486 149.97353063 1030.90285874 145.5 1026.5 C140.40015869 1021.48072491 135.44816517 1016.43954375 130.78710938 1011.00976562 C127.36999116 1007.1669081 123.66541335 1003.60391313 120 1000 C111.43414255 991.57786499 111.43414255 991.57786499 107.546875 987.046875 C103.37293312 982.18931173 98.81124395 977.74074559 94.25 973.25 C92.56535962 971.5909232 90.88297487 969.92955212 89.203125 968.265625 C88.09952637 967.17942871 88.09952637 967.17942871 86.97363281 966.07128906 C83.62758025 962.5596723 81.62448546 960.37884055 81.62740451 955.39309525 C81.62066263 954.46528566 81.61392075 953.53747606 81.60697457 952.58155102 C81.61879613 951.05473496 81.61879613 951.05473496 81.63085651 949.49707413 C81.62566421 947.86677976 81.62566421 947.86677976 81.62036702 946.20355016 C81.61237207 942.53027864 81.62593016 938.85739484 81.63923645 935.18414307 C81.63792926 932.53668356 81.63543138 929.88924966 81.63146895 927.2417953 C81.62524083 921.46967541 81.63019073 915.69764816 81.64238358 909.92553902 C81.66046368 901.34259756 81.66139332 892.75971471 81.65875761 884.17675767 C81.65481257 869.73998515 81.66485276 855.30325377 81.68280983 840.86649323 C81.70054907 826.5682683 81.71210528 812.2700605 81.71536827 797.97182465 C81.71557449 797.08345132 81.71578071 796.19507799 81.71599318 795.27978426 C81.71700815 790.76835132 81.71791231 786.25691837 81.7187738 781.7454854 C81.72507831 749.77481062 81.74529949 717.80415825 81.77368164 685.83349609 C81.80122607 654.77067179 81.82248125 623.7078536 81.83520508 592.64501953 C81.83559966 591.6878558 81.83599424 590.73069206 81.83640077 589.74452337 C81.84035626 580.13246254 81.84418372 570.52040166 81.84791735 560.90834075 C81.85552639 541.32673123 81.86399014 521.74512212 81.87297058 502.16351318 C81.87358839 500.81295932 81.87358839 500.81295932 81.87421867 499.43512155 C81.90182975 439.29007118 81.95005042 379.14503534 82 319 C54.94 319 27.88 319 0 319 C0 213.73 0 108.46 0 0 Z M39 38 C39 118.19 39 198.38 39 281 C66.06 281 93.12 281 121 281 C120.97335266 289.29199524 120.94670532 297.58399048 120.91925049 306.1272583 C120.90158267 311.75317341 120.88397018 317.37908856 120.86669922 323.00500488 C120.86445527 323.73583602 120.86221132 324.46666716 120.85989937 325.2196447 C120.71152933 373.61405184 120.57746551 422.00845157 120.49188232 470.40301514 C120.4893973 471.8046287 120.4893973 471.8046287 120.48686207 473.23455769 C120.45094718 493.54178217 120.41770499 513.84901019 120.38721605 534.15624352 C120.37224801 544.11490532 120.35668936 554.07356616 120.34082031 564.03222656 C120.3392512 565.023233 120.3376821 566.01423944 120.33606544 567.03527638 C120.28492915 599.15673608 120.1947936 631.27794246 120.08443335 663.39924869 C119.97122979 696.40807917 119.89737188 729.41676946 119.87302012 762.42579078 C119.86956226 767.08806772 119.86565462 771.75034419 119.86147308 776.41262054 C119.86025947 777.78902481 119.86025947 777.78902481 119.85902134 779.19323522 C119.84484059 793.96425749 119.78918426 808.7348463 119.71801559 823.50569181 C119.64735187 838.35545864 119.62038811 853.20479577 119.63798347 868.05472484 C119.64711085 876.8777504 119.6227813 885.69920326 119.55042948 894.5219448 C119.50537936 900.41834861 119.5040686 906.3137245 119.53801824 912.21019971 C119.55611727 915.56970116 119.54882992 918.92382673 119.50140181 922.28339806 C118.71042412 937.65675495 118.71042412 937.65675495 125.21358065 950.88306312 C127.67085573 953.15339836 130.27725869 955.05425507 133 957 C134.27373836 958.35528299 135.51601101 959.74291877 136.6875 961.1875 C140.54492826 965.70806968 144.76488203 969.83594106 149 974 C157.56563834 982.42191957 157.56563834 982.42191957 161.46875 986.96875 C165.56202757 991.73166514 170.02646937 996.09714126 174.5 1000.5 C179.59984131 1005.51927509 184.55183483 1010.56045625 189.21289062 1015.99023438 C192.63000884 1019.8330919 196.33458665 1023.39608687 200 1027 C208.56563834 1035.42191957 208.56563834 1035.42191957 212.46875 1039.96875 C216.56202757 1044.73166514 221.02646937 1049.09714126 225.5 1053.5 C230.59984131 1058.51927509 235.55183483 1063.56045625 240.21289062 1068.99023438 C243.63000884 1072.8330919 247.33458665 1076.39608687 251 1080 C259.56563834 1088.42191957 259.56563834 1088.42191957 263.46875 1092.96875 C267.56202757 1097.73166514 272.02646937 1102.09714126 276.5 1106.5 C281.59549812 1111.51500052 286.54298108 1116.55164702 291.19970703 1121.97705078 C294.68104129 1125.88894875 298.45542408 1129.51695872 302.1875 1133.1875 C303.76671709 1134.74105962 305.3436167 1136.29697919 306.91796875 1137.85546875 C307.95087036 1138.87096802 307.95087036 1138.87096802 309.00463867 1139.90698242 C311 1142 311 1142 312.71386987 1144.59078991 C314.80935478 1147.2556463 314.80935478 1147.2556463 317.99354142 1147.63134849 C319.17490908 1147.63432854 320.35627674 1147.6373086 321.57344341 1147.64037895 C322.23551653 1147.64884454 322.89758965 1147.65731013 323.57972559 1147.66603225 C325.80845582 1147.68837178 328.03554487 1147.67497779 330.264328 1147.66183472 C331.8741756 1147.67045682 333.48401281 1147.68124671 335.09383279 1147.69402325 C339.52557448 1147.72273515 343.95683242 1147.72006078 348.38864005 1147.71225953 C353.16526802 1147.70918794 357.94175512 1147.7347331 362.71832275 1147.75646973 C372.08017931 1147.7941829 381.44186972 1147.80417329 390.80379488 1147.8035066 C398.4132942 1147.80314987 406.02274042 1147.81105294 413.63222694 1147.82483292 C437.55153231 1147.86729988 461.4706742 1147.87975254 485.3900126 1147.87016775 C504.26287999 1147.86378132 523.13532344 1147.90372859 542.0080814 1147.96505271 C561.38008797 1148.02750724 580.75188982 1148.05649903 600.12399942 1148.05014813 C611.00252857 1148.04723843 621.88064371 1148.05799909 632.7590847 1148.10439682 C642.02256136 1148.14360795 651.28541495 1148.15157451 660.54892876 1148.11907838 C665.27544407 1148.10338089 670.00078278 1148.10216023 674.72719765 1148.14014053 C679.05638014 1148.17455604 683.3834353 1148.16724999 687.71254925 1148.12702645 C689.27651538 1148.11976382 690.84064221 1148.12762914 692.40442993 1148.15234254 C701.05335914 1148.3660907 701.05335914 1148.3660907 708.85482657 1145.06255555 C711.13428822 1142.81872017 713.07500414 1140.54983641 715 1138 C716.15922785 1136.66019416 717.32465819 1135.32569247 718.5 1134 C719.05945312 1133.34902344 719.61890625 1132.69804688 720.1953125 1132.02734375 C724.34115715 1127.36999878 728.88396152 1123.08053448 733.328125 1118.7109375 C736.83092927 1115.24387613 740.25763721 1111.77195398 743.46875 1108.03125 C748.31296029 1102.39455369 753.67931072 1097.27612862 758.97265625 1092.06640625 C763.2347238 1087.8453859 767.30658559 1083.56031609 771.21289062 1079.00976562 C775.35056164 1074.3565815 779.89008232 1070.07451638 784.328125 1065.7109375 C787.83092927 1062.24387613 791.25763721 1058.77195398 794.46875 1055.03125 C799.31296029 1049.39455369 804.67931072 1044.27612862 809.97265625 1039.06640625 C814.2347238 1034.8453859 818.30658559 1030.56031609 822.21289062 1026.00976562 C826.35056164 1021.3565815 830.89008232 1017.07451638 835.328125 1012.7109375 C838.83092927 1009.24387613 842.25763721 1005.77195398 845.46875 1002.03125 C850.31296029 996.39455369 855.67931072 991.27612862 860.97265625 986.06640625 C865.2347238 981.8453859 869.30658559 977.56031609 873.21289062 973.00976562 C877.35056164 968.3565815 881.89008232 964.07451638 886.328125 959.7109375 C887.08609375 958.96070313 887.8440625 958.21046875 888.625 957.4375 C889.63433594 956.44556641 889.63433594 956.44556641 890.6640625 955.43359375 C891.43492187 954.63050781 892.20578125 953.82742188 893 953 C893.57059891 952.47598264 894.14119781 951.95196528 894.72908759 951.41206861 C899.42336528 946.74179739 900.8103247 943.38894262 900.91705933 936.79937989 C900.89867024 935.75350628 900.88028114 934.70763267 900.8613348 933.63006592 C900.86941171 932.49806666 900.87748862 931.36606741 900.88581029 930.19976515 C900.9043785 926.39645111 900.8729074 922.59520052 900.84178162 918.79199219 C900.84093597 916.04206951 900.85066603 913.29220696 900.85990578 910.54230213 C900.87440772 904.55858905 900.86294107 898.5753636 900.83443832 892.59170723 C900.79217418 883.69435233 900.79008934 874.79730456 900.79623224 865.89986757 C900.80542794 850.93277555 900.78204603 835.9658999 900.7401104 820.99887085 C900.6986941 806.17921885 900.67174939 791.35965696 900.6641407 776.53994751 C900.66365952 775.61857682 900.66317835 774.69720613 900.66268259 773.74791511 C900.66031426 769.06875699 900.65820457 764.3895988 900.65619446 759.71044052 C900.64149076 726.56617634 900.59432705 693.42202989 900.52807617 660.27783203 C900.46378782 628.07829413 900.41420124 595.87878844 900.38452148 563.67919922 C900.3836008 562.68670425 900.38268012 561.69420927 900.38173154 560.6716387 C900.37250191 550.70461494 900.36357121 540.73759094 900.35485952 530.77056672 C900.33710593 510.46650891 900.31735716 490.16245319 900.29640198 469.85839844 C900.29544095 468.92484662 900.29447992 467.99129481 900.29348977 467.02945355 C900.24358519 418.72389977 900.16405868 370.41840045 900.07775879 322.11289978 C900.07654496 321.43335755 900.07533113 320.75381532 900.07408052 320.0536809 C900.05017858 306.70245243 900.02496392 293.35122658 900 280 C926.4 280 952.8 280 980 280 C980 200.14 980 120.28 980 38 C845.69 38 711.38 38 573 38 C573 118.19 573 198.38 573 281 C589.17 281 605.34 281 622 281 C622.25979693 338.28693008 622.5031423 395.57381959 622.60319519 452.86128235 C622.60542938 454.13415576 622.60542938 454.13415576 622.60770871 455.43274379 C622.63992647 473.87706288 622.66746591 492.32138617 622.69018965 510.76571934 C622.70136268 519.81150615 622.71356893 528.85729145 622.72631836 537.90307617 C622.72756946 538.80321522 622.72882055 539.70335426 622.73010956 540.63077025 C622.77110701 569.77944042 622.88026087 598.92736841 623.02496029 628.0756928 C623.17336219 658.04265899 623.25260303 688.00903799 623.24547869 717.97638984 C623.24450331 722.21414189 623.2443142 726.45189363 623.24460411 730.68964577 C623.24465321 731.94065628 623.24465321 731.94065628 623.2447033 733.21693973 C623.24724757 746.61414019 623.32216644 760.00999401 623.42451537 773.40676288 C623.5259871 786.89261075 623.55034461 800.37688511 623.49735913 813.86302497 C623.47077835 821.16414896 623.47778546 828.46138646 623.58069038 835.76193619 C624.24443887 884.80704168 624.24443887 884.80704168 613.31447858 896.31170255 C609.72138977 899.55193891 606.07413224 902.33470147 601.88844508 904.76291686 C601.2652582 905.1711543 600.64207133 905.57939173 600 906 C600 906.66 600 907.32 600 908 C576.76359225 908.36131328 553.52872099 908.60025796 530.2896471 908.69690418 C519.4969077 908.74458568 508.70717523 908.83102123 497.91577148 909.01147461 C488.50032596 909.1688179 479.08763127 909.25061477 469.67082328 909.24489135 C464.69150237 909.24441986 459.71865409 909.27958232 454.74079323 909.40552711 C450.03556213 909.52337292 445.34017763 909.53869808 440.63392258 909.48166275 C438.92505525 909.47787961 437.21562397 909.50881804 435.50826454 909.58069038 C424.76597262 910.00697782 415.87309152 906.74879022 407.46728516 899.97106934 C395.29375138 888.13905403 395.66823741 872.79521153 395.36637453 856.72514752 C395.28618603 849.30687909 395.34507586 841.89458674 395.44921515 834.47712273 C395.54831524 827.10378504 395.52259934 819.73208163 395.49372409 812.35832199 C395.44384371 798.75507457 395.4908955 785.15381544 395.59447289 771.55093956 C395.696606 758.09553168 395.75486953 744.6410923 395.75539589 731.18528175 C395.75545307 730.34659914 395.75551026 729.50791652 395.75556918 728.64381928 C395.75563376 724.38403998 395.7549228 720.12426119 395.75391344 715.86448202 C395.74816863 685.74406496 395.839499 655.6246545 395.98852539 625.50463867 C396.13301876 596.25559647 396.23316269 567.00694751 396.27368164 537.75756836 C396.27494963 536.85493253 396.27621763 535.95229669 396.27752405 535.02230826 C396.29020979 525.95712093 396.30199839 516.89193261 396.31312989 507.82674324 C396.33582358 489.36225501 396.36450265 470.89777767 396.39680481 452.43330383 C396.39902121 451.16003904 396.39902121 451.16003904 396.40128239 449.86105172 C396.50052902 393.24035333 396.74407949 336.6201743 397 280 C412.84 280 428.68 280 445 280 C445 200.14 445 120.28 445 38 C311.02 38 177.04 38 39 38 Z " fill="#B5852C" transform="translate(1539,0)"/>
<path d="M0 0 C311.19 0 622.38 0 943 0 C943 131.01 943 262.02 943 397 C826.18 397 709.36 397 589 397 C589 371.92 589 346.84 589 321 C539.5 321 490 321 439 321 C439 366.21 439 411.42 439 458 C525.46 458 611.92 458 701 458 C701 559.31 701 660.62 701 765 C614.54 765 528.08 765 439 765 C439 799.65 439 834.3 439 870 C464.74 870 490.48 870 517 870 C517 973.95 517 1077.9 517 1185 C346.39 1185 175.78 1185 0 1185 C0 1081.05 0 977.1 0 870 C26.4 870 52.8 870 80 870 C80 688.5 80 507 80 320 C53.6 320 27.2 320 0 320 C0 214.4 0 108.8 0 0 Z M38 38 C37.15168825 131.46719346 37.15168825 131.46719346 36.93133545 224.93164062 C36.94425231 232.67050005 36.94809751 240.40937168 36.95378876 248.14823914 C36.96294319 259.43217937 36.98228889 270.7160558 37 282 C64.06 282 91.12 282 119 282 C119 488.91 119 695.82 119 909 C91.94 909 64.88 909 37 909 C37 987.54 37 1066.08 37 1147 C182.53 1147 328.06 1147 478 1147 C478 1068.46 478 989.92 478 909 C452.59 909 427.18 909 401 909 C401 848.61 401 788.22 401 726 C487.46 726 573.92 726 663 726 C663 650.43 663 574.86 663 497 C576.21 497 489.42 497 400 497 C400 426.38 400 355.76 400 283 C475.24 283 550.48 283 628 283 C628 307.75 628 332.5 628 358 C719.41 358 810.82 358 905 358 C905 252.4 905 146.8 905 38 C618.89 38 332.78 38 38 38 Z " fill="#B5852C" transform="translate(0,0)"/>
<path d="M0 0 C170.94 0 341.88 0 518 0 C518 105.27 518 210.54 518 319 C492.26 319 466.52 319 440 319 C440 500.5 440 682 440 869 C465.74 869 491.48 869 518 869 C518 972.95 518 1076.9 518 1184 C347.06 1184 176.12 1184 0 1184 C0 1080.05 0 976.1 0 869 C26.4 869 52.8 869 80 869 C80 687.5 80 506 80 319 C53.6 319 27.2 319 0 319 C0 213.73 0 108.46 0 0 Z M38 38 C38 118.19 38 198.38 38 281 C64.4 281 90.8 281 118 281 C118 487.91 118 694.82 118 908 C91.93 908 65.86 908 39 908 C39 986.21 39 1064.42 39 1145 C184.2 1145 329.4 1145 479 1145 C479 1066.79 479 988.58 479 908 C453.26 908 427.52 908 401 908 C401 701.09 401 494.18 401 281 C427.07 281 453.14 281 480 281 C480 200.81 480 120.62 480 38 C334.14 38 188.28 38 38 38 Z " fill="#B5852C" transform="translate(984,0)"/>
</svg>
