<?xml version="1.0" encoding="UTF-8"?>
<svg version="1.1" xmlns="http://www.w3.org/2000/svg" width="400" height="290">
<path d="M0 0 C132 0 264 0 400 0 C400 95.7 400 191.4 400 290 C268 290 136 290 0 290 C0 194.3 0 98.6 0 0 Z " fill="#FDFDFD" transform="translate(0,0)"/>
<path d="M0 0 C69.96 0 139.92 0 212 0 C212 69.96 212 139.92 212 212 C142.04 212 72.08 212 0 212 C0 142.04 0 72.08 0 0 Z " fill="#14133A" transform="translate(94,3)"/>
<path d="M0 0 C6.24955029 -0.25367178 12.48107552 -0.47207436 18.73168945 -0.60424805 C20.85340035 -0.65934693 22.97469767 -0.7342553 25.0949707 -0.82983398 C42.66983362 -1.60185639 42.66983362 -1.60185639 48.20800781 2.20532227 C50.50783454 5.01868597 52.24879978 7.82211069 54 11 C55.14977675 12.4619106 56.33280455 13.89857897 57.5546875 15.30078125 C63.18871704 22.10510862 68.79037855 28.92948561 74.25 35.875 C74.70358887 36.45161377 75.15717773 37.02822754 75.62451172 37.62231445 C77.51018882 40.03486122 79.30033232 42.45049849 81 45 C81.33 37.74 81.66 30.48 82 23 C79.36 23 76.72 23 74 23 C74 15.41 74 7.82 74 0 C91.82 0 109.64 0 128 0 C128 7.59 128 15.18 128 23 C125.36 23 122.72 23 120 23 C120 41.15 120 59.3 120 78 C122.64 78 125.28 78 128 78 C128 85.59 128 93.18 128 101 C121.60816396 101.25362396 115.23393934 101.4720546 108.84106445 101.60424805 C106.67086496 101.6593555 104.50107003 101.73426998 102.33227539 101.82983398 C83.29654857 102.64721192 83.29654857 102.64721192 78.66625977 98.68261719 C76.37937596 95.88771965 74.70560348 93.17334704 73 90 C71.63827789 88.26435419 70.24598651 86.55186312 68.8125 84.875 C68.08417969 83.98425781 67.35585937 83.09351563 66.60546875 82.17578125 C64.55130412 79.66843148 62.48927364 77.16764653 60.42578125 74.66796875 C59.79889404 73.90822754 59.17200684 73.14848633 58.52612305 72.36572266 C57.27967074 70.85563776 56.03246402 69.34617517 54.78442383 67.83740234 C54.20845459 67.13953613 53.63248535 66.44166992 53.0390625 65.72265625 C52.52553223 65.10140869 52.01200195 64.48016113 51.48291016 63.84008789 C49.94299711 61.92926723 48.47245523 59.96327364 47 58 C46.67 64.6 46.34 71.2 46 78 C48.64 78 51.28 78 54 78 C54 85.59 54 93.18 54 101 C36.18 101 18.36 101 0 101 C0 93.41 0 85.82 0 78 C2.64 78 5.28 78 8 78 C8 59.85 8 41.7 8 23 C5.36 23 2.72 23 0 23 C0 15.41 0 7.82 0 0 Z " fill="#14133A" transform="translate(136,58)"/>
<path d="M0 0 C6.24955029 -0.25367178 12.48107552 -0.47207436 18.73168945 -0.60424805 C20.85340035 -0.65934693 22.97469767 -0.7342553 25.0949707 -0.82983398 C42.66983362 -1.60185639 42.66983362 -1.60185639 48.20800781 2.20532227 C50.50783454 5.01868597 52.24879978 7.82211069 54 11 C55.14977675 12.4619106 56.33280455 13.89857897 57.5546875 15.30078125 C63.18871704 22.10510862 68.79037855 28.92948561 74.25 35.875 C74.70358887 36.45161377 75.15717773 37.02822754 75.62451172 37.62231445 C77.51018882 40.03486122 79.30033232 42.45049849 81 45 C81.33 37.74 81.66 30.48 82 23 C79.36 23 76.72 23 74 23 C74 15.41 74 7.82 74 0 C91.82 0 109.64 0 128 0 C128 7.59 128 15.18 128 23 C125.36 23 122.72 23 120 23 C120 41.15 120 59.3 120 78 C122.64 78 125.28 78 128 78 C128 85.59 128 93.18 128 101 C121.60816396 101.25362396 115.23393934 101.4720546 108.84106445 101.60424805 C106.67086496 101.6593555 104.50107003 101.73426998 102.33227539 101.82983398 C83.29654857 102.64721192 83.29654857 102.64721192 78.66625977 98.68261719 C76.37937596 95.88771965 74.70560348 93.17334704 73 90 C71.63827789 88.26435419 70.24598651 86.55186312 68.8125 84.875 C68.08417969 83.98425781 67.35585937 83.09351563 66.60546875 82.17578125 C64.55130412 79.66843148 62.48927364 77.16764653 60.42578125 74.66796875 C59.79889404 73.90822754 59.17200684 73.14848633 58.52612305 72.36572266 C57.27967074 70.85563776 56.03246402 69.34617517 54.78442383 67.83740234 C54.20845459 67.13953613 53.63248535 66.44166992 53.0390625 65.72265625 C52.52553223 65.10140869 52.01200195 64.48016113 51.48291016 63.84008789 C49.94299711 61.92926723 48.47245523 59.96327364 47 58 C46.67 64.6 46.34 71.2 46 78 C48.64 78 51.28 78 54 78 C54 85.59 54 93.18 54 101 C36.18 101 18.36 101 0 101 C0 93.41 0 85.82 0 78 C2.64 78 5.28 78 8 78 C8 59.85 8 41.7 8 23 C5.36 23 2.72 23 0 23 C0 15.41 0 7.82 0 0 Z M8 6 C8 9.63 8 13.26 8 17 C10.64 17 13.28 17 16 17 C16 39.11 16 61.22 16 84 C13.36 84 10.72 84 8 84 C8 87.63 8 91.26 8 95 C20.54 95 33.08 95 46 95 C46 91.37 46 87.74 46 84 C43.36 84 40.72 84 38 84 C38 67.83 38 51.66 38 35 C38.66 35 39.32 35 40 35 C40.24492187 35.72832031 40.48984375 36.45664063 40.7421875 37.20703125 C42.14474068 40.32139623 43.77913626 42.21494327 46.125 44.6875 C50.67876183 49.61048576 54.85358807 54.7333294 59 60 C60.97502245 62.48248374 62.9559368 64.96023561 64.9375 67.4375 C65.45183594 68.08114502 65.96617187 68.72479004 66.49609375 69.38793945 C70.21613914 74.03740758 73.97539466 78.65287258 77.76953125 83.2421875 C80 86 80 86 81.22241211 88.30151367 C82.92999992 91.16570012 84.32450564 92.9844662 87 95 C92.68447189 96.12390868 98.17698098 95.85286961 103.9375 95.5625 C105.49532709 95.51730568 107.05328006 95.47624968 108.61132812 95.43945312 C112.41068234 95.34075419 116.20394822 95.18578518 120 95 C120 91.37 120 87.74 120 84 C117.36 84 114.72 84 112 84 C112 61.89 112 39.78 112 17 C114.64 17 117.28 17 120 17 C120 13.37 120 9.74 120 6 C107.46 6 94.92 6 82 6 C82 9.63 82 13.26 82 17 C84.64 17 87.28 17 90 17 C90 33.5 90 50 90 67 C89.34 67 88.68 67 88 67 C87.74863281 66.43796875 87.49726563 65.8759375 87.23828125 65.296875 C85.81166901 62.65066681 84.11798132 60.55654912 82.1875 58.25 C81.38699219 57.28578125 80.58648437 56.3215625 79.76171875 55.328125 C79.32134277 54.79896484 78.8809668 54.26980469 78.42724609 53.72460938 C75.76083222 50.5026546 73.13348657 47.24887307 70.5 44 C66.84153737 39.49323627 63.17874792 34.99023643 59.5 30.5 C55.68292556 25.83705617 51.86954067 21.17113871 48.0625 16.5 C47.49402344 15.80455078 46.92554688 15.10910156 46.33984375 14.39257812 C45.80617187 13.73708984 45.2725 13.08160156 44.72265625 12.40625 C44.24578369 11.82166016 43.76891113 11.23707031 43.27758789 10.63476562 C42.11242705 9.14385849 41.04960122 7.57440183 40 6 C37.51659097 5.73272986 35.28527932 5.65133666 32.8046875 5.70703125 C31.74352219 5.71339851 31.74352219 5.71339851 30.66091919 5.71989441 C28.39856095 5.73670453 26.13708952 5.77435872 23.875 5.8125 C22.34246077 5.82754393 20.8099076 5.84123284 19.27734375 5.85351562 C15.51788682 5.88661538 11.75909382 5.93841175 8 6 Z " fill="#EBEBF0" transform="translate(136,58)"/>
<path d="M0 0 C1.22589844 0.15275391 1.22589844 0.15275391 2.4765625 0.30859375 C3.41628906 0.43427734 3.41628906 0.43427734 4.375 0.5625 C4.375 1.5525 4.375 2.5425 4.375 3.5625 C4.82875 2.9025 5.2825 2.2425 5.75 1.5625 C9.70732033 -1.4526012 13.56504145 -0.76795517 18.375 -0.4375 C18.375 0.8825 18.375 2.2025 18.375 3.5625 C17.055 3.5625 15.735 3.5625 14.375 3.5625 C14.045 8.8425 13.715 14.1225 13.375 19.5625 C11.395 19.5625 9.415 19.5625 7.375 19.5625 C7.375 18.9025 7.375 18.2425 7.375 17.5625 C6.715 17.2325 6.055 16.9025 5.375 16.5625 C5.375 17.2225 5.375 17.8825 5.375 18.5625 C1.73717368 19.77510877 -0.80235999 19.95794552 -4.625 19.5625 C-8.19580513 16.61270446 -10.40914179 14.46205225 -10.9375 9.8125 C-10.54720973 5.75348115 -9.12912622 3.72948316 -6.625 0.5625 C-4.10446405 -0.69776798 -2.7707902 -0.35624445 0 0 Z " fill="#EDEEF3" transform="translate(78.625,262.4375)"/>
<path d="M0 0 C0 15.84 0 31.68 0 48 C-3.3096437 44.6903563 -6.50214988 41.40912204 -9.625 37.9375 C-10.38039062 37.10089844 -11.13578125 36.26429687 -11.9140625 35.40234375 C-15.92263978 30.78572385 -17.4004812 28.23499548 -18 22 C-15.25 21.6875 -15.25 21.6875 -12 22 C-10.68 23.65 -9.36 25.3 -8 27 C-7.67 19.74 -7.34 12.48 -7 5 C-8.98 5 -10.96 5 -13 5 C-13 4.67 -13 4.34 -13 4 C-11.35 4 -9.7 4 -8 4 C-7.67 3.01 -7.34 2.02 -7 1 C-2.25 0 -2.25 0 0 0 Z " fill="#F8F8FB" transform="translate(225,76)"/>
<path d="M0 0 C0.99 0 1.98 0 3 0 C3 8.91 3 17.82 3 27 C1.68 26.67 0.36 26.34 -1 26 C-1.99 26.66 -2.98 27.32 -4 28 C-7.58823475 27.87184876 -10.05539031 27.73131073 -12.9375 25.5 C-14.5835232 21.62700423 -14.74812475 18.13249861 -14 14 C-12.66774325 11.03942944 -11.64364998 10.13741914 -9 8 C-5.51167779 8.05912411 -3.1147063 8.44264685 0 10 C0 6.7 0 3.4 0 0 Z " fill="#29273E" transform="translate(287,254)"/>
<path d="M0 0 C4.2762426 0.02732423 7.12681442 0.9818858 10.8125 3.25 C10.8125 5.89 10.8125 8.53 10.8125 11.25 C8.8325 12.24 8.8325 12.24 6.8125 13.25 C6.8125 13.91 6.8125 14.57 6.8125 15.25 C7.4725 15.25 8.1325 15.25 8.8125 15.25 C9.31865298 16.51839526 9.81719099 17.78983102 10.3125 19.0625 C10.5909375 19.77019531 10.869375 20.47789062 11.15625 21.20703125 C11.8125 23.25 11.8125 23.25 11.8125 26.25 C9.8984375 25.99609375 9.8984375 25.99609375 7.8125 25.25 C6.9765625 23.47265625 6.9765625 23.47265625 6.4375 21.3125 C5.80071699 19.13921948 5.80071699 19.13921948 4.8125 17.25 C1.77228632 15.65004618 1.77228632 15.65004618 -1.1875 15.25 C-1.1875 19.21 -1.1875 23.17 -1.1875 27.25 C-2.5075 27.25 -3.8275 27.25 -5.1875 27.25 C-5.21636537 22.93751391 -5.23425255 18.62505238 -5.25 14.3125 C-5.25837891 13.08080078 -5.26675781 11.84910156 -5.27539062 10.58007812 C-5.27861328 9.41025391 -5.28183594 8.24042969 -5.28515625 7.03515625 C-5.29039307 5.95113525 -5.29562988 4.86711426 -5.30102539 3.75024414 C-5.11611952 -0.32205916 -3.68644037 0.0740993 0 0 Z " fill="#4D4A63" transform="translate(329.1875,254.75)"/>
<path d="M0 0 C2.69990662 1.79993774 4.5418865 3.083773 6 6 C6.36206054 10.41713859 6.51432609 12.94898583 4.5625 16.9375 C1.42940786 19.45925709 -0.82418198 20.09964605 -4.8046875 20.31640625 C-7 20 -7 20 -10.0625 17.625 C-12.29899393 14.27025911 -12.78649995 11.11201348 -12.55078125 7.125 C-11.91954532 4.68959331 -11.20827953 3.6401765 -9.375 1.9375 C-5.70339661 -0.17027232 -4.13334836 -0.79149224 0 0 Z " fill="#2C2C47" transform="translate(394,262)"/>
<path d="M0 0 C4.16609825 1.36345034 5.91415654 2.53114719 8.4375 6.125 C9.14100252 8.95616869 9.16858851 11.29774366 8.4375 14.125 C5.48855654 17.77237744 3.29938526 19.87674863 -1.375 20.5 C-4.5625 20.125 -4.5625 20.125 -7.4375 18.25 C-10.02111303 14.45056907 -10.35280558 12.03547045 -10.109375 7.51171875 C-9.51273938 4.90783044 -8.91311533 3.77347358 -7 1.9375 C-3.5625 0.125 -3.5625 0.125 0 0 Z " fill="#302E44" transform="translate(167.5625,261.875)"/>
<path d="M0 0 C2.84780619 2.23206431 3.84997666 3.54992999 5 7 C5.22451458 9.22574335 5.40782878 11.45581519 5.5625 13.6875 C5.64628906 14.86699219 5.73007812 16.04648437 5.81640625 17.26171875 C5.87699219 18.16535156 5.93757813 19.06898438 6 20 C6.33 20 6.66 20 7 20 C7.33 18.35 7.66 16.7 8 15 C9.32 15 10.64 15 12 15 C11.43454163 18.95820859 10.19097652 21.6659053 8 25 C4.08597051 23.73058503 2.20927127 22.48832306 0 19 C-0.66 19.33 -1.32 19.66 -2 20 C-5 20.1875 -5 20.1875 -8 20 C-10 18 -10 18 -10.375 14.5625 C-10 11 -10 11 -8.4375 9.0625 C-5.19917389 7.65092195 -2.49186021 7.79854653 1 8 C0.34 6.68 -0.32 5.36 -1 4 C-3.64 4 -6.28 4 -9 4 C-8.67 3.01 -8.34 2.02 -8 1 C-5.15916359 -0.42041821 -3.14522722 -0.31452272 0 0 Z " fill="#252341" transform="translate(304,262)"/>
<path d="M0 0 C0.99 0 1.98 0 3 0 C3 8.58 3 17.16 3 26 C1.68 26 0.36 26 -1 26 C-2.46386719 24.34765625 -2.46386719 24.34765625 -3.796875 22.0625 C-4.28027344 21.25039063 -4.76367188 20.43828125 -5.26171875 19.6015625 C-5.75285156 18.74304688 -6.24398437 17.88453125 -6.75 17 C-7.25660156 16.14148438 -7.76320312 15.28296875 -8.28515625 14.3984375 C-9.53661 12.27332736 -10.77002427 10.13761299 -12 8 C-12.33 13.94 -12.66 19.88 -13 26 C-13.99 26 -14.98 26 -16 26 C-16 17.75 -16 9.5 -16 1 C-11 2 -11 2 -9.5144043 3.58227539 C-9.12164307 4.24735107 -8.72888184 4.91242676 -8.32421875 5.59765625 C-7.88916016 6.31630859 -7.45410156 7.03496094 -7.00585938 7.77539062 C-6.35327148 8.90750977 -6.35327148 8.90750977 -5.6875 10.0625 C-5.23310547 10.82111328 -4.77871094 11.57972656 -4.31054688 12.36132812 C-3.19263539 14.23235893 -2.09438329 16.11511073 -1 18 C-0.505 9.09 -0.505 9.09 0 0 Z " fill="#323049" transform="translate(213,255)"/>
<path d="M0 0 C1.19109375 0.08314453 1.19109375 0.08314453 2.40625 0.16796875 C4.5 0.8125 4.5 0.8125 5.78125 2.48828125 C6.5 4.8125 6.5 4.8125 6.5 10.8125 C2.21 10.8125 -2.08 10.8125 -6.5 10.8125 C-6.17 12.4625 -5.84 14.1125 -5.5 15.8125 C-2.2 16.1425 1.1 16.4725 4.5 16.8125 C4.5 17.4725 4.5 18.1325 4.5 18.8125 C1.36128812 20.38185594 -1.03855822 20.16451103 -4.5 19.8125 C-8.07080513 16.86270446 -10.28414179 14.71205225 -10.8125 10.0625 C-10.42220973 6.00348115 -9.00412622 3.97948316 -6.5 0.8125 C-4.05333494 -0.41083253 -2.70770626 -0.23296823 0 0 Z " fill="#47465D" transform="translate(78.5,262.1875)"/>
<path d="M0 0 C0.680625 0.2475 1.36125 0.495 2.0625 0.75 C2.0625 2.07 2.0625 3.39 2.0625 4.75 C3.7125 4.75 5.3625 4.75 7.0625 4.75 C7.0625 5.41 7.0625 6.07 7.0625 6.75 C5.4125 6.75 3.7625 6.75 2.0625 6.75 C2.3925 11.37 2.7225 15.99 3.0625 20.75 C4.3825 20.75 5.7025 20.75 7.0625 20.75 C7.0625 21.74 7.0625 22.73 7.0625 23.75 C4.1875 23.9375 4.1875 23.9375 1.0625 23.75 C-1.42868953 20.0132157 -1.1440226 18.00548181 -1.0625 13.5625 C-1.04445313 12.29019531 -1.02640625 11.01789063 -1.0078125 9.70703125 C-0.98460938 8.73121094 -0.96140625 7.75539063 -0.9375 6.75 C-2.2575 6.75 -3.5775 6.75 -4.9375 6.75 C-5.2675 12.36 -5.5975 17.97 -5.9375 23.75 C-7.2575 23.75 -8.5775 23.75 -9.9375 23.75 C-9.9375 17.15 -9.9375 10.55 -9.9375 3.75 C-2.9375 -0.25 -2.9375 -0.25 0 0 Z " fill="#C4C3D0" transform="translate(123.9375,258.25)"/>
<path d="M0 0 C1.32 0 2.64 0 4 0 C4.01981934 0.62567871 4.03963867 1.25135742 4.06005859 1.89599609 C4.15514226 4.72276519 4.26488746 7.54877815 4.375 10.375 C4.4059375 11.35984375 4.436875 12.3446875 4.46875 13.359375 C4.50742188 14.30039062 4.54609375 15.24140625 4.5859375 16.2109375 C4.6173584 17.08024902 4.6487793 17.94956055 4.68115234 18.84521484 C4.81229433 21.20961794 4.81229433 21.20961794 7 23 C10.58343976 23.16677282 10.58343976 23.16677282 14 23 C14.80652508 20.11832319 15.17515006 17.43968453 15.31640625 14.453125 C15.35830078 13.60878906 15.40019531 12.76445312 15.44335938 11.89453125 C15.48267578 11.02183594 15.52199219 10.14914062 15.5625 9.25 C15.60568359 8.36183594 15.64886719 7.47367187 15.69335938 6.55859375 C15.79913615 4.37254037 15.90122546 2.18637911 16 0 C16.99 0 17.98 0 19 0 C19.0875127 3.22899426 19.14056146 6.45768116 19.1875 9.6875 C19.21263672 10.59951172 19.23777344 11.51152344 19.26367188 12.45117188 C19.3182105 17.45054611 19.33163652 20.9695324 16 25 C12.79062591 27.32402951 9.88493979 27.47570691 6 27 C3.30009338 25.20006226 1.4581135 23.916227 0 21 C-0.08400529 19.40552536 -0.10727467 17.80759455 -0.09765625 16.2109375 C-0.09443359 15.26992188 -0.09121094 14.32890625 -0.08789062 13.359375 C-0.07951172 12.37453125 -0.07113281 11.3896875 -0.0625 10.375 C-0.05798828 9.38242187 -0.05347656 8.38984375 -0.04882812 7.3671875 C-0.03702145 4.9113984 -0.020554 2.45572896 0 0 Z " fill="#171635" transform="translate(0,255)"/>
<path d="M0 0 C3.69694981 -0.42987788 5.60594803 -0.22272502 8.875 1.625 C12.28461567 7.04027195 11.37947338 12.76820377 11 19 C9.06494977 19.24900646 7.12674066 19.47356242 5.1875 19.6875 C4.10855469 19.81511719 3.02960938 19.94273437 1.91796875 20.07421875 C-1 20 -1 20 -2.89453125 18.7421875 C-4 17 -4 17 -3.875 13.4375 C-3 10 -3 10 0 8 C2.33199388 7.92094936 4.66832622 7.91201231 7 8 C6.67 6.68 6.34 5.36 6 4 C3.36 4 0.72 4 -2 4 C-1.34 2.68 -0.68 1.36 0 0 Z " fill="#37364D" transform="translate(259,262)"/>
<path d="M0 0 C2.375 2.125 2.375 2.125 4 5 C4 6.98 4 8.96 4 11 C-0.29 11 -4.58 11 -9 11 C-7.51602399 15.1313635 -7.51602399 15.1313635 -4.6171875 15.828125 C-3.71226562 15.96734375 -2.80734375 16.1065625 -1.875 16.25 C-0.96492187 16.39953125 -0.05484375 16.5490625 0.8828125 16.703125 C1.58148438 16.80109375 2.28015625 16.8990625 3 17 C3 17.66 3 18.32 3 19 C-0.63782632 20.21260877 -3.17735999 20.39544552 -7 20 C-10.07141749 17.97417144 -11.68692009 16.5187122 -12.4453125 12.83984375 C-12.65082621 8.73641993 -12.33597269 6.53755631 -10.125 3 C-6.78052476 -0.1477414 -4.56725532 -0.54807064 0 0 Z " fill="#3E3D55" transform="translate(232,262)"/>
<path d="M0 0 C1.9375 1.6875 1.9375 1.6875 3 4 C3 5.98 3 7.96 3 10 C-2.94 10.495 -2.94 10.495 -9 11 C-8.34 12.32 -7.68 13.64 -7 15 C-4.81458448 15.6993514 -4.81458448 15.6993514 -2.375 15.75 C-1.55773437 15.80671875 -0.74046875 15.8634375 0.1015625 15.921875 C1.04128906 15.96054687 1.04128906 15.96054687 2 16 C1.67 16.99 1.34 17.98 1 19 C-6.23186925 19.49029622 -6.23186925 19.49029622 -9.9375 17.125 C-13.09695358 13.8698054 -13.33421243 11.57586762 -13.29296875 7.0390625 C-12.83745033 3.86865433 -11.24684343 2.1807598 -9 0 C-5.8168485 -1.59157575 -3.38676935 -0.77242108 0 0 Z " fill="#343348" transform="translate(356,263)"/>
<path d="M0 0 C0.33 0 0.66 0 1 0 C1 2.64 1 5.28 1 8 C3.31 8 5.62 8 8 8 C7.01 9.32 6.02 10.64 5 12 C5.66 11.67 6.32 11.34 7 11 C10 10.8125 10 10.8125 13 11 C15 13 15 13 15 16 C14.36191406 16.13277344 13.72382813 16.26554687 13.06640625 16.40234375 C11.82697266 16.66724609 11.82697266 16.66724609 10.5625 16.9375 C9.73878906 17.11152344 8.91507812 17.28554688 8.06640625 17.46484375 C6.02338796 17.80752994 6.02338796 17.80752994 5 19 C4.69476038 23.65088715 4.69476038 23.65088715 6 28 C5.34 28 4.68 28 4 28 C4.33 29.65 4.66 31.3 5 33 C3.515 33.495 3.515 33.495 2 34 C1.34 33.34 0.68 32.68 0 32 C0.33 31.01 0.66 30.02 1 29 C-0.32 28.34 -1.64 27.68 -3 27 C-2.01 27 -1.02 27 0 27 C0 18.09 0 9.18 0 0 Z " fill="#EDEDF2" transform="translate(290,254)"/>
<path d="M0 0 C1.32 0 2.64 0 4 0 C4.67305018 1.60149886 5.33822227 3.20631029 6 4.8125 C6.37125 5.70582031 6.7425 6.59914063 7.125 7.51953125 C8 10 8 10 8 13 C8.66 13 9.32 13 10 13 C10.12375 11.96875 10.2475 10.9375 10.375 9.875 C10.93889814 6.37883154 11.78682059 3.31602373 13 0 C14.32 0 15.64 0 17 0 C11.07034664 21.7902709 11.07034664 21.7902709 4 27 C3.01 27 2.02 27 1 27 C1.41927628 24.06506604 1.87924008 23.11010463 4.125 21.0625 C5.053125 20.0415625 5.053125 20.0415625 6 19 C5.55998738 14.7079471 3.91805659 10.71444804 2.4375 6.6875 C2.08655273 5.71973633 2.08655273 5.71973633 1.72851562 4.73242188 C1.15552993 3.15378781 0.57820536 1.57672974 0 0 Z " fill="#29283F" transform="translate(132,263)"/>
<path d="M0 0 C3 0.875 3 0.875 4.67578125 2.4453125 C6.50807025 5.8072115 6.32462082 8.90515826 6.1875 12.625 C6.16719727 13.67107422 6.16719727 13.67107422 6.14648438 14.73828125 C6.1112945 16.45085541 6.05749155 18.16302941 6 19.875 C4.68 19.875 3.36 19.875 2 19.875 C1.67 14.925 1.34 9.975 1 4.875 C-0.65 4.545 -2.3 4.215 -4 3.875 C-6.77042109 6.64542109 -6.39796106 8.64033805 -6.625 12.5 C-6.69976563 13.68851562 -6.77453125 14.87703125 -6.8515625 16.1015625 C-6.90054687 17.01679688 -6.94953125 17.93203125 -7 18.875 C-7.99 18.875 -8.98 18.875 -10 18.875 C-10 12.935 -10 6.995 -10 0.875 C-8.68 1.205 -7.36 1.535 -6 1.875 C-3 -0.125 -3 -0.125 0 0 Z " fill="#3A3753" transform="translate(34,262.125)"/>
<path d="M0 0 C1.65 0.33 3.3 0.66 5 1 C5 3.64 5 6.28 5 9 C3.02 9.99 3.02 9.99 1 11 C1 11.66 1 12.32 1 13 C1.66 13 2.32 13 3 13 C3.50615298 14.26839526 4.00469099 15.53983102 4.5 16.8125 C4.7784375 17.52019531 5.056875 18.22789062 5.34375 18.95703125 C6 21 6 21 6 24 C4.08203125 23.74609375 4.08203125 23.74609375 2 23 C1.19921875 21.22265625 1.19921875 21.22265625 0.6875 19.0625 C0.06308765 16.87920845 0.06308765 16.87920845 -1 15 C-4.54863159 13.38864654 -4.54863159 13.38864654 -8 13 C-8 16.63 -8 20.26 -8 24 C-8.66 24 -9.32 24 -10 24 C-10 18.06 -10 12.12 -10 6 C-9.34 6 -8.68 6 -8 6 C-8 7.65 -8 9.3 -8 11 C-6.68647977 10.69181644 -5.37420428 10.37832335 -4.0625 10.0625 C-3.33160156 9.88847656 -2.60070312 9.71445312 -1.84765625 9.53515625 C-0.00030102 9.16112431 -0.00030102 9.16112431 1 8 C0.8981629 6.08575543 0.8981629 6.08575543 0.5625 3.9375 C0.376875 2.638125 0.19125 1.33875 0 0 Z " fill="#2A2842" transform="translate(335,257)"/>
<path d="M0 0 C1.670625 0.061875 1.670625 0.061875 3.375 0.125 C3.375 0.785 3.375 1.445 3.375 2.125 C2.570625 2.351875 1.76625 2.57875 0.9375 2.8125 C0.091875 3.245625 -0.75375 3.67875 -1.625 4.125 C-2.51886164 6.67275306 -2.51886164 6.67275306 -2.625 9.125 C-1.305 9.125 0.015 9.125 1.375 9.125 C1.375 9.785 1.375 10.445 1.375 11.125 C0.055 11.125 -1.265 11.125 -2.625 11.125 C-2.625 16.735 -2.625 22.345 -2.625 28.125 C-3.945 28.125 -5.265 28.125 -6.625 28.125 C-6.625 22.515 -6.625 16.905 -6.625 11.125 C-7.285 11.125 -7.945 11.125 -8.625 11.125 C-8.625 10.135 -8.625 9.145 -8.625 8.125 C-7.965 8.125 -7.305 8.125 -6.625 8.125 C-6.50125 7.17625 -6.3775 6.2275 -6.25 5.25 C-5.34326729 0.71633645 -4.65257101 0.16043348 0 0 Z " fill="#151330" transform="translate(185.625,253.875)"/>
<path d="M0 0 C2 2 2 2 2.1953125 5.6953125 C2.182009 7.17200108 2.15814835 8.64862358 2.125 10.125 C2.11597656 10.87910156 2.10695313 11.63320313 2.09765625 12.41015625 C2.0740687 14.27357254 2.03819719 16.13682593 2 18 C1.01 18 0.02 18 -1 18 C-1.33 13.38 -1.66 8.76 -2 4 C-3.65 3.67 -5.3 3.34 -7 3 C-9.77042109 5.77042109 -9.39796106 7.76533805 -9.625 11.625 C-9.69976562 12.81351562 -9.77453125 14.00203125 -9.8515625 15.2265625 C-9.90054687 16.14179688 -9.94953125 17.05703125 -10 18 C-10.99 18 -11.98 18 -13 18 C-13 12.06 -13 6.12 -13 0 C-12.34 0 -11.68 0 -11 0 C-11 0.66 -11 1.32 -11 2 C-10.484375 1.484375 -9.96875 0.96875 -9.4375 0.4375 C-5.98386566 -1.59925871 -3.80968111 -0.91714545 0 0 Z " fill="#232139" transform="translate(376,263)"/>
<path d="M0 0 C2.5 0.4375 2.5 0.4375 4.3125 1.4375 C6.21020228 4.63363015 6.05003751 7.820815 5.5 11.4375 C4.3125 13.4375 4.3125 13.4375 2.5 14.4375 C-0.32115488 14.86067323 -1.83950907 14.82468434 -4.3125 13.375 C-6.17584949 10.33479821 -5.86649683 7.91921989 -5.5 4.4375 C-4.01298805 1.38521232 -3.36475848 0.58883273 0 0 Z " fill="#F1F0F7" transform="translate(166.5,264.5625)"/>
<path d="M0 0 C2.3431213 0.25561323 4.67843403 0.59270772 7 1 C8.59211531 4.18423061 8.38981631 7.53417863 8 11 C6.8125 13 6.8125 13 5 14 C2.5 14.4375 2.5 14.4375 0 14 C-2.50907308 11.75048621 -2.95656309 10.34749528 -3.375 7 C-2.96644557 3.73156457 -2.20409407 2.38776858 0 0 Z " fill="#ECECF1" transform="translate(279,265)"/>
<path d="M0 0 C3.5625 0.25 3.5625 0.25 7 1 C8.59211531 4.18423061 8.38981631 7.53417863 8 11 C6.8125 13 6.8125 13 5 14 C2.5 14.4375 2.5 14.4375 0 14 C-1.875 12.5 -1.875 12.5 -3 10 C-3.03955941 7.1404196 -2.59675735 4.84607354 -2 2 C-1.34 1.34 -0.68 0.68 0 0 Z " fill="#EFF2F5" transform="translate(388,265)"/>
<path d="M0 0 C2.475 0.495 2.475 0.495 5 1 C5.50559908 2.43554025 6.0042749 3.8735202 6.5 5.3125 C6.7784375 6.11300781 7.056875 6.91351563 7.34375 7.73828125 C8 10 8 10 8 13 C8.66 13 9.32 13 10 13 C10.12117187 12.39671875 10.24234375 11.7934375 10.3671875 11.171875 C10.53476563 10.37265625 10.70234375 9.5734375 10.875 8.75 C11.03742188 7.96109375 11.19984375 7.1721875 11.3671875 6.359375 C11.99150075 4.03168856 12.84838542 2.10968048 14 0 C14.99 0 15.98 0 17 0 C16.31583566 4.17576168 14.98634991 7.88080407 13.4375 11.8125 C12.98246094 12.97394531 12.52742187 14.13539063 12.05859375 15.33203125 C11.70925781 16.21246094 11.35992187 17.09289062 11 18 C8.70703125 18.03515625 8.70703125 18.03515625 6 17 C4.43242596 14.30521698 3.59222801 11.40949569 2.6875 8.4375 C2.42388672 7.63119141 2.16027344 6.82488281 1.88867188 5.99414062 C1.24037326 4.00209579 0.61771598 2.00173941 0 0 Z " fill="#2F2F47" transform="translate(237,263)"/>
<path d="M0 0 C2.475 0.495 2.475 0.495 5 1 C5.50559908 2.43554025 6.0042749 3.8735202 6.5 5.3125 C6.7784375 6.11300781 7.056875 6.91351563 7.34375 7.73828125 C8 10 8 10 8 13 C8.66 13 9.32 13 10 13 C10.103125 12.154375 10.20625 11.30875 10.3125 10.4375 C11.0828854 6.58557299 12.36274514 3.55924969 14 0 C15.32 0.33 16.64 0.66 18 1 C15.69 6.61 13.38 12.22 11 18 C9.68 18 8.36 18 7 18 C4.69 12.06 2.38 6.12 0 0 Z " fill="#29283F" transform="translate(50,263)"/>
<path d="M0 0 C0.33 0.99 0.66 1.98 1 3 C-1.31 3.33 -3.62 3.66 -6 4 C-6 5.32 -6 6.64 -6 8 C-4.8553125 8.1546875 -4.8553125 8.1546875 -3.6875 8.3125 C-0.750546 9.06381381 0.40238809 9.42606971 2 12 C1.9375 15.0625 1.9375 15.0625 1 18 C-2.05429117 20.48868169 -5.19181728 20.17309921 -9 20 C-9.33 18.68 -9.66 17.36 -10 16 C-7.69 16 -5.38 16 -3 16 C-2.67 14.68 -2.34 13.36 -2 12 C-2.94875 11.71125 -3.8975 11.4225 -4.875 11.125 C-8 10 -8 10 -10 8 C-10.375 5.5625 -10.375 5.5625 -10 3 C-7.00198322 -0.3439418 -4.3216814 -0.2946601 0 0 Z " fill="#363545" transform="translate(109,262)"/>
<path d="M0 0 C0 0.33 0 0.66 0 1 C-0.763125 1.04125 -1.52625 1.0825 -2.3125 1.125 C-5.32405113 1.77823609 -5.32405113 1.77823609 -6.8125 5.0625 C-7.204375 6.031875 -7.59625 7.00125 -8 8 C-5.36 8 -2.72 8 0 8 C0 8.33 0 8.66 0 9 C-2.64 9 -5.28 9 -8 9 C-7.75568004 11.54251602 -7.75568004 11.54251602 -6 14 C-2.72174346 15.08008783 0.58056494 15.57730231 4 16 C4 16.66 4 17.32 4 18 C0.36217368 19.21260877 -2.17735999 19.39544552 -6 19 C-9.07141749 16.97417144 -10.68692009 15.5187122 -11.4453125 11.83984375 C-11.64196028 7.91344301 -11.23980659 5.47002092 -9.4375 1.9375 C-6.18950101 -0.64424279 -4.040915 -0.38854952 0 0 Z " fill="#2E2C44" transform="translate(231,263)"/>
<path d="M0 0 C0.99 0 1.98 0 3 0 C3 1.32 3 2.64 3 4 C4.65 4 6.3 4 8 4 C8 4.66 8 5.32 8 6 C6.35 6 4.7 6 3 6 C3.33 10.62 3.66 15.24 4 20 C5.32 20 6.64 20 8 20 C8 20.99 8 21.98 8 23 C5.125 23.1875 5.125 23.1875 2 23 C-0.49118953 19.2632157 -0.2065226 17.25548181 -0.125 12.8125 C-0.10695313 11.54019531 -0.08890625 10.26789063 -0.0703125 8.95703125 C-0.04710938 7.98121094 -0.02390625 7.00539063 0 6 C-0.99 6 -1.98 6 -3 6 C-3 5.34 -3 4.68 -3 4 C-2.01 4 -1.02 4 0 4 C0 2.68 0 1.36 0 0 Z " fill="#1A1839" transform="translate(123,259)"/>
<path d="M0 0 C0 1.32 0 2.64 0 4 C-1.32 4 -2.64 4 -4 4 C-4.33 9.28 -4.66 14.56 -5 20 C-6.32 20 -7.64 20 -9 20 C-9 13.73 -9 7.46 -9 1 C-7.68 1.33 -6.36 1.66 -5 2 C-2 0 -2 0 0 0 Z " fill="#4C4B62" transform="translate(97,262)"/>
<path d="M0 0 C2.475 0.495 2.475 0.495 5 1 C5 2.65 5 4.3 5 6 C4.67 6 4.34 6 4 6 C3.67 12.27 3.34 18.54 3 25 C2.01 25 1.02 25 0 25 C0 16.75 0 8.5 0 0 Z " fill="#201D3B" transform="translate(197,256)"/>
<path d="M0 0 C0.33 0 0.66 0 1 0 C1 5.94 1 11.88 1 18 C1.99 18 2.98 18 4 18 C4.22786458 20.01822917 4.45572917 22.03645833 4.68359375 24.0546875 C4.91292961 26.07404316 4.91292961 26.07404316 6 28 C5.34 28 4.68 28 4 28 C4.33 29.65 4.66 31.3 5 33 C3.515 33.495 3.515 33.495 2 34 C1.34 33.34 0.68 32.68 0 32 C0.33 31.01 0.66 30.02 1 29 C-0.32 28.34 -1.64 27.68 -3 27 C-2.01 27 -1.02 27 0 27 C0 18.09 0 9.18 0 0 Z " fill="#D9D9DF" transform="translate(290,254)"/>
<path d="M0 0 C2.1796875 1.53515625 2.1796875 1.53515625 4 4 C4.2911521 6.73682971 4.38322418 9.03940039 4.25 11.75 C4.23195313 12.44738281 4.21390625 13.14476562 4.1953125 13.86328125 C4.14838554 15.57611539 4.07664605 17.28823824 4 19 C3.34 19 2.68 19 2 19 C2 18.34 2 17.68 2 17 C1.01 16.67 0.02 16.34 -1 16 C-0.34 13.69 0.32 11.38 1 9 C0.01 8.67 -0.98 8.34 -2 8 C-1.01 8 -0.02 8 1 8 C0.34 6.68 -0.32 5.36 -1 4 C-3.64 4 -6.28 4 -9 4 C-8.67 3.01 -8.34 2.02 -8 1 C-5.15916359 -0.42041821 -3.14522722 -0.31452272 0 0 Z " fill="#1B1834" transform="translate(304,262)"/>
<path d="M0 0 C1.17755859 0.09667969 1.17755859 0.09667969 2.37890625 0.1953125 C4.4375 0.875 4.4375 0.875 5.71484375 2.6171875 C6.4375 4.875 6.4375 4.875 6.4375 9.875 C1.8175 9.875 -2.8025 9.875 -7.5625 9.875 C-7.5625 9.545 -7.5625 9.215 -7.5625 8.875 C-4.2625 8.875 -0.9625 8.875 2.4375 8.875 C1.7775 7.225 1.1175 5.575 0.4375 3.875 C-1.97869823 3.62469023 -1.97869823 3.62469023 -4.5625 3.875 C-5.5525 5.36 -5.5525 5.36 -6.5625 6.875 C-7.5525 6.875 -8.5425 6.875 -9.5625 6.875 C-7.73533142 1.5340457 -5.79805399 -0.59222298 0 0 Z " fill="#3D3C52" transform="translate(78.5625,262.125)"/>
<path d="M0 0 C4.39203523 -0.27433434 8.77940737 -0.47254024 13.17749023 -0.60424805 C14.66893407 -0.65918835 16.15979559 -0.73398397 17.64916992 -0.82983398 C30.04208482 -1.60672808 30.04208482 -1.60672808 35.04345703 2.49755859 C37.28457291 5.23670022 39.22121886 7.94390428 41 11 C40.34 11.99 39.68 12.98 39 14 C39 13.34 39 12.68 39 12 C38.34 12 37.68 12 37 12 C37 11.01 37 10.02 37 9 C36.34 9 35.68 9 35 9 C33.31126121 7.35570171 31.64694485 5.68615782 30 4 C28.68824014 2.97186389 27.3630107 1.95915568 26 1 C25.67 1.66 25.34 2.32 25 3 C25 2.34 25 1.68 25 1 C17.08 1 9.16 1 1 1 C1 3.97 1 6.94 1 10 C0.67 10 0.34 10 0 10 C0 6.7 0 3.4 0 0 Z " fill="#1F1F3C" transform="translate(144,64)"/>
<path d="M0 0 C1.32 0 2.64 0 4 0 C4 6.27 4 12.54 4 19 C2.68 19 1.36 19 0 19 C0 12.73 0 6.46 0 0 Z " fill="#3D3A54" transform="translate(44,263)"/>
<path d="M0 0 C5.625 -0.25 5.625 -0.25 9 2 C9.3125 4.5 9.3125 4.5 9 7 C7 9 7 9 3.375 9.125 C2.26125 9.08375 1.1475 9.0425 0 9 C0 6.03 0 3.06 0 0 Z " fill="#F5F5F9" transform="translate(328,258)"/>
<path d="M0 0 C0.99 0 1.98 0 3 0 C3 8.91 3 17.82 3 27 C2.67 27 2.34 27 2 27 C2 25.02 2 23.04 2 21 C1.34 21 0.68 21 0 21 C-0.66 17.7 -1.32 14.4 -2 11 C-1.34 11 -0.68 11 0 11 C0 7.37 0 3.74 0 0 Z " fill="#181630" transform="translate(287,254)"/>
<path d="M0 0 C0.33 0 0.66 0 1 0 C1.33 3.63 1.66 7.26 2 11 C2.66 9.68 3.32 8.36 4 7 C5.32 7.33 6.64 7.66 8 8 C7.01 8 6.02 8 5 8 C5 13.94 5 19.88 5 26 C4.67 26 4.34 26 4 26 C3.67 24.35 3.34 22.7 3 21 C2.34 21.66 1.68 22.32 1 23 C0.34 22.67 -0.32 22.34 -1 22 C-0.67 14.74 -0.34 7.48 0 0 Z " fill="#DADCE5" transform="translate(19,255)"/>
<path d="M0 0 C3.5895464 4.36988258 4.13599111 7.66467599 4.0625 13.25 C4.05347656 14.14203125 4.04445313 15.0340625 4.03515625 15.953125 C4.02355469 16.62859375 4.01195312 17.3040625 4 18 C3.34 18.33 2.68 18.66 2 19 C0 18 0 18 -0.6328125 16.15234375 C-0.79523438 15.42144531 -0.95765625 14.69054687 -1.125 13.9375 C-1.37636719 12.83728516 -1.37636719 12.83728516 -1.6328125 11.71484375 C-1.75398438 11.14894531 -1.87515625 10.58304687 -2 10 C-2.66 10 -3.32 10 -4 10 C-4 9.34 -4 8.68 -4 8 C-3.01 7.34 -2.02 6.68 -1 6 C-0.26656572 2.93443402 -0.26656572 2.93443402 0 0 Z " fill="#EDEEF5" transform="translate(340,260)"/>
<path d="M0 0 C0.33 0 0.66 0 1 0 C1.61364554 7.24101736 1.61364554 7.24101736 -1.375 10.9375 C-5.18740715 13.93296276 -7.16081027 14.29627692 -12 14 C-12.99 13.34 -13.98 12.68 -15 12 C-15 11.01 -15 10.02 -15 9 C-14.06027344 9.14308594 -14.06027344 9.14308594 -13.1015625 9.2890625 C-11.87566406 9.45535156 -11.87566406 9.45535156 -10.625 9.625 C-9.81289062 9.74101562 -9.00078125 9.85703125 -8.1640625 9.9765625 C-7.44992188 9.98429687 -6.73578125 9.99203125 -6 10 C-3.64046906 7.64046906 -3.50858587 6.22104383 -3 3 C-2.01 4.485 -2.01 4.485 -1 6 C-0.67 4.02 -0.34 2.04 0 0 Z " fill="#323144" transform="translate(175,268)"/>
<path d="M0 0 C0.33 0 0.66 0 1 0 C1.33 4.29 1.66 8.58 2 13 C2.33 13 2.66 13 3 13 C3.33 11.35 3.66 9.7 4 8 C5.32 8 6.64 8 8 8 C7.43454163 11.95820859 6.19097652 14.6659053 4 18 C-0.67692308 16.52307692 -0.67692308 16.52307692 -2.3125 13.875 C-2.539375 13.25625 -2.76625 12.6375 -3 12 C-2.01 12 -1.02 12 0 12 C0 8.04 0 4.08 0 0 Z " fill="#D6D6E0" transform="translate(308,269)"/>
<path d="M0 0 C3.96 0 7.92 0 12 0 C11 4 11 4 9 6 C3.79155673 6.55408971 3.79155673 6.55408971 1.125 4.6875 C0 3 0 3 0 0 Z " fill="#F5F5FB" transform="translate(72,273)"/>
<path d="M0 0 C0.99 0 1.98 0 3 0 C3 6.6 3 13.2 3 20 C2.01 20 1.02 20 0 20 C0 13.4 0 6.8 0 0 Z " fill="#18193E" transform="translate(0,256)"/>
<path d="M0 0 C3.11398457 -0.21231713 5.45304074 -0.21590497 8.375 0.9375 C10.99520534 4.26314524 10.30779383 7.9217317 10 12 C9.67 11.01 9.34 10.02 9 9 C6.69 9.33 4.38 9.66 2 10 C2 9.34 2 8.68 2 8 C3.65 8 5.3 8 7 8 C6.67 6.68 6.34 5.36 6 4 C3.36 4 0.72 4 -2 4 C-1.34 2.68 -0.68 1.36 0 0 Z " fill="#1B1B33" transform="translate(259,262)"/>
<path d="M0 0 C0.99 0 1.98 0 3 0 C3 5.94 3 11.88 3 18 C2.01 18 1.02 18 0 18 C0 12.06 0 6.12 0 0 Z " fill="#1E1C3A" transform="translate(114,263)"/>
<path d="M0 0 C0.66 0 1.32 0 2 0 C2 0.99 2 1.98 2 3 C2.66 3 3.32 3 4 3 C3.67 7.95 3.34 12.9 3 18 C2.01 18 1.02 18 0 18 C0 12.06 0 6.12 0 0 Z " fill="#171530" transform="translate(24,263)"/>
<path d="M0 0 C0.99 0 1.98 0 3 0 C2.31583566 4.17576168 0.98634991 7.88080407 -0.5625 11.8125 C-1.01753906 12.97394531 -1.47257813 14.13539063 -1.94140625 15.33203125 C-2.29074219 16.21246094 -2.64007813 17.09289062 -3 18 C-3.99 17.67 -4.98 17.34 -6 17 C-4.46745644 11.12524968 -2.32330984 5.60526694 0 0 Z " fill="#27273B" transform="translate(251,263)"/>
<path d="M0 0 C0.66 0 1.32 0 2 0 C2 8.25 2 16.5 2 25 C1.01 25 0.02 25 -1 25 C-0.67 16.75 -0.34 8.5 0 0 Z " fill="#171433" transform="translate(214,256)"/>
<path d="M0 0 C1.1446875 0.3403125 1.1446875 0.3403125 2.3125 0.6875 C2.3125 4.6875 2.3125 4.6875 1.3125 6.6875 C-0.3375 6.3575 -1.9875 6.0275 -3.6875 5.6875 C-4.0175 8.9875 -4.3475 12.2875 -4.6875 15.6875 C-5.0175 15.6875 -5.3475 15.6875 -5.6875 15.6875 C-5.7685206 13.58396505 -5.82669907 11.47954048 -5.875 9.375 C-5.90980469 8.20324219 -5.94460937 7.03148437 -5.98046875 5.82421875 C-5.6875 2.6875 -5.6875 2.6875 -4.34375 0.75 C-2.6875 -0.3125 -2.6875 -0.3125 0 0 Z " fill="#DFDEE6" transform="translate(32.6875,265.3125)"/>
<path d="M0 0 C0.33 0 0.66 0 1 0 C1 2.97 1 5.94 1 9 C2.38505737 8.95456055 2.38505737 8.95456055 3.7980957 8.90820312 C7.2253293 8.79599753 10.65257654 8.68422793 14.07983398 8.57275391 C15.56291261 8.52442614 17.04598559 8.4759248 18.52905273 8.42724609 C20.66128094 8.35729016 22.7935287 8.2879593 24.92578125 8.21875 C26.20880127 8.17685547 27.49182129 8.13496094 28.8137207 8.09179688 C30.87518547 8.03240597 32.93767989 8 35 8 C35.66 8.66 36.32 9.32 37 10 C24.79 10 12.58 10 0 10 C0 6.7 0 3.4 0 0 Z " fill="#1E1B3A" transform="translate(144,143)"/>
<path d="M0 0 C0.66 0.33 1.32 0.66 2 1 C1.75 3.875 1.75 3.875 1 7 C-2.05429117 9.48868169 -5.19181728 9.17309921 -9 9 C-9.33 7.68 -9.66 6.36 -10 5 C-8.906875 5.103125 -7.81375 5.20625 -6.6875 5.3125 C-5.470625 5.209375 -4.25375 5.10625 -3 5 C-0.99135641 2.6273026 -0.99135641 2.6273026 0 0 Z " fill="#343244" transform="translate(109,273)"/>
<path d="M0 0 C0.94875 0.04125 1.8975 0.0825 2.875 0.125 C3 2.5 3 2.5 2.875 5.125 C0.875 7.125 0.875 7.125 -1.75 7.25 C-2.53375 7.20875 -3.3175 7.1675 -4.125 7.125 C-4.75 4.75 -4.75 4.75 -5.125 2.125 C-3.125 0.125 -3.125 0.125 0 0 Z " fill="#E7E9F0" transform="translate(302.125,271.875)"/>
<path d="M0 0 C0.33 0 0.66 0 1 0 C1 7.26 1 14.52 1 22 C1.66 22 2.32 22 3 22 C3 16.72 3 11.44 3 6 C3.33 6 3.66 6 4 6 C4 11.61 4 17.22 4 23 C2.68 23 1.36 23 0 23 C0 17.39 0 11.78 0 6 C-0.66 6 -1.32 6 -2 6 C-2 5.01 -2 4.02 -2 3 C-1.34 3 -0.68 3 0 3 C0 2.01 0 1.02 0 0 Z " fill="#5A596F" transform="translate(179,259)"/>
<path d="M0 0 C0.66 0 1.32 0 2 0 C2 1.65 2 3.3 2 5 C4.31 5 6.62 5 9 5 C8.34 5.66 7.68 6.32 7 7 C5.35 7 3.7 7 2 7 C2 10.63 2 14.26 2 18 C1.34 18 0.68 18 0 18 C0 12.06 0 6.12 0 0 Z " fill="#181432" transform="translate(325,263)"/>
<path d="M0 0 C0.66 0.66 1.32 1.32 2 2 C1.34 2 0.68 2 0 2 C-0.33 2.66 -0.66 3.32 -1 4 C-2.65 4 -4.3 4 -6 4 C-6.66 5.32 -7.32 6.64 -8 8 C-8.99 8 -9.98 8 -11 8 C-11.33 8.66 -11.66 9.32 -12 10 C-12.375 7.8125 -12.375 7.8125 -12 5 C-8.19548014 0.92372872 -5.78458187 -0.92027439 0 0 Z " fill="#333247" transform="translate(394,262)"/>
<path d="M0 0 C1.0725 0.103125 2.145 0.20625 3.25 0.3125 C3.25 0.6425 3.25 0.9725 3.25 1.3125 C2.486875 1.35375 1.72375 1.395 0.9375 1.4375 C-2.07405113 2.09073609 -2.07405113 2.09073609 -3.5625 5.375 C-3.954375 6.344375 -4.34625 7.31375 -4.75 8.3125 C-2.11 8.3125 0.53 8.3125 3.25 8.3125 C3.25 8.6425 3.25 8.9725 3.25 9.3125 C0.17382812 9.60546875 0.17382812 9.60546875 -2.90234375 9.8984375 C-3.51207031 10.03507812 -4.12179688 10.17171875 -4.75 10.3125 C-5.08 10.9725 -5.41 11.6325 -5.75 12.3125 C-6.41 12.3125 -7.07 12.3125 -7.75 12.3125 C-8.06087045 8.34890173 -8.07482417 5.92316944 -6.1875 2.375 C-3.75 0.3125 -3.75 0.3125 0 0 Z " fill="#1C1B36" transform="translate(227.75,262.6875)"/>
<path d="M0 0 C1.5 1.125 1.5 1.125 3 3 C3 4.98 3 6.96 3 9 C-1.62 9 -6.24 9 -11 9 C-11 8.34 -11 7.68 -11 7 C-7.37 7 -3.74 7 0 7 C-0.185625 6.030625 -0.37125 5.06125 -0.5625 4.0625 C-0.706875 3.051875 -0.85125 2.04125 -1 1 C-0.67 0.67 -0.34 0.34 0 0 Z " fill="#2D2D41" transform="translate(356,264)"/>
<path d="M0 0 C2 3 2 3 2 5 C5.3 5.33 8.6 5.66 12 6 C12 6.66 12 7.32 12 8 C8.86128812 9.56935594 6.46144178 9.35201103 3 9 C0.0625 6.5 0.0625 6.5 -2 4 C-1.34 2.68 -0.68 1.36 0 0 Z " fill="#2F2D40" transform="translate(71,273)"/>
<path d="M0 0 C1.32 0 2.64 0 4 0 C4 3.96 4 7.92 4 12 C3.01 12.495 3.01 12.495 2 13 C2 11.02 2 9.04 2 7 C1.34 7 0.68 7 0 7 C0 8.65 0 10.3 0 12 C-0.33 12 -0.66 12 -1 12 C-1.02712066 10.56260487 -1.04645067 9.12506137 -1.0625 7.6875 C-1.07410156 6.88699219 -1.08570312 6.08648437 -1.09765625 5.26171875 C-1 3 -1 3 0 0 Z " fill="#EFF0F7" transform="translate(119,265)"/>
<path d="M0 0 C1.32 0 2.64 0 4 0 C4.01981934 0.62044189 4.03963867 1.24088379 4.06005859 1.88012695 C4.15531845 4.69134537 4.26499302 7.50182166 4.375 10.3125 C4.4059375 11.28896484 4.436875 12.26542969 4.46875 13.27148438 C4.50742188 14.20927734 4.54609375 15.14707031 4.5859375 16.11328125 C4.6173584 16.97735596 4.6487793 17.84143066 4.68115234 18.73168945 C4.87188037 21.27742445 4.87188037 21.27742445 7 24 C6.01 24.66 5.02 25.32 4 26 C2.4375 24.8125 2.4375 24.8125 1 23 C1.30404678 21.32774271 1.64628502 19.66246041 2 18 C2.26684156 15.06689194 2.41211592 12.12861807 2.5625 9.1875 C2.60568359 8.39923828 2.64886719 7.61097656 2.69335938 6.79882812 C2.79878321 4.86605785 2.89983094 2.93304974 3 1 C2.01 0.67 1.02 0.34 0 0 Z " fill="#5B5B6F" transform="translate(0,255)"/>
<path d="M0 0 C3.875 1.875 3.875 1.875 5 3 C6.51469448 3.23192865 8.03754562 3.41215238 9.5625 3.5625 C10.38878906 3.64628906 11.21507812 3.73007812 12.06640625 3.81640625 C12.70449219 3.87699219 13.34257812 3.93757813 14 4 C13.67 4.99 13.34 5.98 13 7 C5.80714661 7.48765108 5.80714661 7.48765108 2 5.1875 C0 3 0 3 0 0 Z " fill="#1B1A30" transform="translate(344,275)"/>
<path d="M0 0 C0.78375 0.04125 1.5675 0.0825 2.375 0.125 C2.5 2.5 2.5 2.5 2.375 5.125 C0.375 7.125 0.375 7.125 -2.25 7.25 C-3.03375 7.20875 -3.8175 7.1675 -4.625 7.125 C-4.75 4.75 -4.75 4.75 -4.625 2.125 C-2.625 0.125 -2.625 0.125 0 0 Z " fill="#F7F8FD" transform="translate(263.625,271.875)"/>
<path d="M0 0 C1.32 0.66 2.64 1.32 4 2 C4 2.66 4 3.32 4 4 C3.01 4.66 2.02 5.32 1 6 C0.27617533 8.05925139 0.27617533 8.05925139 0 10 C-1.98 10.33 -3.96 10.66 -6 11 C-6.33 10.34 -6.66 9.68 -7 9 C-6.67 8.34 -6.34 7.68 -6 7 C-4.68 7 -3.36 7 -2 7 C-1.855625 6.21625 -1.71125 5.4325 -1.5625 4.625 C-1 2 -1 2 0 0 Z " fill="#F2F3FA" transform="translate(99,259)"/>
<path d="M0 0 C0.99 0 1.98 0 3 0 C3 1.32 3 2.64 3 4 C4.65 4 6.3 4 8 4 C8 4.66 8 5.32 8 6 C6.35 6 4.7 6 3 6 C3 7.98 3 9.96 3 12 C0.8614515 9.8614515 0.57344937 8.86724686 0 6 C-0.99 6 -1.98 6 -3 6 C-3 5.34 -3 4.68 -3 4 C-2.01 4 -1.02 4 0 4 C0 2.68 0 1.36 0 0 Z " fill="#171430" transform="translate(123,259)"/>
<path d="M0 0 C0.99 0.33 1.98 0.66 3 1 C2.8125 2.8125 2.8125 2.8125 2 5 C-1.66125071 7.92900057 -4.3824571 8.32215416 -9 8 C-9 7.01 -9 6.02 -9 5 C-6.36 4.67 -3.72 4.34 -1 4 C-0.67 2.68 -0.34 1.36 0 0 Z " fill="#2C2B40" transform="translate(15,274)"/>
<path d="M0 0 C2 2 2 2 2.1953125 5.2578125 C2.17210938 6.53398437 2.14890625 7.81015625 2.125 9.125 C2.10695313 10.40632813 2.08890625 11.68765625 2.0703125 13.0078125 C2.04710938 13.99523437 2.02390625 14.98265625 2 16 C1.01 16 0.02 16 -1 16 C-1.02725341 14.2709226 -1.04650987 12.54171824 -1.0625 10.8125 C-1.07410156 9.84957031 -1.08570312 8.88664062 -1.09765625 7.89453125 C-1.00486622 5.14423487 -0.62111685 2.67520409 0 0 Z " fill="#1D1B35" transform="translate(89,265)"/>
<path d="M0 0 C1.98 0 3.96 0 6 0 C6.66 1.65 7.32 3.3 8 5 C4.7 5 1.4 5 -2 5 C-1.34 3.35 -0.68 1.7 0 0 Z " fill="#EBEDF3" transform="translate(225,265)"/>
<path d="M0 0 C0.33 0 0.66 0 1 0 C1 5.28 1 10.56 1 16 C0.01 16 -0.98 16 -2 16 C-2.66 16.66 -3.32 17.32 -4 18 C-4.99 17.67 -5.98 17.34 -7 17 C-6.34 16.443125 -5.68 15.88625 -5 15.3125 C-2.74507789 13.15937692 -2.74507789 13.15937692 -2.75 10.25 C-2.8325 9.5075 -2.915 8.765 -3 8 C-2.34 8 -1.68 8 -1 8 C-0.67 5.36 -0.34 2.72 0 0 Z " fill="#F2F3F9" transform="translate(113,265)"/>
<path d="M0 0 C2.5625 0.1875 2.5625 0.1875 4.5625 2.1875 C4.5625 3.1775 4.5625 4.1675 4.5625 5.1875 C1.5925 5.1875 -1.3775 5.1875 -4.4375 5.1875 C-3.20220588 0.24632353 -3.20220588 0.24632353 0 0 Z " fill="#F1F0FA" transform="translate(351.4375,264.8125)"/>
<path d="M0 0 C2.5625 0.1875 2.5625 0.1875 4.5625 2.1875 C4.5625 3.1775 4.5625 4.1675 4.5625 5.1875 C1.5925 5.1875 -1.3775 5.1875 -4.4375 5.1875 C-3.20220588 0.24632353 -3.20220588 0.24632353 0 0 Z " fill="#F8FAFE" transform="translate(76.4375,264.8125)"/>
<path d="M0 0 C2.31 0 4.62 0 7 0 C7.0825 0.61875 7.165 1.2375 7.25 1.875 C7.81258459 4.18437567 7.81258459 4.18437567 10.0625 5.25 C10.701875 5.4975 11.34125 5.745 12 6 C4.65306122 6.48979592 4.65306122 6.48979592 1.5 4.125 C0 2 0 2 0 0 Z " fill="#EDEDF4" transform="translate(223,273)"/>
<path d="M0 0 C0.99 0 1.98 0 3 0 C2.34 3.63 1.68 7.26 1 11 C-0.65 11.33 -2.3 11.66 -4 12 C-3.52309796 10.37433394 -3.04340334 8.74948689 -2.5625 7.125 C-2.29566406 6.22007812 -2.02882813 5.31515625 -1.75390625 4.3828125 C-1 2 -1 2 0 0 Z " fill="#EDEEF6" transform="translate(67,264)"/>
<path d="M0 0 C2.475 0.495 2.475 0.495 5 1 C5.1953125 7.0546875 5.1953125 7.0546875 5 9 C4.34 9.66 3.68 10.32 3 11 C2.01 11 1.02 11 0 11 C0.29296875 9.01432292 0.5859375 7.02864583 0.87890625 5.04296875 C1.13904799 2.7974658 1.13904799 2.7974658 0 0 Z " fill="#24213C" transform="translate(335,257)"/>
<path d="M0 0 C0.66 0 1.32 0 2 0 C2.28875 1.0725 2.5775 2.145 2.875 3.25 C3.72820109 6.09400364 4.5636503 8.43508983 6 11 C3.3668037 10.63680051 2.15568678 10.14494976 0.1875 8.3125 C-1.40689803 5.20761963 -0.82845843 3.31383374 0 0 Z " fill="#1D1C32" transform="translate(383,270)"/>
<path d="M0 0 C1.65 0 3.3 0 5 0 C3.68 0.33 2.36 0.66 1 1 C1 2.98 1 4.96 1 7 C1.66 7.33 2.32 7.66 3 8 C4.24769838 10.14881388 5 11.49679597 5 14 C3.68 14 2.36 14 1 14 C-0.38226016 11.23547967 -0.09525387 8.9538637 -0.0625 5.875 C-0.05347656 4.77929688 -0.04445313 3.68359375 -0.03515625 2.5546875 C-0.02355469 1.71164062 -0.01195313 0.86859375 0 0 Z " fill="#D0D0DB" transform="translate(126,265)"/>
<path d="M0 0 C1.875 2 1.875 2 3 4 C-1 4 -5 4 -9 4 C-8.67 3.01 -8.34 2.02 -8 1 C-5.17116253 -0.41441874 -3.12623255 -0.31900332 0 0 Z " fill="#343248" transform="translate(304,262)"/>
<path d="M0 0 C0.99 0 1.98 0 3 0 C3.33 3.3 3.66 6.6 4 10 C3.34 10 2.68 10 2 10 C1.67 10.66 1.34 11.32 1 12 C-0.26237731 9.47524538 -0.09856404 7.68799534 -0.0625 4.875 C-0.05347656 3.96492188 -0.04445312 3.05484375 -0.03515625 2.1171875 C-0.02355469 1.41851562 -0.01195312 0.71984375 0 0 Z " fill="#221F37" transform="translate(158,267)"/>
<path d="M0 0 C0.33 0 0.66 0 1 0 C1 6.27 1 12.54 1 19 C-0.65 17.35 -2.3 15.7 -4 14 C-4 13.34 -4 12.68 -4 12 C-3.01 12 -2.02 12 -1 12 C-0.67 8.04 -0.34 4.08 0 0 Z " fill="#292A3F" transform="translate(217,85)"/>
<path d="M0 0 C-0.66 1.32 -1.32 2.64 -2 4 C-2.78375 3.814375 -3.5675 3.62875 -4.375 3.4375 C-6.97089775 2.74037734 -6.97089775 2.74037734 -9 4 C-9.66 3.67 -10.32 3.34 -11 3 C-10.67 2.01 -10.34 1.02 -10 0 C-9.34 0 -8.68 0 -8 0 C-5.13822943 -1.43088528 -3.06624227 -0.59991697 0 0 Z " fill="#302E44" transform="translate(37,263)"/>
<path d="M0 0 C1.670625 0.061875 1.670625 0.061875 3.375 0.125 C3.375 0.785 3.375 1.445 3.375 2.125 C2.570625 2.351875 1.76625 2.57875 0.9375 2.8125 C0.091875 3.245625 -0.75375 3.67875 -1.625 4.125 C-2.51886164 6.67275306 -2.51886164 6.67275306 -2.625 9.125 C-4.36043126 6.52185311 -5.23621812 5.13805957 -5.625 2.125 C-3.625 0.125 -3.625 0.125 0 0 Z " fill="#2F2C46" transform="translate(185.625,253.875)"/>
<path d="M0 0 C2.04379831 4.08759663 2.18594005 4.98685565 1.625 9.25 C1.51414063 10.14203125 1.40328125 11.0340625 1.2890625 11.953125 C1.19367188 12.62859375 1.09828125 13.3040625 1 14 C1.66 14 2.32 14 3 14 C2.625 15.9375 2.625 15.9375 2 18 C1.34 18.33 0.68 18.66 0 19 C0 12.73 0 6.46 0 0 Z " fill="#F3F3FA" transform="translate(200,261)"/>
<path d="M0 0 C1.32 0 2.64 0 4 0 C3.44271087 3.34373475 2.64826111 6.03312999 1 9 C0.34 9 -0.32 9 -1 9 C-0.67 6.03 -0.34 3.06 0 0 Z " fill="#323141" transform="translate(312,277)"/>
<path d="M0 0 C3.375 0.25 3.375 0.25 7 1 C8.4375 3.0625 8.4375 3.0625 9 5 C8.01 5.495 8.01 5.495 7 6 C3.9375 4.75 3.9375 4.75 1 3 C0.67 2.01 0.34 1.02 0 0 Z " fill="#2B2A3F" transform="translate(100,269)"/>
<path d="M0 0 C0.598125 0.226875 1.19625 0.45375 1.8125 0.6875 C0.8225 0.6875 -0.1675 0.6875 -1.1875 0.6875 C-1.5175 2.3375 -1.8475 3.9875 -2.1875 5.6875 C-2.8475 5.6875 -3.5075 5.6875 -4.1875 5.6875 C-4.1875 8.9875 -4.1875 12.2875 -4.1875 15.6875 C-4.5175 15.6875 -4.8475 15.6875 -5.1875 15.6875 C-5.2685206 13.58396505 -5.32669907 11.47954048 -5.375 9.375 C-5.40980469 8.20324219 -5.44460938 7.03148437 -5.48046875 5.82421875 C-5.1875 2.6875 -5.1875 2.6875 -3.8125 0.75 C-2.1875 -0.3125 -2.1875 -0.3125 0 0 Z " fill="#E8E8F1" transform="translate(371.1875,265.3125)"/>
<path d="M0 0 C2.14946337 2.61673802 3.60047036 4.60399803 4 8 C3.72949547 10.00946222 3.40632091 12.01354224 3 14 C2.67 14 2.34 14 2 14 C1.896875 13.21625 1.79375 12.4325 1.6875 11.625 C1.22404978 8.66954819 1.22404978 8.66954819 -2 7 C-1.34 4.69 -0.68 2.38 0 0 Z " fill="#E0DFE9" transform="translate(340,260)"/>
<path d="M0 0 C0.99 0 1.98 0 3 0 C2.67 5.61 2.34 11.22 2 17 C1.67 17 1.34 17 1 17 C0.93941406 16.16855469 0.87882813 15.33710937 0.81640625 14.48046875 C0.73261719 13.39378906 0.64882812 12.30710937 0.5625 11.1875 C0.48128906 10.10855469 0.40007812 9.02960938 0.31640625 7.91796875 C0.09787539 4.94010095 0.09787539 4.94010095 -1 2 C-0.67 1.34 -0.34 0.68 0 0 Z " fill="#11102F" transform="translate(215,82)"/>
<path d="M0 0 C0 0.66 0 1.32 0 2 C1.32 2 2.64 2 4 2 C4 2.99 4 3.98 4 5 C2.02 5 0.04 5 -2 5 C-2.66 3.68 -3.32 2.36 -4 1 C-2 0 -2 0 0 0 Z " fill="#363447" transform="translate(127,277)"/>
<path d="M0 0 C0.86625 0.4640625 0.86625 0.4640625 1.75 0.9375 C3.84294184 1.92583364 5.74535275 2.5168613 8 3 C7.67 3.99 7.34 4.98 7 6 C2.25 5.25 2.25 5.25 0 3 C0 2.01 0 1.02 0 0 Z " fill="#FBFCF6" transform="translate(162,268)"/>
<path d="M0 0 C1.134375 0.020625 2.26875 0.04125 3.4375 0.0625 C0.97596154 3.87788462 0.97596154 3.87788462 -1.75 4.8125 C-2.348125 4.895 -2.94625 4.9775 -3.5625 5.0625 C-4.125 3.125 -4.125 3.125 -4.5625 1.0625 C-3.5625 0.0625 -3.5625 0.0625 0 0 Z " fill="#E1E0EA" transform="translate(106.5625,264.9375)"/>
<path d="M0 0 C1.32 0.33 2.64 0.66 4 1 C3.01 1.495 3.01 1.495 2 2 C2.33 2.66 2.66 3.32 3 4 C2.67 4.33 2.34 4.66 2 5 C2.28604898 6.67542976 2.61781233 8.34385343 3 10 C1.35 8.35 -0.3 6.7 -2 5 C-1.34 3.35 -0.68 1.7 0 0 Z " fill="#1D1D40" transform="translate(209,128)"/>
<path d="M0 0 C0.33 0 0.66 0 1 0 C1 1.65 1 3.3 1 5 C-3.455 5.495 -3.455 5.495 -8 6 C-7.34 5.67 -6.68 5.34 -6 5 C-6 4.34 -6 3.68 -6 3 C-4.02 2.67 -2.04 2.34 0 2 C0 1.34 0 0.68 0 0 Z " fill="#3B394D" transform="translate(395,276)"/>
<path d="M0 0 C0.33 0 0.66 0 1 0 C1.49230769 7.38461538 1.49230769 7.38461538 -1 10.5 C-1.66 10.995 -2.32 11.49 -3 12 C-4.10844919 8.67465243 -3.84454356 6.37817425 -3 3 C-2.01 4.485 -2.01 4.485 -1 6 C-0.67 4.02 -0.34 2.04 0 0 Z " fill="#444259" transform="translate(175,268)"/>
<path d="M0 0 C2.97 0 5.94 0 9 0 C8.67 0.66 8.34 1.32 8 2 C5.93359375 2.4140625 5.93359375 2.4140625 3.4375 2.625 C2.61121094 2.69976562 1.78492188 2.77453125 0.93359375 2.8515625 C-0.02353516 2.92503906 -0.02353516 2.92503906 -1 3 C-0.67 2.01 -0.34 1.02 0 0 Z " fill="#3E3C50" transform="translate(297,279)"/>
<path d="M0 0 C0.99 0.33 1.98 0.66 3 1 C3 2.32 3 3.64 3 5 C3.99 4.67 4.98 4.34 6 4 C5.67 5.98 5.34 7.96 5 10 C4.34 10 3.68 10 3 10 C2.01 6.7 1.02 3.4 0 0 Z " fill="#ECEDF7" transform="translate(55,266)"/>
<path d="M0 0 C2.31 0 4.62 0 7 0 C7.33 1.65 7.66 3.3 8 5 C6.35 5 4.7 5 3 5 C3.66 4.67 4.32 4.34 5 4 C5 3.34 5 2.68 5 2 C3.35 1.67 1.7 1.34 0 1 C0 0.67 0 0.34 0 0 Z " fill="#D7D7E4" transform="translate(258,265)"/>
<path d="M0 0 C0.99 0 1.98 0 3 0 C2.8864371 1.64666203 2.75882619 3.29236082 2.625 4.9375 C2.52058594 6.31228516 2.52058594 6.31228516 2.4140625 7.71484375 C2.27742188 8.46894531 2.14078125 9.22304688 2 10 C1.01 10.495 1.01 10.495 0 11 C0 7.37 0 3.74 0 0 Z " fill="#21203D" transform="translate(16,255)"/>
<path d="M0 0 C2.64 0 5.28 0 8 0 C7.01 0.33 6.02 0.66 5 1 C5 3.31 5 5.62 5 8 C4.01 8 3.02 8 2 8 C1.855625 7.05125 1.71125 6.1025 1.5625 5.125 C1.17064601 2.1065506 1.17064601 2.1065506 0 0 Z " fill="#1D1B44" transform="translate(210,81)"/>
<path d="M0 0 C1.98 0 3.96 0 6 0 C5.67 1.98 5.34 3.96 5 6 C3.0625 5.25 3.0625 5.25 1 4 C0.25 1.875 0.25 1.875 0 0 Z " fill="#EBECF6" transform="translate(346,273)"/>
<path d="M0 0 C1.32 0.33 2.64 0.66 4 1 C4 3.64 4 6.28 4 9 C2 8 2 8 1.3671875 6.15234375 C1.20476562 5.42144531 1.04234375 4.69054687 0.875 3.9375 C0.70742187 3.20402344 0.53984375 2.47054688 0.3671875 1.71484375 C0.24601563 1.14894531 0.12484375 0.58304687 0 0 Z " fill="#1B1834" transform="translate(171,266)"/>
<path d="M0 0 C2.875 -0.125 2.875 -0.125 6 0 C6.66 0.66 7.32 1.32 8 2 C4.7 2.66 1.4 3.32 -2 4 C-1.34 2.68 -0.68 1.36 0 0 Z " fill="#38364D" transform="translate(259,262)"/>
<path d="M0 0 C2.93200474 2.85276137 5.64315404 5.65079784 8 9 C7.01 9 6.02 9 5 9 C4.67 8.34 4.34 7.68 4 7 C3.01 6.67 2.02 6.34 1 6 C0.67 4.02 0.34 2.04 0 0 Z " fill="#21213B" transform="translate(186,78)"/>
<path d="M0 0 C2.0625 0.4375 2.0625 0.4375 4 1 C3.67 2.32 3.34 3.64 3 5 C3.66 5.33 4.32 5.66 5 6 C3.35 6 1.7 6 0 6 C-0.38218767 4.34385343 -0.71395102 2.67542976 -1 1 C-0.67 0.67 -0.34 0.34 0 0 Z " fill="#D5D4DD" transform="translate(126,257)"/>
<path d="M0 0 C0.99 0.66 1.98 1.32 3 2 C2.67 3.65 2.34 5.3 2 7 C1.34 6.34 0.68 5.68 0 5 C-0.66 5.66 -1.32 6.32 -2 7 C-2.33 6.01 -2.66 5.02 -3 4 C-1.5625 1.8125 -1.5625 1.8125 0 0 Z " fill="#100F32" transform="translate(203,141)"/>
<path d="M0 0 C1.32 0 2.64 0 4 0 C4.66 1.98 5.32 3.96 6 6 C4.68 6 3.36 6 2 6 C1.34 4.02 0.68 2.04 0 0 Z " fill="#2F2E43" transform="translate(132,263)"/>
<path d="M0 0 C1.32 0.66 2.64 1.32 4 2 C4 2.66 4 3.32 4 4 C3.38125 4.28875 2.7625 4.5775 2.125 4.875 C-0.13325765 5.93720042 -0.13325765 5.93720042 -2 8 C-1.125 2.25 -1.125 2.25 0 0 Z " fill="#E7E7ED" transform="translate(99,259)"/>
<path d="M0 0 C0.33 0.99 0.66 1.98 1 3 C1.66 3 2.32 3 3 3 C2.34 4.65 1.68 6.3 1 8 C0.01 6.68 -0.98 5.36 -2 4 C-1.34 2.68 -0.68 1.36 0 0 Z " fill="#34334C" transform="translate(57,273)"/>
<path d="M0 0 C1.65 1.65 3.3 3.3 5 5 C3.02 5.99 3.02 5.99 1 7 C-0.5 5.625 -0.5 5.625 -2 4 C-2 3.34 -2 2.68 -2 2 C-1.34 2 -0.68 2 0 2 C0 1.34 0 0.68 0 0 Z " fill="#37374F" transform="translate(222,273)"/>
<path d="M0 0 C3.625 -0.1875 3.625 -0.1875 7 0 C6.67 0.99 6.34 1.98 6 3 C3.36 3 0.72 3 -2 3 C-1.34 2.01 -0.68 1.02 0 0 Z " fill="#424051" transform="translate(351,279)"/>
<path d="M0 0 C0.66 0 1.32 0 2 0 C2.33 0.99 2.66 1.98 3 3 C-1.62 3 -6.24 3 -11 3 C-11 2.67 -11 2.34 -11 2 C-10.28972656 1.93941406 -9.57945313 1.87882812 -8.84765625 1.81640625 C-7.46900391 1.69072266 -7.46900391 1.69072266 -6.0625 1.5625 C-5.14597656 1.48128906 -4.22945313 1.40007812 -3.28515625 1.31640625 C-1.03840268 1.23955024 -1.03840268 1.23955024 0 0 Z " fill="#161631" transform="translate(82,269)"/>
<path d="M0 0 C1.2065625 0.0309375 1.2065625 0.0309375 2.4375 0.0625 C0.625 2.5625 0.625 2.5625 -1.5625 5.0625 C-2.5525 5.0625 -3.5425 5.0625 -4.5625 5.0625 C-3.43829114 0.08386076 -3.43829114 0.08386076 0 0 Z " fill="#E7E8EF" transform="translate(76.5625,264.9375)"/>
<path d="M0 0 C0.66 0 1.32 0 2 0 C3.2890625 1.53125 3.2890625 1.53125 4.625 3.5 C5.07101563 4.1496875 5.51703125 4.799375 5.9765625 5.46875 C6.31429687 5.9740625 6.65203125 6.479375 7 7 C5.68 6.67 4.36 6.34 3 6 C3 5.34 3 4.68 3 4 C2.01 4 1.02 4 0 4 C0 2.68 0 1.36 0 0 Z " fill="#1C1C37" transform="translate(209,107)"/>
<path d="M0 0 C0 0.99 0 1.98 0 3 C-0.66 3.66 -1.32 4.32 -2 5 C-2.99 5 -3.98 5 -5 5 C-4.67 3.68 -4.34 2.36 -4 1 C-2.68 0.67 -1.36 0.34 0 0 Z " fill="#353449" transform="translate(138,285)"/>
<path d="M0 0 C2.97 0.495 2.97 0.495 6 1 C6.33 1.99 6.66 2.98 7 4 C5.02 4 3.04 4 1 4 C0.67 2.68 0.34 1.36 0 0 Z " fill="#42414E" transform="translate(99,278)"/>
<path d="M0 0 C2.125 0.375 2.125 0.375 4 1 C2 3 0 5 -2 7 C-2.125 4.625 -2.125 4.625 -2 2 C-1.34 1.34 -0.68 0.68 0 0 Z " fill="#E8EBEF" transform="translate(261,272)"/>
<path d="M0 0 C0.66 0.33 1.32 0.66 2 1 C1.67 3.31 1.34 5.62 1 8 C0.34 7.34 -0.32 6.68 -1 6 C-0.625 2.875 -0.625 2.875 0 0 Z " fill="#F7F6FC" transform="translate(310,276)"/>
<path d="M0 0 C1.32 0.33 2.64 0.66 4 1 C4 2.32 4 3.64 4 5 C3.01 4.67 2.02 4.34 1 4 C0.3125 1.9375 0.3125 1.9375 0 0 Z " fill="#222138" transform="translate(394,264)"/>
</svg>
