<?xml version="1.0" encoding="UTF-8"?>
<svg version="1.1" xmlns="http://www.w3.org/2000/svg" width="866" height="650">
<path d="M0 0 C285.78 0 571.56 0 866 0 C866 214.5 866 429 866 650 C580.22 650 294.44 650 0 650 C0 435.5 0 221 0 0 Z " fill="#FEFEFE" transform="translate(0,0)"/>
<path d="M0 0 C7.27849378 5.47046029 11.88245181 12.98481382 16.54248047 20.65625 C18.30504469 23.49052412 20.13829827 26.27417259 21.97265625 29.0625 C23.37799447 31.22891353 24.78294059 33.39558146 26.1875 35.5625 C26.88439941 36.60994385 27.58129883 37.6573877 28.29931641 38.73657227 C29.25523682 40.23015259 29.25523682 40.23015259 30.23046875 41.75390625 C30.81207764 42.64408447 31.39368652 43.5342627 31.99291992 44.45141602 C33 47 33 47 32.27661133 49.65136719 C30.78084422 52.40318964 29.19598747 55.05368895 27.5 57.6875 C26.8915625 58.64011719 26.283125 59.59273438 25.65625 60.57421875 C24 63 24 63 22 65 C23.19823491 77.23025972 34.16902716 88.77754348 42.95703125 96.6484375 C50.45025581 102.56052294 58.45971294 106.80835824 67.83203125 108.82421875 C74.28885283 111.25376063 77.16146301 118.26728991 80.4375 123.9375 C81.16144924 125.14375794 81.88734577 126.34884945 82.61523438 127.55273438 C88.63220267 137.62625414 88.63220267 137.62625414 89 141 C87.82466079 143.3174426 86.64352641 145.30814959 85.1875 147.4375 C84.77951172 148.04932129 84.37152344 148.66114258 83.95117188 149.29150391 C73.97017734 164.0693006 62.96578261 179.05551253 44.67578125 183.57421875 C37.08438837 184.02077127 28.81444436 179.59035081 23 175 C23 174.34 23 173.68 23 173 C22.01 172.67 21.02 172.34 20 172 C13.37327095 164.4960021 8.41620306 155.90357423 3.6875 147.125 C3.04166194 145.94376726 2.39491633 144.76303033 1.74731445 143.58276367 C-1.28747487 138.04150867 -4.28184997 132.47843737 -7.28125 126.91796875 C-11.86444067 118.42969031 -16.46356125 109.95487868 -21.4375 101.6875 C-21.82655518 101.0169458 -22.21561035 100.3463916 -22.61645508 99.65551758 C-24.24488366 97.01561207 -25.44613217 95.24844661 -28.31640625 93.9609375 C-31.89985945 94.01309839 -35.0934932 94.9291347 -38.5 95.9375 C-50.27441882 99.10608502 -60.7302496 99.23007095 -72 94 C-78.67387349 90.03453065 -87.09137411 83.36851891 -90 76 C-88.6242789 70.89953741 -85.21272998 66.87240426 -82.125 62.6875 C-81.25814575 61.49979004 -81.25814575 61.49979004 -80.3737793 60.28808594 C-76.07291134 54.41138559 -71.70570058 48.58488674 -67.31982422 42.77148438 C-64.06797505 38.45294239 -60.88306511 34.09291882 -57.75 29.6875 C-57.34201172 29.11402832 -56.93402344 28.54055664 -56.51367188 27.94970703 C-54.62317677 25.28937903 -52.73551972 22.62703961 -50.84765625 19.96484375 C-38.04896285 2.10563051 -22.29280586 -12.5028435 0 0 Z " fill="#B41118" transform="translate(449,170)"/>
<path d="M0 0 C9.21485876 -0.09303144 18.42955372 -0.16393197 27.64478111 -0.20724869 C31.92465277 -0.22804759 36.20420109 -0.2562227 40.48388672 -0.30175781 C44.62066411 -0.34549267 48.75713218 -0.36919487 52.89412308 -0.37950897 C54.46566252 -0.38685112 56.03718667 -0.40118766 57.60859299 -0.42292023 C69.69903639 -0.58335101 79.56505224 0.64001913 88.66796875 9.3125 C93.250008 14.59297404 96.8063343 20.53415084 100.44091797 26.48779297 C102.13719312 29.22106439 103.89381269 31.90918083 105.66015625 34.59765625 C106.87818257 36.48139696 108.0956394 38.36550604 109.3125 40.25 C110.20340332 41.58937622 110.20340332 41.58937622 111.11230469 42.95581055 C111.91716309 44.2229187 111.91716309 44.2229187 112.73828125 45.515625 C113.46591675 46.63372559 113.46591675 46.63372559 114.20825195 47.77441406 C115 50 115 50 114.29248047 52.56933594 C113.17060924 54.67914892 112.05318761 56.50069708 110.58203125 58.375 C110.13279297 58.96796875 109.68355469 59.5609375 109.22070312 60.171875 C108.27752001 61.39631244 107.32689725 62.61505301 106.36914062 63.828125 C103.69237753 67.36157419 103.69237753 67.36157419 102.99609375 71.625 C105.79997873 78.25831544 110.66496463 84.2265473 116 89 C116.721875 89.66 117.44375 90.32 118.1875 91 C124.35458936 95.38548577 129.89172354 97.99098821 137.41796875 98.90380859 C146.81408012 100.07832251 146.81408012 100.07832251 150.19140625 102.703125 C152.04755132 105.3640648 153.48305424 108.12922092 155 111 C157.21943484 114.51296163 159.52262804 117.97018306 161.8125 121.4375 C162.94605231 123.184875 164.07767983 124.93350072 165.20703125 126.68359375 C166.78881874 129.13423209 168.38196023 131.57294034 170 134 C169.66403044 137.65436042 168.50253285 140.21906902 166.55859375 143.29296875 C166.06133789 144.08356689 165.56408203 144.87416504 165.05175781 145.6887207 C164.51905273 146.51331787 163.98634766 147.33791504 163.4375 148.1875 C162.89319336 149.03594482 162.34888672 149.88438965 161.78808594 150.75854492 C147.8963251 172.17740562 147.8963251 172.17740562 136 176 C126.75797847 177.00341948 118.67591927 176.6729437 111 171 C98.37952809 160.69798539 90.40572495 145.98745824 82.55126953 131.99536133 C77.81832206 123.58351893 72.7037307 115.4502005 67.49121094 107.32958984 C65.01536675 103.46179265 62.57259216 99.5732094 60.125 95.6875 C51.16885551 81.50165163 42.18610305 67.33311086 33.04492188 53.265625 C29.62854418 47.9980823 26.27767314 42.69111009 22.9375 37.375 C19.26338163 31.53059121 15.53371866 25.73270791 11.6875 20 C8.72279636 15.5797571 5.76701966 11.15593118 2.875 6.6875 C2.31554687 5.82511719 1.75609375 4.96273437 1.1796875 4.07421875 C0 2 0 2 0 0 Z " fill="#214099" transform="translate(249,174)"/>
<path d="M0 0 C11.88 0 23.76 0 36 0 C37.63617751 5.58255535 39.27205804 11.16519612 40.90722656 16.74804688 C41.46174727 18.64099939 42.01643031 20.53390436 42.57128906 22.42675781 C45.75091184 33.27420735 48.91643344 44.1247984 52 55 C52.24645264 53.99324219 52.49290527 52.98648438 52.74682617 51.94921875 C53.68298676 48.13089963 54.62587034 44.31426474 55.57055664 40.49804688 C55.97466987 38.86176412 56.37707815 37.22505913 56.77758789 35.58789062 C58.87805509 27.00681009 61.05716773 18.45823315 63.61328125 10 C63.90527657 9.00311157 63.90527657 9.00311157 64.20317078 7.98608398 C66.11156163 1.85510504 66.11156163 1.85510504 69 0 C73.09285432 -0.67236957 77.2330856 -0.50932864 81.375 -0.5 C82.51195312 -0.52835937 83.64890625 -0.55671875 84.8203125 -0.5859375 C92.98210439 -0.60509664 92.98210439 -0.60509664 97.1015625 1.84375 C99.82517948 6.37190333 100.81618116 10.87967122 102 16 C102.54265296 18.11639195 103.10018843 20.22855092 103.65866089 22.34082031 C104.47438154 25.4304949 105.27254498 28.52461611 106.0715332 31.61865234 C106.48598724 33.2209451 106.90203169 34.82282723 107.31958008 36.42431641 C107.92878818 38.76115434 108.53328705 41.09916471 109.13671875 43.4375 C109.3241716 44.15309082 109.51162445 44.86868164 109.70475769 45.60595703 C110.44467758 48.4917779 111 51.00673836 111 54 C111.66 54 112.32 54 113 54 C113.11553223 53.02925537 113.23106445 52.05851074 113.35009766 51.05834961 C113.98792922 46.61559724 115.16807522 42.37656622 116.3984375 38.06640625 C116.63406403 37.22963852 116.86969055 36.39287079 117.11245728 35.53074646 C117.60957318 33.76947336 118.10891014 32.00882579 118.61035156 30.2487793 C119.37123868 27.57571387 120.12363468 24.90036487 120.875 22.22460938 C121.36147352 20.5050652 121.84843667 18.78565946 122.3359375 17.06640625 C122.66892349 15.88166466 122.66892349 15.88166466 123.00863647 14.67298889 C123.22541046 13.91537766 123.44218445 13.15776642 123.66552734 12.37719727 C123.85126312 11.72324478 124.0369989 11.0692923 124.22836304 10.39552307 C125.35855856 6.88686603 126.70569136 3.45148972 128 0 C139.88 0 151.76 0 164 0 C159.79889013 15.17543768 155.45281849 30.27782049 150.81884766 45.32568359 C149.80777282 48.62780456 148.81898454 51.93626333 147.83349609 55.24609375 C145.23716205 63.96376394 142.59080433 72.66626554 139.91326904 81.35931396 C139.32591449 83.26888758 138.74225932 85.17959782 138.15869141 87.09033203 C132.9126295 104.06778139 132.9126295 104.06778139 129 107 C124.4053005 107.65564991 119.76111541 107.46302416 115.125 107.4375 C113.84496094 107.45748047 112.56492187 107.47746094 111.24609375 107.49804688 C110.01246094 107.49740234 108.77882813 107.49675781 107.5078125 107.49609375 C106.38004395 107.49794678 105.25227539 107.4997998 104.09033203 107.50170898 C100.2804995 106.88319059 98.68298042 105.74324556 96 103 C94.82128906 100.75463867 94.82128906 100.75463867 94.015625 98.23046875 C93.69529297 97.26157715 93.37496094 96.29268555 93.04492188 95.29443359 C92.70009766 94.20727051 92.35527344 93.12010742 92 92 C91.36510426 90.11543271 90.7300955 88.23090145 90.09191895 86.34744263 C88.96390602 83.00712489 87.85853197 79.6593214 86.75 76.3125 C86.28660016 74.91727059 85.82305938 73.52208799 85.359375 72.12695312 C84.23796229 68.75183866 83.11844294 65.37609992 82 62 C79.51668594 67.7687567 77.43439868 73.61300549 75.59765625 79.6171875 C75.39103363 80.28679504 75.18441101 80.95640259 74.9715271 81.64630127 C74.11429369 84.42893466 73.25960838 87.21193685 72.42993164 90.00292969 C71.81382524 92.0669457 71.17637093 94.12335506 70.53515625 96.1796875 C70.167854 97.39382324 69.80055176 98.60795898 69.42211914 99.85888672 C67.77021359 103.50754196 66.44466784 104.97973555 63 107 C60.01733398 107.48583984 60.01733398 107.48583984 56.74609375 107.4609375 C55.56208984 107.45707031 54.37808594 107.45320313 53.15820312 107.44921875 C51.31645508 107.41248047 51.31645508 107.41248047 49.4375 107.375 C48.20580078 107.37371094 46.97410156 107.37242187 45.70507812 107.37109375 C35.59570593 107.27192825 35.59570593 107.27192825 32 105 C28.43924304 99.4344667 26.85222162 92.57107961 25.14453125 86.25 C24.62707956 84.38897051 24.10832497 82.52830288 23.58837891 80.66796875 C23.32623596 79.72614746 23.06409302 78.78432617 22.79400635 77.81396484 C21.54322144 73.38117314 20.21956278 68.97119999 18.88671875 64.5625 C18.62699783 63.70269531 18.36727692 62.84289062 18.09968567 61.95703125 C17.29701788 59.30426302 16.4922794 56.65212829 15.6875 54 C15.12143013 52.12892758 14.55543173 50.25783354 13.98950195 48.38671875 C11.41104753 39.87253503 8.81483355 31.36453581 6.15625 22.875 C5.94200882 22.19002441 5.72776764 21.50504883 5.5070343 20.79931641 C4.52450548 17.66096367 3.53632157 14.52456457 2.53979492 11.390625 C2.20052979 10.31296875 1.86126465 9.2353125 1.51171875 8.125 C1.21740967 7.19945312 0.92310059 6.27390625 0.61987305 5.3203125 C0 3 0 3 0 0 Z " fill="#224099" transform="translate(99,378)"/>
<path d="M0 0 C1.15179749 -0.00960754 2.30359497 -0.01921509 3.49029541 -0.02911377 C5.345065 -0.03548859 5.345065 -0.03548859 7.23730469 -0.04199219 C8.51845154 -0.04769226 9.79959839 -0.05339233 11.11956787 -0.05926514 C13.82955316 -0.06974608 16.53950904 -0.07560738 19.24951172 -0.07910156 C22.70022283 -0.08457325 26.15053681 -0.10858466 29.60112381 -0.13707352 C32.91734213 -0.16032608 36.23350918 -0.16215786 39.54980469 -0.16699219 C41.39242889 -0.18551239 41.39242889 -0.18551239 43.27227783 -0.20440674 C53.50659116 -0.17802919 62.12086521 1.35961499 69.75292969 8.69238281 C75.91824371 15.34125088 78.24884216 23.2316265 78.3203125 32.2199707 C78.32992004 33.2019191 78.33952759 34.18386749 78.34942627 35.1955719 C78.35367615 36.24768356 78.35792603 37.29979523 78.36230469 38.38378906 C78.36800476 39.48025253 78.37370483 40.576716 78.37957764 41.70640564 C78.38901491 44.02716105 78.39555656 46.34792978 78.39941406 48.66870117 C78.40907797 52.18660499 78.44009702 55.7039139 78.47167969 59.22167969 C78.47821464 61.48404604 78.48346317 63.74641654 78.48730469 66.00878906 C78.49965149 67.04673111 78.51199829 68.08467316 78.52471924 69.15406799 C78.4921291 80.05705605 76.74071467 90.86564162 69.15917969 99.16113281 C61.78778821 105.05824599 53.85794777 107.25507386 44.49609375 107.32226562 C43.40766174 107.33187317 42.31922974 107.34148071 41.19781494 107.35137939 C40.03522156 107.35562927 38.87262817 107.35987915 37.67480469 107.36425781 C36.46403259 107.36995789 35.2532605 107.37565796 34.00579834 107.38153076 C31.44723377 107.39096163 28.88865716 107.39750712 26.33007812 107.40136719 C22.43695643 107.41106363 18.54436493 107.44210259 14.65136719 107.47363281 C12.1591828 107.48016451 9.66699467 107.48541433 7.17480469 107.48925781 C6.02030823 107.50160461 4.86581177 107.51395142 3.67633057 107.52667236 C-6.86427093 107.49794192 -16.12978583 105.8206459 -23.84082031 98.16113281 C-31.30868661 88.47000861 -31.99465509 78.79092491 -32.04394531 66.96191406 C-32.04964539 65.89047653 -32.05534546 64.819039 -32.06121826 63.71513367 C-32.07063581 61.4534096 -32.07718929 59.19167201 -32.08105469 56.92993164 C-32.09073962 53.50219263 -32.12178631 50.075059 -32.15332031 46.64746094 C-32.15985366 44.43978217 -32.16510282 42.23209915 -32.16894531 40.02441406 C-32.18129211 39.0146199 -32.19363892 38.00482574 -32.20635986 36.96443176 C-32.17306651 26.11990473 -30.50819077 16.21870024 -22.84082031 8.16113281 C-16.35860017 2.01133421 -8.70723467 0.05887139 0 0 Z " fill="#224099" transform="translate(565.8408203125,377.8388671875)"/>
<path d="M0 0 C2.15373354 0.00847641 4.3047828 -0.02019186 6.45825195 -0.05200195 C7.83780846 -0.05361514 9.21736961 -0.05303418 10.59692383 -0.05004883 C12.46924683 -0.05282837 12.46924683 -0.05282837 14.37939453 -0.05566406 C25.10028425 1.4902926 32.66606243 13.69112968 38.81176758 21.79760742 C42.14164719 26.10611578 45.61035398 30.30241113 49.06494141 34.51123047 C49.59627686 35.1613208 50.1276123 35.81141113 50.67504883 36.48120117 C51.37803101 37.33790405 51.37803101 37.33790405 52.09521484 38.21191406 C54.74810601 41.57292847 57.28953188 45.02056399 59.85864258 48.44604492 C60.18864258 32.60604492 60.51864258 16.76604492 60.85864258 0.44604492 C72.73864258 0.44604492 84.61864258 0.44604492 96.85864258 0.44604492 C96.92636865 13.80648806 96.98143007 27.16681753 97.01407909 40.52739334 C97.02974747 46.73097349 97.05100738 52.9344303 97.08496094 59.13793945 C97.11751221 65.12256842 97.13548676 71.1070786 97.14327431 77.09178925 C97.1488254 79.3771934 97.15966506 81.66259093 97.17583275 83.94794464 C97.19755044 87.1443954 97.20061183 90.34035279 97.19921875 93.53686523 C97.21000458 94.4856102 97.22079041 95.43435516 97.23190308 96.41184998 C97.20179898 102.77837067 97.20179898 102.77837067 95.52955627 106.0320282 C92.86364888 108.28806192 90.46079974 107.98232574 87.03051758 108.01245117 C86.36328674 108.01864975 85.69605591 108.02484833 85.00860596 108.03123474 C83.59649105 108.03833344 82.18429246 108.03515773 80.7722168 108.02246094 C78.62884768 108.00867488 76.48991838 108.0425516 74.34692383 108.08081055 C62.91911689 108.14730867 62.91911689 108.14730867 58.60083008 105.18041992 C56.30503527 102.89116584 54.17524785 100.7238856 52.23364258 98.13354492 C48.69695114 93.53241237 45.0890934 89.00515158 41.42114258 84.50854492 C40.29871367 83.12836349 39.17631744 81.74815547 38.05395508 80.36791992 C34.63127305 76.16448314 31.199306 71.9687345 27.76098633 67.77807617 C25.77773977 65.34686838 23.81863643 62.89603723 21.85864258 60.44604492 C21.52864258 75.95604492 21.19864258 91.46604492 20.85864258 107.44604492 C8.64864258 107.44604492 -3.56135742 107.44604492 -16.14135742 107.44604492 C-16.20905587 93.93794722 -16.26412888 80.42996165 -16.29679394 66.9217329 C-16.3124692 60.64974365 -16.33374157 54.37787618 -16.36767578 48.10595703 C-16.40020264 42.05649425 -16.41819641 36.00714882 -16.42598915 29.95760536 C-16.43154466 27.64625513 -16.44239277 25.33491152 -16.45854759 23.02361107 C-16.4802329 19.79343005 -16.48332805 16.56373785 -16.48193359 13.33349609 C-16.49271942 12.37180511 -16.50350525 11.41011414 -16.51461792 10.41928101 C-16.51049393 9.54008499 -16.50636993 8.66088898 -16.50212097 7.75505066 C-16.50488635 6.99088428 -16.50765173 6.22671789 -16.51050091 5.43939495 C-15.11682731 -2.08634887 -5.84771259 -0.03517521 0 0 Z " fill="#234199" transform="translate(671.141357421875,377.553955078125)"/>
<path d="M0 0 C1.14226295 -0.00021904 1.14226295 -0.00021904 2.30760193 -0.0004425 C4.81276342 0.00025152 7.31784962 0.00801999 9.82299805 0.01586914 C11.56463073 0.01773513 13.30626394 0.01915818 15.04789734 0.02015686 C19.62307189 0.02396777 24.1982145 0.03378586 28.77337646 0.04486084 C33.44551156 0.05510564 38.11765183 0.05966105 42.78979492 0.06469727 C51.95061622 0.07540943 61.11141385 0.09246871 70.2722168 0.11352539 C69.80596893 0.84309952 69.33972107 1.57267365 68.85934448 2.32435608 C68.24004059 3.29513596 67.62073669 4.26591583 66.98266602 5.26611328 C66.37204315 6.22256241 65.76142029 7.17901154 65.1322937 8.16444397 C62.13849726 12.91099474 59.26995847 17.73060247 56.3972168 22.55102539 C55.08256124 24.74660657 53.76743861 26.94190813 52.4519043 29.13696289 C51.76405794 30.28506239 51.07623268 31.43317452 50.38842773 32.58129883 C50.04146851 33.16036987 49.69450928 33.73944092 49.33703613 34.33605957 C48.62176286 35.53004033 47.90667773 36.72413382 47.19177246 37.91833496 C11.00474231 98.35428065 11.00474231 98.35428065 -11.7277832 104.11352539 C-25.44078136 105.99777865 -36.99226092 103.2577854 -48.4777832 95.42602539 C-56.78794953 88.9759835 -65.75259811 80.02864222 -69.7277832 70.11352539 C-68.69658439 65.77683998 -65.99304648 62.0703527 -63.6652832 58.30102539 C-60.3610906 52.88241869 -57.1829617 47.41236171 -54.1027832 41.86352539 C-44.00897311 23.79805981 -33.15287879 8.34136332 -12.7277832 1.11352539 C-8.4825392 0.04301932 -4.35068 -0.02198806 0 0 Z " fill="#214099" transform="translate(547.727783203125,168.886474609375)"/>
<path d="M0 0 C1.07008804 -0.00619858 2.14017609 -0.01239716 3.24269104 -0.01878357 C5.50463959 -0.02588414 7.76664038 -0.02270366 10.02856445 -0.01000977 C13.48812193 0.00384305 16.94496841 -0.03019868 20.40429688 -0.06835938 C22.60286525 -0.06931069 24.801437 -0.06745109 27 -0.0625 C28.03346054 -0.07575821 29.06692108 -0.08901642 30.13169861 -0.10267639 C37.28833536 -0.00999034 37.28833536 -0.00999034 41.15869141 2.85717773 C42.78530519 5.16720245 43.88310417 6.86010941 44.65625 9.54296875 C44.88376953 10.29835938 45.11128906 11.05375 45.34570312 11.83203125 C45.67151367 12.99992187 45.67151367 12.99992187 46.00390625 14.19140625 C46.44955087 15.70471306 46.89622738 17.21771625 47.34375 18.73046875 C47.59898437 19.60783691 47.85421875 20.48520508 48.1171875 21.38916016 C49.30319558 25.35899277 50.5571802 29.30554213 51.8125 33.25390625 C55.36757991 44.45412933 58.78081359 55.69650851 62.19140625 66.94140625 C63.10615982 69.95422735 64.02120891 72.96695813 64.93670654 75.97955322 C65.52141836 77.90514945 66.10514247 79.83104592 66.68780518 81.75726318 C67.89557067 85.74528838 69.10948992 89.72958568 70.38574219 93.69628906 C70.7521582 94.84194336 71.11857422 95.98759766 71.49609375 97.16796875 C71.80530762 98.11236816 72.11452148 99.05676758 72.43310547 100.02978516 C73.06640625 102.56640625 73.06640625 102.56640625 73.06640625 107.56640625 C61.18640625 107.56640625 49.30640625 107.56640625 37.06640625 107.56640625 C36.07640625 104.14265625 35.08640625 100.71890625 34.06640625 97.19140625 C33.75316406 96.1132666 33.43992187 95.03512695 33.1171875 93.92431641 C32.87355469 93.07659668 32.62992187 92.22887695 32.37890625 91.35546875 C32.12753906 90.48615723 31.87617188 89.6168457 31.6171875 88.72119141 C31.06640625 86.56640625 31.06640625 86.56640625 31.06640625 84.56640625 C19.84640625 84.56640625 8.62640625 84.56640625 -2.93359375 84.56640625 C-5.01833686 92.21046433 -7.01192509 99.87973159 -8.93359375 107.56640625 C-21.14359375 107.56640625 -33.35359375 107.56640625 -45.93359375 107.56640625 C-41.4079403 89.46379244 -41.4079403 89.46379244 -38.55859375 81.37890625 C-36.12543498 74.28290195 -33.89236325 67.16557317 -31.87109375 59.94140625 C-29.8208571 52.61990328 -27.66193764 45.35082687 -25.32836914 38.11450195 C-23.79292974 33.34017515 -22.33052969 28.55056513 -20.91796875 23.73828125 C-20.56847168 22.56160889 -20.21897461 21.38493652 -19.85888672 20.17260742 C-19.1705826 17.85026101 -18.49214886 15.52496117 -17.82470703 13.1965332 C-17.50743652 12.13394287 -17.19016602 11.07135254 -16.86328125 9.9765625 C-16.44925049 8.55549194 -16.44925049 8.55549194 -16.02685547 7.10571289 C-12.69942196 -0.62287933 -7.58478984 -0.03633039 0 0 Z " fill="#224099" transform="translate(287.93359375,377.43359375)"/>
<path d="M0 0 C32.67 0 65.34 0 99 0 C99 9.9 99 19.8 99 30 C88.77 30 78.54 30 68 30 C68 55.41 68 80.82 68 107 C55.79 107 43.58 107 31 107 C31 81.59 31 56.18 31 30 C20.77 30 10.54 30 0 30 C0 20.1 0 10.2 0 0 Z " fill="#244299" transform="translate(424,378)"/>
<path d="M0 0 C11.88 0 23.76 0 36 0 C36 25.41 36 50.82 36 77 C47.88 77 59.76 77 72 77 C72 86.9 72 96.8 72 107 C54.90027762 107.12032643 54.90027762 107.12032643 47.61914062 107.14648438 C42.64809582 107.16442768 37.67721657 107.18566919 32.70629883 107.22631836 C28.69924415 107.2588811 24.69236696 107.27684645 20.6851902 107.28463173 C19.15533465 107.29018082 17.62548897 107.30101676 16.09570885 107.31719017 C13.95511145 107.33892415 11.81525027 107.34196872 9.67456055 107.34057617 C8.45544479 107.34723801 7.23632904 107.35389984 5.98027039 107.36076355 C3 107 3 107 1.33628082 105.74676514 C-0.33595477 103.56084524 -0.37065126 102.42329778 -0.36076355 99.69099426 C-0.36488754 98.81179825 -0.36901154 97.93260223 -0.3732605 97.02676392 C-0.36247467 96.06507294 -0.35168884 95.10338196 -0.34057617 94.11254883 C-0.34101425 93.09773941 -0.34145233 92.08292999 -0.34190369 91.03736877 C-0.33981067 87.67706177 -0.316455 84.31725129 -0.29296875 80.95703125 C-0.28737463 78.62961601 -0.28310367 76.30219725 -0.28010559 73.97477722 C-0.26864237 67.84427159 -0.23916229 61.71397864 -0.20599365 55.58355713 C-0.17532469 49.32982256 -0.16160704 43.07605369 -0.14648438 36.82226562 C-0.11429413 24.54806853 -0.06151396 12.27408521 0 0 Z " fill="#234098" transform="translate(372,378)"/>
<path d="M0 0 C1.11568359 -0.02449219 2.23136719 -0.04898437 3.38085938 -0.07421875 C10.01094302 -0.09779937 14.40004678 0.21796781 19.6875 4.375 C22.86639468 9.29603121 22.09603733 15.09906098 22.125 20.75 C22.15787109 21.8740625 22.19074219 22.998125 22.22460938 24.15625 C22.28476783 33.40971388 22.28476783 33.40971388 19.41015625 37.0390625 C13.40116526 42.19455262 8.04966727 41.80479149 0.375 41.875 C-0.74068359 41.91625 -1.85636719 41.9575 -3.00585938 42 C-8.42441981 42.05139121 -12.27612474 42.05041533 -16.54296875 38.46875 C-21.5506108 33.40794172 -20.5678551 27.91381446 -20.625 21.125 C-20.65400391 19.99191406 -20.68300781 18.85882813 -20.71289062 17.69140625 C-20.79395954 7.05267055 -20.79395954 7.05267055 -16.3125 2.375 C-11.34035654 -0.75108419 -5.67896837 0.00649396 0 0 Z " fill="#FBFDFD" transform="translate(588.3125,410.625)"/>
<path d="M0 0 C1.1577506 3.47325181 1.06866652 6.36067448 1 10 C0.01 10.495 0.01 10.495 -1 11 C0.32 11.33 1.64 11.66 3 12 C2.47148437 12.73605469 1.94296875 13.47210938 1.3984375 14.23046875 C0.39683594 15.69419922 0.39683594 15.69419922 -0.625 17.1875 C-1.63433594 18.63189453 -1.63433594 18.63189453 -2.6640625 20.10546875 C-4.30374138 22.88097128 -4.30374138 22.88097128 -3.40625 25.56640625 C4.93017467 39.99305227 16.03556296 52.71983238 32.58984375 57.546875 C37.67804434 58.5034897 42.83543641 58.76851261 48 59 C48 59.33 48 59.66 48 60 C44.7 60 41.4 60 38 60 C38 60.66 38 61.32 38 62 C35.03 61.505 35.03 61.505 32 61 C35.63 62.98 39.26 64.96 43 67 C42.01 67.495 42.01 67.495 41 68 C41 68.66 41 69.32 41 70 C41.99 70.495 41.99 70.495 43 71 C42.34 71.66 41.68 72.32 41 73 C40.5875 72.0925 40.175 71.185 39.75 70.25 C36.95352587 66.01562251 32.80891483 65.36506733 28.15234375 63.9765625 C9.68115228 58.25438423 -2.96874856 43.29684238 -11.91796875 26.8125 C-13 24 -13 24 -12.88671875 21.93359375 C-11.72958506 19.41032866 -10.26218466 17.30413048 -8.625 15.0625 C-3.82069619 9.09121334 -3.82069619 9.09121334 -2 2 C-1.34 2 -0.68 2 0 2 C0 1.34 0 0.68 0 0 Z " fill="#F5F3F6" transform="translate(483,214)"/>
<path d="M0 0 C1.093125 0.350625 2.18625 0.70125 3.3125 1.0625 C6.90920373 2.33039454 6.90920373 2.33039454 10 1 C8.20415065 6.69415647 4.35977128 10.92025545 0.63671875 15.47265625 C-0.7590401 17.27657434 -1.99431314 18.95235655 -3 21 C-1.74070372 28.19450414 5.96672022 34.63114347 11.71875 38.6796875 C23.90514528 45.73277244 36.69268294 44.98681265 50 42 C49.3828125 43.9453125 49.3828125 43.9453125 48 46 C39.97290739 48.02422335 31.40554454 46.95825857 23.33154297 45.67529297 C18.94454361 44.99380658 16.14339649 45.15220626 12.07421875 46.76171875 C7.95272742 47.23518574 5.01941979 43.96977014 1.8984375 41.59765625 C-3.60566751 36.66473194 -9.50895416 30.03685267 -12 23 C-11.93753221 17.80624987 -8.49325891 14.2814883 -5.4375 10.375 C-4.4088865 9.05449989 -3.38643973 7.72916618 -2.37109375 6.3984375 C-1.91661865 5.81755371 -1.46214355 5.23666992 -0.99389648 4.63818359 C0.25935273 2.89187509 0.25935273 2.89187509 0 0 Z " fill="#F3F7FA" transform="translate(363,223)"/>
<path d="M0 0 C0.66 0 1.32 0 2 0 C3.28648754 4.78593134 4.56810391 9.57313026 5.84521484 14.36157227 C6.28039909 15.99051136 6.71691456 17.61909541 7.15478516 19.24731445 C7.78377626 21.58713285 8.40797593 23.92818441 9.03125 26.26953125 C9.22811401 26.99775589 9.42497803 27.72598053 9.62780762 28.47627258 C10.4037779 31.40674004 11 33.95379453 11 37 C4.4 37 -2.2 37 -9 37 C-7.70755993 28.35762297 -5.81077177 20.13658005 -3.375 11.75 C-2.88773437 10.04263672 -2.88773437 10.04263672 -2.390625 8.30078125 C-1.59957964 5.53212251 -0.8026466 2.76531321 0 0 Z " fill="#F2F7FA" transform="translate(301,402)"/>
<path d="M0 0 C32.67 0 65.34 0 99 0 C99 9.57 99 19.14 99 29 C98.67 29 98.34 29 98 29 C96.51635543 20.0981326 96.42925919 11.01444291 96 2 C64.65 1.67 33.3 1.34 1 1 C1 10.24 1 19.48 1 29 C0.67 29 0.34 29 0 29 C0 19.43 0 9.86 0 0 Z " fill="#33468D" transform="translate(424,378)"/>
<path d="M0 0 C1.6687896 0.00999275 1.6687896 0.00999275 3.37129211 0.02018738 C4.63237289 0.02041397 5.89345367 0.02064056 7.19274902 0.02087402 C8.56908014 0.03619392 9.94540764 0.05184191 11.32173157 0.0677948 C12.72991484 0.07339095 14.13810396 0.07766096 15.54629517 0.08065796 C19.25033225 0.09210537 22.95401572 0.1215712 26.65791321 0.1547699 C30.43838212 0.18547329 34.21890825 0.19916384 37.99946594 0.21427917 C45.41564268 0.24644139 52.83152818 0.297636 60.24751282 0.36076355 C60.24751282 1.02076355 60.24751282 1.68076355 60.24751282 2.36076355 C63.21751282 2.36076355 66.18751282 2.36076355 69.24751282 2.36076355 C68.91751282 3.68076355 68.58751282 5.00076355 68.24751282 6.36076355 C67.25751282 5.86576355 67.25751282 5.86576355 66.24751282 5.36076355 C66.57751282 5.03076355 66.90751282 4.70076355 67.24751282 4.36076355 C43.15751282 4.03076355 19.06751282 3.70076355 -5.75248718 3.36076355 C-2.75248718 0.36076355 -2.75248718 0.36076355 0 0 Z " fill="#D4DEF4" transform="translate(549.7524871826172,165.6392364501953)"/>
<path d="M0 0 C1.07008804 -0.00619858 2.14017609 -0.01239716 3.24269104 -0.01878357 C5.50463959 -0.02588414 7.76664038 -0.02270366 10.02856445 -0.01000977 C13.48812193 0.00384305 16.94496841 -0.03019868 20.40429688 -0.06835938 C22.60286525 -0.06931069 24.801437 -0.06745109 27 -0.0625 C28.03346054 -0.07575821 29.06692108 -0.08901642 30.13169861 -0.10267639 C37.27999125 -0.0100984 37.27999125 -0.0100984 41.14331055 2.82202148 C42.88023814 5.30073204 44.01653941 7.23353945 44.90234375 10.10546875 C45.29099609 11.34683594 45.29099609 11.34683594 45.6875 12.61328125 C45.93628906 13.4640625 46.18507813 14.31484375 46.44140625 15.19140625 C46.71339844 16.04992187 46.98539062 16.9084375 47.265625 17.79296875 C49.20381059 24.15419324 49.20381059 24.15419324 48.06640625 27.56640625 C47.73640625 27.56640625 47.40640625 27.56640625 47.06640625 27.56640625 C47.06640625 25.91640625 47.06640625 24.26640625 47.06640625 22.56640625 C46.40640625 22.56640625 45.74640625 22.56640625 45.06640625 22.56640625 C43.3394589 18.36166488 41.94673153 14.66376518 41.50390625 10.12890625 C41.35953125 8.95328125 41.21515625 7.77765625 41.06640625 6.56640625 C40.40640625 6.23640625 39.74640625 5.90640625 39.06640625 5.56640625 C39.06640625 4.57640625 39.06640625 3.58640625 39.06640625 2.56640625 C33.39217441 2.54153773 27.71797487 2.5234669 22.04370117 2.51147461 C20.11661221 2.50647086 18.189527 2.4996658 16.26245117 2.4909668 C13.47964549 2.47872677 10.69689036 2.47313821 7.9140625 2.46875 C7.06368912 2.46358871 6.21331573 2.45842743 5.33717346 2.45310974 C-0.16254894 2.45260326 -5.47671125 2.87259233 -10.93359375 3.56640625 C-10.7325 4.1696875 -10.53140625 4.77296875 -10.32421875 5.39453125 C-9.93359375 7.56640625 -9.93359375 7.56640625 -11.68359375 10.31640625 C-12.42609375 11.05890625 -13.16859375 11.80140625 -13.93359375 12.56640625 C-14.92359375 12.56640625 -15.91359375 12.56640625 -16.93359375 12.56640625 C-14.7244213 1.520544 -10.96252763 -0.05250942 0 0 Z " fill="#30418A" transform="translate(287.93359375,377.43359375)"/>
<path d="M0 0 C0 0.33 0 0.66 0 1 C-1.546875 1.12375 -1.546875 1.12375 -3.125 1.25 C-7.37856898 2.07327141 -9.68743626 3.23953022 -13 6 C-13.95231597 8.12119128 -13.95231597 8.12119128 -14 10 C-14.721875 9.731875 -15.44375 9.46375 -16.1875 9.1875 C-19.19887378 8.65381231 -19.19887378 8.65381231 -21.5 11.1875 C-22.325 12.115625 -23.15 13.04375 -24 14 C-24.9075 14.70125 -25.815 15.4025 -26.75 16.125 C-29.25052455 17.87431597 -29.25052455 17.87431597 -30 21 C-30.66 21 -31.32 21 -32 21 C-32 21.99 -32 22.98 -32 24 C-31.34 24 -30.68 24 -30 24 C-30.66 25.32 -31.32 26.64 -32 28 C-32.33 27.01 -32.66 26.02 -33 25 C-33.66 25.33 -34.32 25.66 -35 26 C-35.2475 27.2375 -35.2475 27.2375 -35.5 28.5 C-35.7475 29.7375 -35.7475 29.7375 -36 31 C-36.99 31.495 -36.99 31.495 -38 32 C-38.33 32.99 -38.66 33.98 -39 35 C-38.34 35.33 -37.68 35.66 -37 36 C-38.65 36 -40.3 36 -42 36 C-40.35780221 24.31513113 -30.00420274 14.14724307 -21.0625 7.25 C-8.16907514 -2.04226879 -8.16907514 -2.04226879 0 0 Z " fill="#2F468D" transform="translate(539,172)"/>
<path d="M0 0 C0.33 0 0.66 0 1 0 C1.07663409 7.04338539 1.12884295 14.08666159 1.16479492 21.13037109 C1.17979713 23.52201353 1.20020547 25.91362885 1.22631836 28.30517578 C1.26308043 31.76081064 1.27981264 35.21607892 1.29296875 38.671875 C1.30845261 39.72550232 1.32393646 40.77912964 1.33988953 41.86468506 C1.34244864 53.38617562 -0.84799825 62.83432785 -8 72 C-8.33 70.68 -8.66 69.36 -9 68 C-8.01 67.505 -8.01 67.505 -7 67 C0.22733819 55.39245685 -1.73860936 39.83436595 -1.44775391 26.55151367 C-1.24848837 17.66408799 -1.00181137 8.84244427 0 0 Z " fill="#485B9F" transform="translate(643,405)"/>
<path d="M0 0 C0.33 0.66 0.66 1.32 1 2 C0.109375 4.3125 0.109375 4.3125 -1.25 7 C-1.68828125 7.886875 -2.1265625 8.77375 -2.578125 9.6875 C-4 12 -4 12 -7 14 C-7.25030977 16.58380177 -7.25030977 16.58380177 -7 19 C-7.99 19 -8.98 19 -10 19 C-10.66 19.33 -11.32 19.66 -12 20 C-12.65555119 22.52733235 -12.65555119 22.52733235 -13 25 C-13.99 25 -14.98 25 -16 25 C-15.484375 25.763125 -14.96875 26.52625 -14.4375 27.3125 C-13.963125 28.199375 -13.48875 29.08625 -13 30 C-13.33 30.99 -13.66 31.98 -14 33 C-14.66 33 -15.32 33 -16 33 C-15.67 33.99 -15.34 34.98 -15 36 C-14.34 36.33 -13.68 36.66 -13 37 C-13.33 37.99 -13.66 38.98 -14 40 C-20.37293435 32.78852166 -20.37293435 32.78852166 -21 29 C-19.44645271 25.82678839 -17.29632483 23.14881179 -15.125 20.375 C-14.52598877 19.5804541 -13.92697754 18.7859082 -13.30981445 17.96728516 C-12.10911952 16.3753017 -10.9015931 14.78844572 -9.68701172 13.20703125 C-7.4655412 10.30079486 -5.32497034 7.34349408 -3.1875 4.375 C-2.12532703 2.91642846 -1.06297945 1.4579839 0 0 Z " fill="#A91F26" transform="translate(380,215)"/>
<path d="M0 0 C0.4125 0.37511719 0.825 0.75023437 1.25 1.13671875 C11.44669801 10.17263194 20.89706051 14.5503484 34.7265625 14.23828125 C39.57087953 13.88565197 44.26479298 13.062812 49 12 C48.3828125 13.9453125 48.3828125 13.9453125 47 16 C38.97290739 18.02422335 30.40554454 16.95825857 22.33154297 15.67529297 C17.96624361 14.99717751 15.13249045 15.07592081 11.125 16.8125 C7.65521129 17.11865783 5.67784666 15.00838499 3 13 C6.05263664 12.01879536 7.94736336 12.01879536 11 13 C11.33 12.34 11.66 11.68 12 11 C11.38511719 10.84144531 10.77023437 10.68289063 10.13671875 10.51953125 C3.49740933 8.6029204 3.49740933 8.6029204 0.9375 5.5 C0 3 0 3 0 0 Z " fill="#F9E7E2" transform="translate(364,253)"/>
<path d="M0 0 C1.14226295 -0.00021904 1.14226295 -0.00021904 2.30760193 -0.0004425 C4.81276342 0.00025152 7.31784962 0.00801999 9.82299805 0.01586914 C11.56463073 0.01773513 13.30626394 0.01915818 15.04789734 0.02015686 C19.62307189 0.02396777 24.1982145 0.03378586 28.77337646 0.04486084 C33.44551156 0.05510564 38.11765183 0.05966105 42.78979492 0.06469727 C51.95061622 0.07540943 61.11141385 0.09246871 70.2722168 0.11352539 C68.2922168 3.08352539 66.3122168 6.05352539 64.2722168 9.11352539 C63.2822168 8.61852539 63.2822168 8.61852539 62.2722168 8.11352539 C62.2722168 7.45352539 62.2722168 6.79352539 62.2722168 6.11352539 C62.9322168 6.11352539 63.5922168 6.11352539 64.2722168 6.11352539 C64.2722168 4.46352539 64.2722168 2.81352539 64.2722168 1.11352539 C26.1572168 1.60852539 26.1572168 1.60852539 -12.7277832 2.11352539 C-12.7277832 1.78352539 -12.7277832 1.45352539 -12.7277832 1.11352539 C-8.47238438 0.07361868 -4.35379417 -0.0220038 0 0 Z " fill="#2E4288" transform="translate(547.727783203125,168.886474609375)"/>
<path d="M0 0 C9.31853458 -0.04633734 18.6370295 -0.08187631 27.95565414 -0.10362434 C32.28265197 -0.11406222 36.60957097 -0.1282215 40.93652344 -0.15087891 C45.11215235 -0.17260714 49.28770545 -0.1845686 53.46338654 -0.18975449 C55.05659427 -0.19345028 56.64979786 -0.2006672 58.24297333 -0.21146011 C60.47424798 -0.22597485 62.70520918 -0.22797796 64.93652344 -0.22705078 C66.84180817 -0.23371262 66.84180817 -0.23371262 68.7855835 -0.24050903 C72 0 72 0 76 2 C52.9 2 29.8 2 6 2 C6.33 3.65 6.66 5.3 7 7 C7.33944795 8.99897128 7.67421616 10.99875639 8 13 C0 3.28571429 0 3.28571429 0 0 Z " fill="#2A4087" transform="translate(249,174)"/>
<path d="M0 0 C0.33 0 0.66 0 1 0 C2.15692908 4.74134329 3.14433542 9.09259566 3 14 C3.33 14.99 3.66 15.98 4 17 C15.22 17 26.44 17 38 17 C38 17.66 38 18.32 38 19 C26.12 19 14.24 19 2 19 C0.68 13.72 -0.64 8.44 -2 3 C-1.34 2.01 -0.68 1.02 0 0 Z " fill="#3B4E8D" transform="translate(323,466)"/>
<path d="M0 0 C2.475 0.495 2.475 0.495 5 1 C5 2.32 5 3.64 5 5 C5.99 5.33 6.98 5.66 8 6 C8.99 6.66 9.98 7.32 11 8 C13.78884194 8.17356717 16.4641303 8.23390216 19.25 8.1875 C20.43988525 8.17783203 20.43988525 8.17783203 21.65380859 8.16796875 C29.12480347 8.07258801 36.55490445 7.61493415 44 7 C43.34 8.32 42.68 9.64 42 11 C37.71339534 11.12437698 33.42776918 11.21469796 29.13989258 11.2746582 C27.6839771 11.29967393 26.22818559 11.33369864 24.77270508 11.37719727 C11.12188724 11.7747031 11.12188724 11.7747031 6.65625 8.6875 C3.9042002 5.90307314 1.9597617 3.37079012 0 0 Z " fill="#314688" transform="translate(723,474)"/>
<path d="M0 0 C11.88 0 23.76 0 36 0 C35.67 1.65 35.34 3.3 35 5 C34.34 4.67 33.68 4.34 33 4 C33 3.01 33 2.02 33 1 C22.77 1 12.54 1 2 1 C2 2.65 2 4.3 2 6 C1.54753906 6.43828125 1.09507812 6.8765625 0.62890625 7.328125 C-1.92329709 9.94765264 -2.29352719 13.2817111 -3.0625 16.75 C-3.38557102 18.14089209 -3.70978181 19.53151995 -4.03515625 20.921875 C-4.26936279 21.93604492 -4.26936279 21.93604492 -4.50830078 22.97070312 C-5.24466077 26.00974198 -6.11668436 29.00065266 -7 32 C-7.66 32 -8.32 32 -9 32 C-7.73323199 25.01636702 -6.02367242 18.28132934 -3.9375 11.5 C-3.5343457 10.16195313 -3.5343457 10.16195313 -3.12304688 8.796875 C-1.14840734 2.29681467 -1.14840734 2.29681467 0 0 Z " fill="#2D3E86" transform="translate(227,378)"/>
<path d="M0 0 C0.99 0.99 1.98 1.98 3 3 C-15.15 2.67 -33.3 2.34 -52 2 C-52 1.67 -52 1.34 -52 1 C-43.88865277 0.05700594 -35.79676772 -0.31385887 -27.64086914 -0.55761719 C-25.43801477 -0.62498426 -23.23569011 -0.7028784 -21.03320312 -0.78125 C-6.48742735 -1.26009795 -6.48742735 -1.26009795 0 0 Z " fill="#D9E5F4" transform="translate(618,376)"/>
<path d="M0 0 C2 2 2 2 2.0625 3.875 C0.31842768 7.36314464 -2.54481614 8.3027167 -6 10 C-6.66 10 -7.32 10 -8 10 C-8.103125 10.70125 -8.20625 11.4025 -8.3125 12.125 C-9.10571772 15.44209227 -10.2659086 18.06538379 -12 21 C-12.99 21.33 -13.98 21.66 -15 22 C-13.86752036 13.56497923 -10.59439001 8.1859366 -4.25 2.5625 C-2 1 -2 1 0 0 Z " fill="#22418F" transform="translate(550,381)"/>
<path d="M0 0 C28.05 0 56.1 0 85 0 C85 0.33 85 0.66 85 1 C58.93 1 32.86 1 6 1 C6 1.66 6 2.32 6 3 C4.02 3 2.04 3 0 3 C0 2.01 0 1.02 0 0 Z " fill="#253BA0" transform="translate(426,379)"/>
<path d="M0 0 C0.9871361 3.08405697 0.99188715 4.93448839 0.04370117 8.01831055 C-0.190168 8.79559006 -0.42403717 9.57286957 -0.66499329 10.373703 C-0.92636581 11.2029982 -1.18773834 12.0322934 -1.45703125 12.88671875 C-1.72005539 13.74433304 -1.98307953 14.60194733 -2.2540741 15.48554993 C-2.81167841 17.2950317 -3.37432879 19.10296512 -3.94165039 20.90942383 C-4.81129344 23.68365097 -5.66162021 26.46327556 -6.50976562 29.24414062 C-7.05354716 31.00035349 -7.59843132 32.75622541 -8.14453125 34.51171875 C-8.527481 35.76477058 -8.527481 35.76477058 -8.91816711 37.0431366 C-9.55359436 39.0482506 -10.26946674 41.02754693 -11 43 C-11.99 43.495 -11.99 43.495 -13 44 C-12 39 -11 34 -10 29 C-9.34 29 -8.68 29 -8 29 C-8.020625 27.906875 -8.04125 26.81375 -8.0625 25.6875 C-8 22 -8 22 -7 19 C-6.8453125 17.3603125 -6.8453125 17.3603125 -6.6875 15.6875 C-5.91430193 11.54034671 -4.40115179 9.41982224 -2 6 C-0.75675853 2.7750792 -0.75675853 2.7750792 0 0 Z " fill="#324886" transform="translate(243,438)"/>
<path d="M0 0 C3.93174061 3.31740614 3.93174061 3.31740614 4.25 6.5 C4.1675 7.325 4.085 8.15 4 9 C4 10.32 4 11.64 4 13 C5.32 13.33 6.64 13.66 8 14 C8 14.66 8 15.32 8 16 C8.66 16 9.32 16 10 16 C9.67 18.31 9.34 20.62 9 23 C5.29394681 19.50164156 2.47800508 15.99149936 -0.3125 11.6875 C-1.00988281 10.61886719 -1.70726562 9.55023438 -2.42578125 8.44921875 C-3.20501953 7.23685547 -3.20501953 7.23685547 -4 6 C-3.34 4.68 -2.68 3.36 -2 2 C-1.34 2 -0.68 2 0 2 C0 1.34 0 0.68 0 0 Z " fill="#294491" transform="translate(482,233)"/>
<path d="M0 0 C0.65214981 -0.00191345 1.30429962 -0.0038269 1.97621155 -0.00579834 C3.35385525 -0.00715762 4.73151187 -0.00347906 6.10913086 0.00488281 C8.21172062 0.01556942 10.31345269 0.00498849 12.41601562 -0.0078125 C13.75651229 -0.00649052 15.09700843 -0.00392733 16.4375 0 C17.65429443 0.00225586 18.87108887 0.00451172 20.12475586 0.00683594 C23.10594027 0.25094992 24.78099048 0.69911161 27.28515625 2.265625 C27.28515625 2.595625 27.28515625 2.925625 27.28515625 3.265625 C16.06515625 3.265625 4.84515625 3.265625 -6.71484375 3.265625 C-7.70484375 6.235625 -8.69484375 9.205625 -9.71484375 12.265625 C-10.89129225 9.91272801 -10.74960226 8.84743549 -10.46484375 6.265625 C-10.3978125 5.564375 -10.33078125 4.863125 -10.26171875 4.140625 C-8.84969209 -0.70060926 -4.12649478 0.00765736 0 0 Z " fill="#5C6CAE" transform="translate(291.71484375,458.734375)"/>
<path d="M0 0 C2.91952568 0.01748219 5.72297885 0.13944633 8.625 0.375 C9.42679688 0.43171875 10.22859375 0.4884375 11.0546875 0.546875 C13.03715498 0.68847982 15.01869051 0.84302259 17 1 C17 1.33 17 1.66 17 2 C13.7 2 10.4 2 7 2 C7 2.66 7 3.32 7 4 C4.03 3.505 4.03 3.505 1 3 C4.63 4.98 8.26 6.96 12 9 C11.01 9.495 11.01 9.495 10 10 C10 10.66 10 11.32 10 12 C10.66 12.33 11.32 12.66 12 13 C11.34 13.66 10.68 14.32 10 15 C9.5875 14.0925 9.175 13.185 8.75 12.25 C5.95995792 7.95373956 1.5924955 7.24844564 -3.125 5.95703125 C-5.9595324 5.01347087 -7.74448794 3.92477592 -10 2 C-8.72125 2.04125 -7.4425 2.0825 -6.125 2.125 C-3.98128508 2.24212873 -3.98128508 2.24212873 -2 2 C-1.34 1.34 -0.68 0.68 0 0 Z " fill="#F2F2F5" transform="translate(514,272)"/>
<path d="M0 0 C0.66 0 1.32 0 2 0 C2.66 0.99 3.32 1.98 4 3 C4.33 3 4.66 3 5 3 C5.33 5.31 5.66 7.62 6 10 C6.66 10 7.32 10 8 10 C8.144375 11.051875 8.28875 12.10375 8.4375 13.1875 C8.7411972 15.24589211 9.06069598 17.30347992 9.46875 19.34375 C10.06486544 22.32432719 10.56814687 25.31342432 11.0625 28.3125 C11.23910156 29.38113281 11.41570312 30.44976562 11.59765625 31.55078125 C11.73042969 32.35902344 11.86320312 33.16726563 12 34 C11.34 34 10.68 34 10 34 C8.7047844 29.83442822 7.4144702 25.66735353 6.125 21.5 C5.76019531 20.32695312 5.39539063 19.15390625 5.01953125 17.9453125 C3.18066094 11.99405949 1.42595993 6.06408223 0 0 Z " fill="#2A438F" transform="translate(101,386)"/>
<path d="M0 0 C2.625 -0.1875 2.625 -0.1875 5 0 C0.04571241 5.97931261 -6.75204346 8.58401449 -14 11 C-15.40824893 11.08021999 -16.81997231 11.10765977 -18.23046875 11.09765625 C-19.03291016 11.09443359 -19.83535156 11.09121094 -20.66210938 11.08789062 C-21.49548828 11.07951172 -22.32886719 11.07113281 -23.1875 11.0625 C-24.4549707 11.05573242 -24.4549707 11.05573242 -25.74804688 11.04882812 C-27.83206155 11.03705403 -29.91603977 11.0191189 -32 11 C-32.33 10.34 -32.66 9.68 -33 9 C-26.07 9 -19.14 9 -12 9 C-11.67 8.01 -11.34 7.02 -11 6 C-9.00390625 5.15625 -9.00390625 5.15625 -6.5625 4.5 C-2.54555147 3.43992311 -2.54555147 3.43992311 0 0 Z " fill="#374D8B" transform="translate(550,262)"/>
<path d="M0 0 C4.30495015 -0.09935088 8.60928183 -0.17169268 12.91503906 -0.21972656 C14.37772252 -0.23976332 15.84032666 -0.26700104 17.30273438 -0.30175781 C19.4129601 -0.35063225 21.52212136 -0.37304659 23.6328125 -0.390625 C24.90012207 -0.41157227 26.16743164 -0.43251953 27.47314453 -0.45410156 C31.62897028 0.0809833 33.76518736 1.38859749 37 4 C37.495 4.99 37.495 4.99 38 6 C37.01 6 36.02 6 35 6 C35 5.34 35 4.68 35 4 C32.36 4 29.72 4 27 4 C27.33 3.34 27.66 2.68 28 2 C21.07 1.505 21.07 1.505 14 1 C14 1.66 14 2.32 14 3 C7.565 3.495 7.565 3.495 1 4 C0.67 2.68 0.34 1.36 0 0 Z " fill="#2B408E" transform="translate(658,378)"/>
<path d="M0 0 C1.14082031 -0.01095703 2.28164062 -0.02191406 3.45703125 -0.03320312 C11.89619315 0.04117257 11.89619315 0.04117257 14.85742188 2.59790039 C15.39947266 3.24621826 15.94152344 3.89453613 16.5 4.5625 C15.943125 4.418125 15.38625 4.27375 14.8125 4.125 C14.049375 3.939375 13.28625 3.75375 12.5 3.5625 C11.81679687 3.37816406 11.13359375 3.19382812 10.4296875 3.00390625 C6.34270357 2.388134 2.42514177 2.67492112 -1.6875 2.9375 C-2.50669922 2.98132813 -3.32589844 3.02515625 -4.16992188 3.0703125 C-8.47193938 3.2271947 -8.47193938 3.2271947 -12.5 4.5625 C-14.50153469 7.74140804 -14.9971641 10.87503672 -15.5 14.5625 C-16.16 13.9025 -16.82 13.2425 -17.5 12.5625 C-17.36236452 8.91515984 -16.78699729 6.16994825 -15.2265625 2.8671875 C-10.72171865 -0.9406318 -5.69447821 -0.11903712 0 0 Z " fill="#2D4090" transform="translate(180.5,377.4375)"/>
<path d="M0 0 C1.2463623 0.01047363 2.49272461 0.02094727 3.77685547 0.03173828 C4.77143265 0.03598312 4.77143265 0.03598312 5.78610229 0.04031372 C7.9055988 0.05151643 10.02467401 0.07662027 12.14404297 0.10205078 C13.58023479 0.11208051 15.01643322 0.12120637 16.45263672 0.12939453 C19.97490925 0.15145578 23.496935 0.18598585 27.01904297 0.22705078 C26.68904297 1.21705078 26.35904297 2.20705078 26.01904297 3.22705078 C25.22731689 3.2416333 24.43559082 3.25621582 23.61987305 3.27124023 C20.02327754 3.34583434 16.42759854 3.44245911 12.83154297 3.53955078 C11.58566406 3.56210937 10.33978516 3.58466797 9.05615234 3.60791016 C7.25307617 3.66108398 7.25307617 3.66108398 5.41357422 3.71533203 C3.75612183 3.75460815 3.75612183 3.75460815 2.06518555 3.79467773 C-2.28436536 4.41205809 -4.91154159 6.15763534 -7.98095703 9.22705078 C-7.19628694 4.25747351 -5.46495555 0.41624969 0 0 Z " fill="#2F468B" transform="translate(576.98095703125,407.77294921875)"/>
<path d="M0 0 C0.66 0.66 1.32 1.32 2 2 C-2.6696136 6.42703627 -6.74971611 10.1817356 -13 12 C-16.9375 11.6875 -16.9375 11.6875 -20 11 C-20 10.67 -20 10.34 -20 10 C-18.02 10 -16.04 10 -14 10 C-14 9.01 -14 8.02 -14 7 C-13.01 6.67 -12.02 6.34 -11 6 C-9.79117904 3.99983534 -9.79117904 3.99983534 -9 2 C-8.01 2 -7.02 2 -6 2 C-5.67 2.66 -5.34 3.32 -5 4 C-4.34 3.34 -3.68 2.68 -3 2 C-2.01 2 -1.02 2 0 2 C0 1.34 0 0.68 0 0 Z " fill="#2A4498" transform="translate(398,338)"/>
<path d="M0 0 C0.99 0.33 1.98 0.66 3 1 C3 2.65 3 4.3 3 6 C3.66 6 4.32 6 5 6 C4.34 7.32 3.68 8.64 3 10 C2.34 10 1.68 10 1 10 C-0.26215281 12.27187505 -0.98880379 13.88803788 -1.25 16.5 C-2.37333112 20.24443706 -4.65968529 21.19623006 -8 23 C-8.99 23 -9.98 23 -11 23 C-10.55269531 22.3709375 -10.10539063 21.741875 -9.64453125 21.09375 C-7.74672241 18.40687352 -5.87162256 15.70516993 -4 13 C-3.46761719 12.25105469 -2.93523438 11.50210937 -2.38671875 10.73046875 C0.41781471 6.73731835 0.41781471 6.73731835 0.8125 2 C0.4103125 1.01 0.4103125 1.01 0 0 Z " fill="#FBE9E5" transform="translate(536,306)"/>
<path d="M0 0 C1.65 0 3.3 0 5 0 C5 0.66 5 1.32 5 2 C2.95990245 2.65077296 0.91784331 3.29539824 -1.125 3.9375 C-2.26195312 4.29714844 -3.39890625 4.65679687 -4.5703125 5.02734375 C-9.99607037 6.56608374 -15.05285373 7.15477848 -20.6875 7.1875 C-21.80511719 7.20167969 -22.92273438 7.21585937 -24.07421875 7.23046875 C-27 7 -27 7 -30 5 C-25.37540756 3.82299952 -20.92133538 3.88591588 -16.1875 3.9375 C-15.00510742 3.94426758 -15.00510742 3.94426758 -13.79882812 3.95117188 C-11.86585239 3.96288688 -9.93291607 3.98082002 -8 4 C-8 3.34 -8 2.68 -8 2 C-5.36 2 -2.72 2 0 2 C0 1.34 0 0.68 0 0 Z " fill="#AC373B" transform="translate(416,261)"/>
<path d="M0 0 C1.66675781 -0.0299707 1.66675781 -0.0299707 3.3671875 -0.06054688 C10.0123783 -0.0565914 14.21073802 0.49772724 19.625 4.4375 C17.875 5.125 17.875 5.125 15.625 5.4375 C15.07972656 4.95410156 14.53445313 4.47070312 13.97265625 3.97265625 C10.67555819 1.81665036 7.612881 2.07520804 3.8125 2.1875 C3.12607422 2.19265625 2.43964844 2.1978125 1.73242188 2.203125 C-1.68146049 2.25480155 -4.8720778 2.5114372 -8.26171875 3.015625 C-11.375 3.4375 -11.375 3.4375 -13.375 2.4375 C-13.375 3.0975 -13.375 3.7575 -13.375 4.4375 C-14.365 5.0975 -15.355 5.7575 -16.375 6.4375 C-16.705 7.0975 -17.035 7.7575 -17.375 8.4375 C-18.035 8.4375 -18.695 8.4375 -19.375 8.4375 C-18.44973285 5.32523777 -17.79880258 3.75002767 -15.14990234 1.79663086 C-10.30573129 -0.57601565 -5.30172367 -0.03359387 0 0 Z " fill="#E4F2F9" transform="translate(588.375,410.5625)"/>
<path d="M0 0 C2.50847242 2.18128037 3.54816916 3.69066514 4 7 C2.63226552 9.57250484 1.25756074 11.85946463 -0.375 14.25 C-0.80039062 14.8996875 -1.22578125 15.549375 -1.6640625 16.21875 C-2.73888705 17.83778951 -3.86528032 19.42236 -5 21 C-5.33 21 -5.66 21 -6 21 C-6.36734694 15.6122449 -6.36734694 15.6122449 -4.6875 12.8125 C-3.15755473 11.16922545 -1.62595371 9.54852734 0 8 C-0.66 7.67 -1.32 7.34 -2 7 C-2 5.68 -2 4.36 -2 3 C-1.34 3 -0.68 3 0 3 C0 2.01 0 1.02 0 0 Z " fill="#AB2027" transform="translate(534,304)"/>
<path d="M0 0 C1.1577506 3.47325181 1.06866652 6.36067448 1 10 C-0.32 10 -1.64 10 -3 10 C-3.268125 10.928125 -3.53625 11.85625 -3.8125 12.8125 C-5 16 -5 16 -6.53125 17.40625 C-8.45003741 19.48833847 -8.48530697 20.89723625 -8.6875 23.6875 C-8.75324219 24.49574219 -8.81898438 25.30398437 -8.88671875 26.13671875 C-8.92410156 26.75160156 -8.96148437 27.36648437 -9 28 C-9.66 28 -10.32 28 -11 28 C-13.07355844 24.58472727 -13.07355844 24.58472727 -12.76953125 22.16796875 C-11.79496764 19.42237077 -10.34212775 17.41358842 -8.625 15.0625 C-3.82069619 9.09121334 -3.82069619 9.09121334 -2 2 C-1.34 2 -0.68 2 0 2 C0 1.34 0 0.68 0 0 Z " fill="#FAE2DE" transform="translate(483,214)"/>
<path d="M0 0 C2.57208109 3.06671207 4.9825763 6.24679651 7.3125 9.5 C7.84488281 10.2321875 8.37726563 10.964375 8.92578125 11.71875 C10.28585837 14.60705923 9.98207116 16.00869141 9 19 C7.4375 20.8125 7.4375 20.8125 6 22 C6.185625 21.13375 6.37125 20.2675 6.5625 19.375 C7.00667933 15.94847372 6.71954492 13.35787629 6 10 C1.46859347 9.06619039 1.46859347 9.06619039 -3 10 C-2.690625 9.46375 -2.38125 8.9275 -2.0625 8.375 C-0.82172561 5.6015043 -0.4090325 2.99957163 0 0 Z " fill="#314C93" transform="translate(409,294)"/>
<path d="M0 0 C0.598125 0.185625 1.19625 0.37125 1.8125 0.5625 C4.16408762 1.22093687 4.16408762 1.22093687 7 0 C5.55797524 4.15151338 3.4989562 7.29978445 0.875 10.8125 C-0.21167969 12.27623047 -0.21167969 12.27623047 -1.3203125 13.76953125 C-1.87460937 14.50558594 -2.42890625 15.24164063 -3 16 C-3.5625 14.0625 -3.5625 14.0625 -4 12 C-3.67 11.67 -3.34 11.34 -3 11 C-3.33 10.34 -3.66 9.68 -4 9 C-3.02616054 7.31791365 -2.02304948 5.65261839 -1 4 C-0.30420546 1.80869466 -0.30420546 1.80869466 0 0 Z " fill="#FAECEC" transform="translate(366,224)"/>
<path d="M0 0 C6.91999386 8.2014742 6.91999386 8.2014742 9 13 C8.3125 16 8.3125 16 7 18 C6.896875 17.360625 6.79375 16.72125 6.6875 16.0625 C6.460625 15.381875 6.23375 14.70125 6 14 C5.01 13.67 4.02 13.34 3 13 C1.8125 10.9375 1.8125 10.9375 1 9 C0.34 9 -0.32 9 -1 9 C-0.67 6.03 -0.34 3.06 0 0 Z " fill="#334A99" transform="translate(355,211)"/>
<path d="M0 0 C0.99 0 1.98 0 3 0 C6.06806466 3.15830185 7.49942848 5.61999924 8 10 C8.99 9.34 9.98 8.68 11 8 C10.979375 9.216875 10.95875 10.43375 10.9375 11.6875 C10.93175884 14.91977322 11.21233685 17.84934741 12 21 C9.7787431 18.92802434 8.22645249 16.92088004 6.73828125 14.27734375 C6.34189453 13.57416016 5.94550781 12.87097656 5.53710938 12.14648438 C5.13298828 11.41751953 4.72886719 10.68855469 4.3125 9.9375 C3.68891602 8.83825195 3.68891602 8.83825195 3.05273438 7.71679688 C0 2.25796644 0 2.25796644 0 0 Z " fill="#A9212A" transform="translate(448,307)"/>
<path d="M0 0 C2.475 0.495 2.475 0.495 5 1 C5.33 2.32 5.66 3.64 6 5 C6.7425 5.12375 7.485 5.2475 8.25 5.375 C10.80141485 5.95486701 12.7267573 6.73708739 15 8 C14.67 8.99 14.34 9.98 14 11 C12.53984709 10.71758359 11.08190207 10.42373386 9.625 10.125 C8.81289063 9.96257812 8.00078125 9.80015625 7.1640625 9.6328125 C5 9 5 9 3 7 C2.29788106 5.34795544 1.63028587 3.68076231 1 2 C0.67 1.34 0.34 0.68 0 0 Z " fill="#FAFBF8" transform="translate(361,256)"/>
<path d="M0 0 C-4.55341988 1.52569134 -9.33778933 1.01613469 -14.06835938 0.87304688 C-18.19268254 0.80733601 -21.29312124 1.15018771 -25 3 C-25.66 2.34 -26.32 1.68 -27 1 C-16.80447517 -3.19815728 -10.31829191 -4.4221251 0 0 Z " fill="#AE333F" transform="translate(445,168)"/>
<path d="M0 0 C7.34520485 5.31355244 11.38710641 12.3641444 16 20 C15.34 20.66 14.68 21.32 14 22 C13.566875 21.175 13.13375 20.35 12.6875 19.5 C12.130625 18.675 11.57375 17.85 11 17 C10.01 17 9.02 17 8 17 C8.103125 16.071875 8.20625 15.14375 8.3125 14.1875 C8.209375 13.135625 8.10625 12.08375 8 11 C5.64225405 9.31865712 5.64225405 9.31865712 3 8 C1.3473893 5.43845341 0.71144099 2.93776064 0 0 Z " fill="#A12A33" transform="translate(451,173)"/>
<path d="M0 0 C0.66 0 1.32 0 2 0 C0.31205041 9.51389771 -2.3511204 18.71881118 -5 28 C-5.66 28 -6.32 28 -7 28 C-6.06160057 21.47536399 -4.9636707 15.25903067 -2.73046875 9.046875 C-1.66828236 6.07048105 -0.84223869 3.04501682 0 0 Z " fill="#2E4489" transform="translate(298,406)"/>
<path d="M0 0 C13.5470852 0.83497758 13.5470852 0.83497758 17.109375 3.69140625 C18.4375 5.625 18.4375 5.625 20 9 C19.67 9.66 19.34 10.32 19 11 C18.34 11 17.68 11 17 11 C17 10.34 17 9.68 17 9 C16.360625 8.7525 15.72125 8.505 15.0625 8.25 C13 7 13 7 12 3 C7.38 3 2.76 3 -2 3 C-1.34 2.01 -0.68 1.02 0 0 Z " fill="#2E4387" transform="translate(382,273)"/>
<path d="M0 0 C3.40967302 4.02748075 6.08703775 8.28025969 8.75 12.8125 C9.16121094 13.50537109 9.57242187 14.19824219 9.99609375 14.91210938 C11.0007858 16.6060669 12.00086825 18.30275696 13 20 C12.34 20.33 11.68 20.66 11 21 C8 16.25 8 16.25 8 14 C7.195625 13.7525 6.39125 13.505 5.5625 13.25 C3 12 3 12 2.1875 9.875 C2.125625 9.25625 2.06375 8.6375 2 8 C1.01 8.495 1.01 8.495 0 9 C-1.125 2.25 -1.125 2.25 0 0 Z " fill="#AA232E" transform="translate(467,194)"/>
<path d="M0 0 C0.99 0.66 1.98 1.32 3 2 C2.690625 2.598125 2.38125 3.19625 2.0625 3.8125 C0.89790296 6.08956772 0.89790296 6.08956772 0 9 C-0.598125 8.79375 -1.19625 8.5875 -1.8125 8.375 C-4.28450846 7.69328085 -4.28450846 7.69328085 -7 10 C-10.06640625 10.046875 -10.06640625 10.046875 -13.5625 9.75 C-14.71878906 9.66234375 -15.87507812 9.5746875 -17.06640625 9.484375 C-20 9 -20 9 -22 7 C-20.81921875 6.96261719 -19.6384375 6.92523438 -18.421875 6.88671875 C-16.86455212 6.82104851 -15.30726186 6.75460153 -13.75 6.6875 C-12.97269531 6.66494141 -12.19539062 6.64238281 -11.39453125 6.61914062 C-5.59164558 6.36901376 -5.59164558 6.36901376 -1 3 C-0.67 2.01 -0.34 1.02 0 0 Z " fill="#F5FEFE" transform="translate(167,478)"/>
<path d="M0 0 C2.3815061 2.93108443 4.6859304 5.90631715 6.9375 8.9375 C9.51539286 12.39436905 12.20746923 15.71466968 15 19 C11.6875 18.9375 11.6875 18.9375 8 18 C6.40959161 15.71858658 5.83493456 13.70125887 5 11 C4.34 11 3.68 11 3 11 C3 9.35 3 7.7 3 6 C2.01 5.67 1.02 5.34 0 5 C0 3.35 0 1.7 0 0 Z " fill="#374B94" transform="translate(351,246)"/>
<path d="M0 0 C0.99 0 1.98 0 3 0 C3.66 1.98 4.32 3.96 5 6 C6.32 6 7.64 6 9 6 C9 6.66 9 7.32 9 8 C9.99 8 10.98 8 12 8 C12.66 9.98 13.32 11.96 14 14 C8.09586034 12.73482722 5.3153502 9.79799128 2 5 C0.625 2.0625 0.625 2.0625 0 0 Z " fill="#2E448C" transform="translate(537,467)"/>
<path d="M0 0 C0.33 0 0.66 0 1 0 C1.05821935 3.89577024 1.0936703 7.79142802 1.125 11.6875 C1.14175781 12.79029297 1.15851562 13.89308594 1.17578125 15.02929688 C1.18222656 16.09599609 1.18867187 17.16269531 1.1953125 18.26171875 C1.20578613 19.24100342 1.21625977 20.22028809 1.22705078 21.22924805 C0.98195213 24.22024218 0.34958344 26.32655322 -1 29 C-3.4375 30.875 -3.4375 30.875 -6 32 C-6.99 31.67 -7.98 31.34 -9 31 C-8.236875 30.4225 -7.47375 29.845 -6.6875 29.25 C-3.47377021 26.55943553 -1.2804688 24.66412544 -0.56762695 20.43457031 C-0.54144287 19.49194336 -0.51525879 18.54931641 -0.48828125 17.578125 C-0.45283203 16.55332031 -0.41738281 15.52851563 -0.38085938 14.47265625 C-0.35830078 13.40917969 -0.33574219 12.34570312 -0.3125 11.25 C-0.27833984 10.17105469 -0.24417969 9.09210938 -0.20898438 7.98046875 C-0.12659337 5.32041623 -0.05741355 2.66068965 0 0 Z " fill="#4C5E9C" transform="translate(610,421)"/>
<path d="M0 0 C2 1 2 1 3.125 3.75 C3.91973395 6.70186896 4.17810598 8.97219837 4 12 C4.66 12 5.32 12 6 12 C6.33 11.34 6.66 10.68 7 10 C7.66 13.63 8.32 17.26 9 21 C6 20 6 20 4.90234375 18.3203125 C2.26513227 12.3198556 0.92056176 6.48027029 0 0 Z " fill="#354B8B" transform="translate(125,463)"/>
<path d="M0 0 C0.66 1.32 1.32 2.64 2 4 C1.01 5.485 1.01 5.485 0 7 C-0.7279813 9.58205869 -1.39048814 12.14052736 -2 14.75 C-2.33215677 16.1409065 -2.66548199 17.5315345 -3 18.921875 C-3.16242188 19.59798828 -3.32484375 20.27410156 -3.4921875 20.97070312 C-4.25126528 24.00409471 -5.12028633 26.99954803 -6 30 C-6.66 30 -7.32 30 -8 30 C-6.72977021 22.96735667 -4.98783682 16.19875528 -2.875 9.375 C-2.59785156 8.46621094 -2.32070312 7.55742187 -2.03515625 6.62109375 C-1.36102123 4.41272041 -0.68260023 2.20576837 0 0 Z " fill="#3C5291" transform="translate(226,380)"/>
<path d="M0 0 C0.33 0 0.66 0 1 0 C2.6100464 10.15029252 2.6100464 10.15029252 0.25 13.4375 C-0.4925 13.953125 -1.235 14.46875 -2 15 C-3.02323436 16.31558703 -4.03126968 17.64377755 -5 19 C-3.57142857 3.57142857 -3.57142857 3.57142857 0 0 Z " fill="#375297" transform="translate(259,429)"/>
<path d="M0 0 C3.37462715 0.54723683 5.08235 1.0549 8 3 C8.66 2.67 9.32 2.34 10 2 C10.33 3.98 10.66 5.96 11 8 C13.31 8.66 15.62 9.32 18 10 C16.68 11.32 15.36 12.64 14 14 C13.40832031 13.32453125 12.81664062 12.6490625 12.20703125 11.953125 C11.41683594 11.06109375 10.62664062 10.1690625 9.8125 9.25 C9.03519531 8.36828125 8.25789063 7.4865625 7.45703125 6.578125 C5.11544754 4.12113732 2.69841735 2.05137234 0 0 Z " fill="#FCE5E1" transform="translate(445,168)"/>
<path d="M0 0 C0.66 0 1.32 0 2 0 C1.57533503 1.77395508 1.1347591 3.54410631 0.6875 5.3125 C0.44386719 6.29863281 0.20023438 7.28476562 -0.05078125 8.30078125 C-1.00579499 11.01647874 -1.72180523 12.28403325 -4 14 C-4.66 14 -5.32 14 -6 14 C-6 11.36 -6 8.72 -6 6 C-5.38125 5.7525 -4.7625 5.505 -4.125 5.25 C-1.64931313 3.79371361 -1.04874998 2.62187494 0 0 Z " fill="#28458C" transform="translate(168,470)"/>
<path d="M0 0 C2 1 2 1 3.32421875 4.7109375 C3.78695533 6.26317203 4.24101139 7.81801409 4.6875 9.375 C4.92533203 10.15617187 5.16316406 10.93734375 5.40820312 11.7421875 C5.62798828 12.495 5.84777344 13.2478125 6.07421875 14.0234375 C6.27619873 14.71356934 6.47817871 15.40370117 6.6862793 16.11474609 C7 18 7 18 6 21 C5.67 21 5.34 21 5 21 C5 19.35 5 17.7 5 16 C4.34 16 3.68 16 3 16 C0.54970669 10.28264895 -0.33266291 6.20970773 0 0 Z " fill="#3A508F" transform="translate(330,384)"/>
<path d="M0 0 C1.20076172 0.31324219 1.20076172 0.31324219 2.42578125 0.6328125 C3.23402344 0.83648437 4.04226563 1.04015625 4.875 1.25 C5.48988281 1.41757812 6.10476563 1.58515625 6.73828125 1.7578125 C5.80078125 3.8203125 5.80078125 3.8203125 3.73828125 5.7578125 C0.66717527 5.81770996 -2.25183603 5.33833495 -5.26171875 4.7578125 C-5.26171875 3.7678125 -5.26171875 2.7778125 -5.26171875 1.7578125 C-2.26171875 -0.2421875 -2.26171875 -0.2421875 0 0 Z " fill="#F7F8FC" transform="translate(508.26171875,269.2421875)"/>
<path d="M0 0 C0.33 0.99 0.66 1.98 1 3 C1.66 3 2.32 3 3 3 C2.34 4.32 1.68 5.64 1 7 C0.67 6.01 0.34 5.02 0 4 C-0.99 4.495 -0.99 4.495 -2 5 C-2.165 5.825 -2.33 6.65 -2.5 7.5 C-2.665 8.325 -2.83 9.15 -3 10 C-3.99 10.495 -3.99 10.495 -5 11 C-5.33 11.99 -5.66 12.98 -6 14 C-5.34 14.33 -4.68 14.66 -4 15 C-5.65 15 -7.3 15 -9 15 C-8.55946315 10.15409462 -6.25494123 6.51858133 -3 3 C-2.34 3 -1.68 3 -1 3 C-0.67 2.01 -0.34 1.02 0 0 Z " fill="#203E8C" transform="translate(506,193)"/>
<path d="M0 0 C0.66 0.33 1.32 0.66 2 1 C2.4573799 5.87871896 0.82410816 9.58654806 -1 14 C-1.391875 14.99 -1.78375 15.98 -2.1875 17 C-2.455625 17.66 -2.72375 18.32 -3 19 C-3.66 19 -4.32 19 -5 19 C-3.83795007 12.45150687 -2.26616615 6.25461856 0 0 Z " fill="#DFEAF7" transform="translate(255,403)"/>
<path d="M0 0 C0.66 0 1.32 0 2 0 C3.29243536 4.1196377 4.26252625 7.66831683 4 12 C3.34 11.67 2.68 11.34 2 11 C2 10.34 2 9.68 2 9 C1.34 9 0.68 9 0 9 C0 9.99 0 10.98 0 12 C-0.66 12 -1.32 12 -2 12 C-2.17835515 7.45194365 -1.99785435 4.1205746 0 0 Z " fill="#2C4591" transform="translate(155,419)"/>
<path d="M0 0 C0.99 0.33 1.98 0.66 3 1 C1.40435348 4.49719419 -0.67289984 7.4629076 -2.9375 10.5625 C-3.62714844 11.51253906 -4.31679688 12.46257812 -5.02734375 13.44140625 C-6.59367925 15.47298991 -8.12858403 17.2576472 -10 19 C-9.4739075 15.21213403 -8.61896089 12.82847776 -6 10 C-5.34 10 -4.68 10 -4 10 C-3.896875 9.0925 -3.79375 8.185 -3.6875 7.25 C-2.99585051 3.98038425 -2.17865079 2.46282263 0 0 Z " fill="#FAE3E0" transform="translate(403,178)"/>
<path d="M0 0 C0.33 0 0.66 0 1 0 C1.01401855 1.0058313 1.01401855 1.0058313 1.02832031 2.03198242 C1.08216596 5.08455567 1.16578495 8.13561982 1.25 11.1875 C1.26417969 12.24259766 1.27835938 13.29769531 1.29296875 14.38476562 C1.45703955 20.58775716 1.45703955 20.58775716 3.921875 26.17578125 C5.86786413 28.03975066 5.86786413 28.03975066 8 29 C8 29.66 8 30.32 8 31 C5.125 30.8125 5.125 30.8125 2 30 C0.00416917 26.32505189 -0.2376844 23.17422926 -0.1953125 19.04296875 C-0.18886719 17.93115234 -0.18242188 16.81933594 -0.17578125 15.67382812 C-0.15902344 14.52333984 -0.14226563 13.37285156 -0.125 12.1875 C-0.11597656 11.01767578 -0.10695313 9.84785156 -0.09765625 8.64257812 C-0.07413732 5.76150947 -0.04126852 2.88086011 0 0 Z " fill="#5568A1" transform="translate(567,421)"/>
<path d="M0 0 C1.63129887 4.06285757 0.29968777 7.20102184 -0.9375 11.25 C-1.31777344 12.51328125 -1.69804687 13.7765625 -2.08984375 15.078125 C-2.54037109 16.52445312 -2.54037109 16.52445312 -3 18 C-4.32 18.33 -5.64 18.66 -7 19 C-6.55762656 13.47033198 -5.15617614 10.49515996 -2 6 C-0.75675853 2.7750792 -0.75675853 2.7750792 0 0 Z " fill="#2B4699" transform="translate(243,438)"/>
<path d="M0 0 C0.66 0.33 1.32 0.66 2 1 C1.01 2.485 1.01 2.485 0 4 C-7.62539734 5.41773656 -15.36864039 5.18417649 -23 4 C-23 3.67 -23 3.34 -23 3 C-22.11477661 2.91697632 -22.11477661 2.91697632 -21.21166992 2.83227539 C-18.53658792 2.57932313 -15.86205397 2.320973 -13.1875 2.0625 C-12.25873047 1.97548828 -11.32996094 1.88847656 -10.37304688 1.79882812 C-9.0340332 1.66831055 -9.0340332 1.66831055 -7.66796875 1.53515625 C-6.84578857 1.456604 -6.0236084 1.37805176 -5.17651367 1.29711914 C-2.82512578 1.04448955 -2.82512578 1.04448955 0 0 Z " fill="#FCF7EE" transform="translate(411,265)"/>
<path d="M0 0 C0.33 0.66 0.66 1.32 1 2 C-1.2152249 7.96000986 -4.18018162 12.8687271 -9 17 C-9.99 16.67 -10.98 16.34 -12 16 C-11.30132812 15.09636719 -10.60265625 14.19273437 -9.8828125 13.26171875 C-8.96349026 12.07035217 -8.04422226 10.87894373 -7.125 9.6875 C-6.66480469 9.09259766 -6.20460938 8.49769531 -5.73046875 7.88476562 C-3.73752851 5.29971995 -1.81133955 2.71700932 0 0 Z " fill="#A82930" transform="translate(380,215)"/>
<path d="M0 0 C0 0.66 0 1.32 0 2 C-0.66 2.66 -1.32 3.32 -2 4 C-2 5.32 -2 6.64 -2 8 C-3.3125 10.25 -3.3125 10.25 -5 12 C-5.99 12 -6.98 12 -8 12 C-5.6 0 -5.6 0 0 0 Z " fill="#314995" transform="translate(279,378)"/>
<path d="M0 0 C0.33 0 0.66 0 1 0 C1.66 5.61 2.32 11.22 3 17 C0.25213354 13.33617806 -1.93245366 10.06125173 -4 6 C-3.67 5.01 -3.34 4.02 -3 3 C-2.34 3.33 -1.68 3.66 -1 4 C-0.67 2.68 -0.34 1.36 0 0 Z " fill="#AC222B" transform="translate(445,290)"/>
<path d="M0 0 C1.30470605 3.66018209 0.68104523 6.17392628 -0.3125 9.875 C-0.59351563 10.92945313 -0.87453125 11.98390625 -1.1640625 13.0703125 C-2.02293351 16.08037446 -2.93666728 19.05538632 -4 22 C-4.66 21.67 -5.32 21.34 -6 21 C-5.37942343 18.43635601 -4.75370801 15.87415074 -4.125 13.3125 C-3.95097656 12.59126953 -3.77695313 11.87003906 -3.59765625 11.12695312 C-2.64902134 7.27971155 -1.59509159 3.64284431 0 0 Z " fill="#3E5390" transform="translate(253,448)"/>
<path d="M0 0 C0.66 0 1.32 0 2 0 C2 1.98 2 3.96 2 6 C-7.24 6 -16.48 6 -26 6 C-26 5.67 -26 5.34 -26 5 C-17.42 5 -8.84 5 0 5 C-0.33 3.68 -0.66 2.36 -1 1 C-0.67 0.67 -0.34 0.34 0 0 Z " fill="#243C8A" transform="translate(520,401)"/>
<path d="M0 0 C2.38241655 0.95296662 3.75246831 1.64554633 5.23779297 3.77246094 C6.17377581 6.50785731 6.22606432 8.74995431 6.1953125 11.640625 C6.18564453 13.24550781 6.18564453 13.24550781 6.17578125 14.8828125 C6.15902344 15.99398438 6.14226563 17.10515625 6.125 18.25 C6.11597656 19.37664062 6.10695313 20.50328125 6.09765625 21.6640625 C6.07410658 24.44292365 6.0412168 27.2213539 6 30 C5.67 30 5.34 30 5 30 C4.98598145 29.06317383 4.98598145 29.06317383 4.97167969 28.10742188 C4.91751063 25.2375237 4.83395805 22.36917515 4.75 19.5 C4.73582031 18.51773437 4.72164062 17.53546875 4.70703125 16.5234375 C4.48832257 9.96217702 3.36495617 5.65312637 0 0 Z " fill="#2C408B" transform="translate(606,413)"/>
<path d="M0 0 C1.32 0 2.64 0 4 0 C4.3396019 1.87387477 4.67138691 3.74916697 5 5.625 C5.185625 6.66914063 5.37125 7.71328125 5.5625 8.7890625 C5.98715797 11.90574865 6.07545206 14.85930812 6 18 C3.71635001 14.57452501 2.86599293 11.24343863 1.875 7.3125 C1.69324219 6.61060547 1.51148437 5.90871094 1.32421875 5.18554688 C0.87772921 3.45833732 0.4381834 1.72933544 0 0 Z " fill="#2F4687" transform="translate(113,425)"/>
<path d="M0 0 C-0.66 2.31 -1.32 4.62 -2 7 C-4.97 5.02 -7.94 3.04 -11 1 C-7.22656782 -0.88671609 -4.01795109 -1.33931703 0 0 Z " fill="#314B96" transform="translate(505,259)"/>
<path d="M0 0 C3 1 3 1 4.1171875 3.16796875 C5.06612302 6.2121203 5.64026501 9.16172256 6.125 12.3125 C6.29257813 13.38113281 6.46015625 14.44976562 6.6328125 15.55078125 C6.75398438 16.35902344 6.87515625 17.16726563 7 18 C6.34 18 5.68 18 5 18 C4.16320723 15.37605694 3.33043058 12.75095616 2.5 10.125 C2.26152344 9.37863281 2.02304688 8.63226563 1.77734375 7.86328125 C0 2.2265625 0 2.2265625 0 0 Z " fill="#364B8C" transform="translate(106,402)"/>
<path d="M0 0 C0.9075 0.103125 1.815 0.20625 2.75 0.3125 C0.78617993 1.81809539 -1.03263366 3.20381683 -3.25 4.3125 C-5.25153469 7.49140804 -5.7471641 10.62503672 -6.25 14.3125 C-6.91 13.6525 -7.57 12.9925 -8.25 12.3125 C-8.10144515 8.37579639 -7.53081101 5.80131916 -5.5625 2.375 C-3.25 0.3125 -3.25 0.3125 0 0 Z " fill="#374A8C" transform="translate(171.25,377.6875)"/>
<path d="M0 0 C4.38894929 3.26720791 8.75259665 6.54898478 13 10 C11.68 10 10.36 10 9 10 C9 9.34 9 8.68 9 8 C8.21625 8.20625 7.4325 8.4125 6.625 8.625 C5.75875 8.74875 4.8925 8.8725 4 9 C1.3144406 6.3144406 0.93950026 3.62378672 0 0 Z " fill="#AA2229" transform="translate(487,263)"/>
<path d="M0 0 C0.66 0.33 1.32 0.66 2 1 C1.1875 4.4375 1.1875 4.4375 0 8 C-0.99 8.33 -1.98 8.66 -3 9 C-4.70855022 12.00007271 -4.70855022 12.00007271 -6 15 C-6.99 15 -7.98 15 -9 15 C-6.03 10.05 -3.06 5.1 0 0 Z " fill="#E5EFF9" transform="translate(607,185)"/>
<path d="M0 0 C3.30440304 1.65220152 3.88631009 4.88647852 5.1796875 8.2109375 C6.38111555 12.29579287 6.27309594 15.76701299 6 20 C3.78545028 16.67817543 2.95381499 13.83578665 1.875 10 C1.34519531 8.14375 1.34519531 8.14375 0.8046875 6.25 C0 3 0 3 0 0 Z " fill="#344986" transform="translate(119,443)"/>
<path d="M0 0 C5.98511371 0.34302035 10.75117306 0.82307843 16 4 C15.01 4.495 15.01 4.495 14 5 C14 5.66 14 6.32 14 7 C14.66 7.33 15.32 7.66 16 8 C15.34 8.66 14.68 9.32 14 10 C13.54625 9.071875 13.0925 8.14375 12.625 7.1875 C9.71857157 2.70056851 4.95246592 2.07744488 0 1 C0 0.67 0 0.34 0 0 Z " fill="#F6DAD7" transform="translate(510,277)"/>
<path d="M0 0 C2.31 0.66 4.62 1.32 7 2 C7.75241109 5.65456815 8.40049704 9.31733897 9 13 C4.76568424 9.39299028 2.5307901 4.85413839 0 0 Z " fill="#F9E7E3" transform="translate(464,189)"/>
<path d="M0 0 C4.25209792 4.12324647 8.13635705 8.51282966 12 13 C11.01 13 10.02 13 9 13 C8.195625 12.030625 7.39125 11.06125 6.5625 10.0625 C4.35801392 6.919482 4.35801392 6.919482 1.6875 6.125 C1.130625 6.08375 0.57375 6.0425 0 6 C0 4.02 0 2.04 0 0 Z " fill="#3A4D93" transform="translate(709,400)"/>
<path d="M0 0 C0.66 0 1.32 0 2 0 C0.22089072 6.75052102 -1.70438191 13.40620337 -4 20 C-6.16770202 13.49689394 -2.44050505 6.10126262 0 0 Z " fill="#2F4687" transform="translate(175,448)"/>
<path d="M0 0 C0.33 0.66 0.66 1.32 1 2 C2.98 2 4.96 2 7 2 C7 4.64 7 7.28 7 10 C3.36905358 7.35039045 1.10148204 4.98175544 -1 1 C-0.67 0.67 -0.34 0.34 0 0 Z " fill="#ECF6FC" transform="translate(724,415)"/>
<path d="M0 0 C0.99 0.33 1.98 0.66 3 1 C1.50923566 4.2826932 -0.38620321 6.93077441 -2.625 9.75 C-3.57246094 10.94882812 -3.57246094 10.94882812 -4.5390625 12.171875 C-5.02117188 12.77515625 -5.50328125 13.3784375 -6 14 C-6.66 13.67 -7.32 13.34 -8 13 C-7 11 -7 11 -5 8 C-4.67 7.34 -4.34 6.68 -4 6 C-3.01 6 -2.02 6 -1 6 C-0.67 4.02 -0.34 2.04 0 0 Z " fill="#A7232E" transform="translate(524,325)"/>
<path d="M0 0 C1.65 0 3.3 0 5 0 C5 0.66 5 1.32 5 2 C2.89748139 2.67184618 0.79292237 3.33730968 -1.3125 4 C-3.07013672 4.556875 -3.07013672 4.556875 -4.86328125 5.125 C-8 6 -8 6 -11 6 C-11 5.34 -11 4.68 -11 4 C-10.01 4 -9.02 4 -8 4 C-8 3.34 -8 2.68 -8 2 C-5.36 2 -2.72 2 0 2 C0 1.34 0 0.68 0 0 Z " fill="#A72B34" transform="translate(416,261)"/>
<path d="M0 0 C0.66 0 1.32 0 2 0 C1.36610765 3.49844386 -0.05177694 5.84086876 -2.0625 8.75 C-2.61035156 9.54921875 -3.15820312 10.3484375 -3.72265625 11.171875 C-4.14417969 11.77515625 -4.56570313 12.3784375 -5 13 C-6 10 -6 10 -6 6 C-3.5625 3.875 -3.5625 3.875 -1 2 C-0.67 1.34 -0.34 0.68 0 0 Z " fill="#2D468B" transform="translate(575,233)"/>
<path d="M0 0 C0.68707555 2.49064888 1 4.37886292 1 7 C-0.65 7.33 -2.3 7.66 -4 8 C-4 9.32 -4 10.64 -4 12 C-5.98 12.99 -5.98 12.99 -8 14 C-6.6744419 10.37723685 -5.05653045 7.36494652 -2.875 4.1875 C-2.33617187 3.39730469 -1.79734375 2.60710937 -1.2421875 1.79296875 C-0.83226562 1.20128906 -0.42234375 0.60960937 0 0 Z " fill="#E3EEF8" transform="translate(418,312)"/>
<path d="M0 0 C2.64752004 2.57784846 4.94432065 4.91648098 7 8 C6.34 8.66 5.68 9.32 5 10 C5 9.34 5 8.68 5 8 C4.34 8 3.68 8 3 8 C3 7.34 3 6.68 3 6 C1.68 5.67 0.36 5.34 -1 5 C-1.33 3.68 -1.66 2.36 -2 1 C-1.34 0.67 -0.68 0.34 0 0 Z " fill="#374F96" transform="translate(701,390)"/>
<path d="M0 0 C4.71390331 0.28879645 8.65796483 0.56622414 12 4.13671875 C13.46324605 6.37731427 14.79182292 8.61311357 16 11 C15.01 11 14.02 11 13 11 C12.896875 10.360625 12.79375 9.72125 12.6875 9.0625 C12.460625 8.381875 12.23375 7.70125 12 7 C11.01 6.67 10.02 6.34 9 6 C8.566875 5.525625 8.13375 5.05125 7.6875 4.5625 C5.38984098 2.43503794 2.97249204 1.85871992 0 1 C0 0.67 0 0.34 0 0 Z " fill="#9C2A2F" transform="translate(510,278)"/>
<path d="M0 0 C0.65355469 0.58007812 0.65355469 0.58007812 1.3203125 1.171875 C5.05744652 4.43984501 8.8076016 7.34140589 13 10 C10 11 10 11 6.5 9.875 C2.81120455 7.89885958 1.61112869 6.79089103 0 3 C0 2.01 0 1.02 0 0 Z " fill="#F8D9DE" transform="translate(364,253)"/>
<path d="M0 0 C0.33 0.66 0.66 1.32 1 2 C0.67 2.99 0.34 3.98 0 5 C0.66 5.33 1.32 5.66 2 6 C0.625 7.5 0.625 7.5 -1 9 C-1.66 9 -2.32 9 -3 9 C-3.33 9.66 -3.66 10.32 -4 11 C-4.99 10.34 -5.98 9.68 -7 9 C-4.69 6.03 -2.38 3.06 0 0 Z " fill="#E8EFF5" transform="translate(359,232)"/>
<path d="M0 0 C2.97 0.495 2.97 0.495 6 1 C5.95875 1.7425 5.9175 2.485 5.875 3.25 C5.81279555 5.98519287 5.81279555 5.98519287 7.0625 8.125 C7.371875 8.74375 7.68125 9.3625 8 10 C7.67 10.99 7.34 11.98 7 13 C5.82786955 11.21190303 4.66244474 9.41940875 3.5 7.625 C2.8503125 6.62726563 2.200625 5.62953125 1.53125 4.6015625 C0 2 0 2 0 0 Z " fill="#364A87" transform="translate(249,174)"/>
<path d="M0 0 C0.33 0 0.66 0 1 0 C2.42705634 5.30723432 3.4002792 9.53891111 2 15 C0.16389594 12.2458439 -0.51804278 10.63695953 -1.25 7.5 C-1.44078125 6.7265625 -1.6315625 5.953125 -1.828125 5.15625 C-2 3 -2 3 0 0 Z " fill="#2E4392" transform="translate(323,466)"/>
<path d="M0 0 C3 2 3 2 4 5 C4.06802967 6.72795352 4.08495645 8.45835365 4.0625 10.1875 C4.05347656 11.08855469 4.04445313 11.98960937 4.03515625 12.91796875 C4.02355469 13.60503906 4.01195312 14.29210937 4 15 C2.25674553 12.3851183 1.58412043 10.9946567 0.875 8.0625 C0.70742188 7.39347656 0.53984375 6.72445313 0.3671875 6.03515625 C0 4 0 4 0 0 Z " fill="#31478C" transform="translate(304,406)"/>
<path d="M0 0 C1.60226148 4.00565371 0.47694566 7.08609399 -1 11 C-1.99 11.33 -2.98 11.66 -4 12 C-3.71640113 10.5608866 -3.42278601 9.12374482 -3.125 7.6875 C-2.96257813 6.88699219 -2.80015625 6.08648437 -2.6328125 5.26171875 C-2 3 -2 3 0 0 Z " fill="#395091" transform="translate(539,391)"/>
<path d="M0 0 C1.32 0.33 2.64 0.66 4 1 C4 1.66 4 2.32 4 3 C4.66 3 5.32 3 6 3 C6.103125 3.639375 6.20625 4.27875 6.3125 4.9375 C6.539375 5.618125 6.76625 6.29875 7 7 C7.99 7.33 8.98 7.66 10 8 C10.33 8.99 10.66 9.98 11 11 C10.01 11 9.02 11 8 11 C5.95703125 8.84765625 5.95703125 8.84765625 3.8125 6.0625 C3.09707031 5.14597656 2.38164063 4.22945313 1.64453125 3.28515625 C0 1 0 1 0 0 Z " fill="#E7F0F9" transform="translate(709,399)"/>
<path d="M0 0 C1.0528418 0.01353516 1.0528418 0.01353516 2.12695312 0.02734375 C3.85561525 0.05086296 5.58410145 0.08673287 7.3125 0.125 C7.9725 1.445 8.6325 2.765 9.3125 4.125 C8.24 3.795 7.1675 3.465 6.0625 3.125 C0.52089078 1.70969692 -5.00852129 1.95463064 -10.6875 2.125 C-7.00662647 -0.32891569 -4.24394412 -0.10302759 0 0 Z " fill="#FCE5E5" transform="translate(435.6875,163.875)"/>
<path d="M0 0 C0.33 0 0.66 0 1 0 C0.67 4.62 0.34 9.24 0 14 C-0.99 14.33 -1.98 14.66 -3 15 C-2.44854729 9.76119922 -1.57077907 5.02649303 0 0 Z " fill="#3D4F96" transform="translate(216,414)"/>
<path d="M0 0 C1.61840229 6.47360914 1.33688899 10.16044426 -2 16 C-2.66 16 -3.32 16 -4 16 C-2.68 10.72 -1.36 5.44 0 0 Z " fill="#D7E2F6" transform="translate(300,406)"/>
<path d="M0 0 C0.66 0 1.32 0 2 0 C2.268125 0.969375 2.53625 1.93875 2.8125 2.9375 C3.204375 3.948125 3.59625 4.95875 4 6 C4.99 6.33 5.98 6.66 7 7 C7.33 7.99 7.66 8.98 8 10 C7.01 10 6.02 10 5 10 C3.39453125 8.25 3.39453125 8.25 1.8125 6 C1.28269531 5.2575 0.75289062 4.515 0.20703125 3.75 C-0.19128906 3.1725 -0.58960938 2.595 -1 2 C-0.67 1.34 -0.34 0.68 0 0 Z " fill="#364A91" transform="translate(714,460)"/>
<path d="M0 0 C4.83256305 0.41421969 6.82679218 2.46413986 10 6 C9.01 6 8.02 6 7 6 C7 5.34 7 4.68 7 4 C4.36 4 1.72 4 -1 4 C-0.67 2.68 -0.34 1.36 0 0 Z " fill="#304A8B" transform="translate(686,378)"/>
<path d="M0 0 C0.99 0.66 1.98 1.32 3 2 C2.690625 2.598125 2.38125 3.19625 2.0625 3.8125 C0.89790296 6.08956772 0.89790296 6.08956772 0 9 C-0.598125 8.835 -1.19625 8.67 -1.8125 8.5 C-4.11344336 7.8885876 -4.11344336 7.8885876 -7 8 C-6.21625 7.4225 -5.4325 6.845 -4.625 6.25 C-2.19952756 4.17102363 -1.14305583 2.90959667 0 0 Z " fill="#E9F3FB" transform="translate(167,478)"/>
<path d="M0 0 C1.62433191 2.50076998 2.07333427 3.58982529 1.5390625 6.578125 C1.23742187 7.45984375 0.93578125 8.3415625 0.625 9.25 C0.32851562 10.14203125 0.03203125 11.0340625 -0.2734375 11.953125 C-0.51320312 12.62859375 -0.75296875 13.3040625 -1 14 C-3 10.25 -3 10.25 -3 8 C-2.34 8 -1.68 8 -1 8 C-1.20625 7.05125 -1.4125 6.1025 -1.625 5.125 C-1.74875 4.09375 -1.8725 3.0625 -2 2 C-1.34 1.34 -0.68 0.68 0 0 Z " fill="#384D96" transform="translate(250,412)"/>
<path d="M0 0 C2.375 1.3125 2.375 1.3125 3.1875 3.4375 C3.249375 4.05625 3.31125 4.675 3.375 5.3125 C2.385 5.6425 1.395 5.9725 0.375 6.3125 C-1.625 4.3125 -3.625 2.3125 -5.625 0.3125 C-2.625 -0.6875 -2.625 -0.6875 0 0 Z " fill="#E6EFF8" transform="translate(329.625,376.6875)"/>
<path d="M0 0 C0 0.66 0 1.32 0 2 C-3.65283747 4.43522498 -6.74968452 4.55474367 -11 4 C-13.25390625 2.984375 -13.25390625 2.984375 -15 2 C-14.22914063 1.93941406 -13.45828125 1.87882812 -12.6640625 1.81640625 C-11.15972656 1.69072266 -11.15972656 1.69072266 -9.625 1.5625 C-8.62726563 1.48128906 -7.62953125 1.40007812 -6.6015625 1.31640625 C-4.12756995 1.01551526 -2.44698344 0 0 0 Z " fill="#CDDBEA" transform="translate(389,348)"/>
<path d="M0 0 C0.598125 0.165 1.19625 0.33 1.8125 0.5 C4.11344336 1.1114124 4.11344336 1.1114124 7 1 C6.938125 1.78375 6.87625 2.5675 6.8125 3.375 C6.874375 4.24125 6.93625 5.1075 7 6 C7.99 6.66 8.98 7.32 10 8 C10 8.66 10 9.32 10 10 C9.34 10 8.68 10 8 10 C8 9.34 8 8.68 8 8 C7.01 7.67 6.02 7.34 5 7 C3.61328125 5.37109375 3.61328125 5.37109375 2.3125 3.4375 C1.87550781 2.79683594 1.43851562 2.15617187 0.98828125 1.49609375 C0.49908203 0.75552734 0.49908203 0.75552734 0 0 Z " fill="#AD2B33" transform="translate(464,335)"/>
<path d="M0 0 C1.1796875 1.671875 1.1796875 1.671875 2 4 C0.8828125 6.578125 0.8828125 6.578125 -0.875 9.25 C-1.73738281 10.58804688 -1.73738281 10.58804688 -2.6171875 11.953125 C-3.07351563 12.62859375 -3.52984375 13.3040625 -4 14 C-5.09658936 10.71023192 -4.79953138 9.28696233 -4 6 C-2.68 5.67 -1.36 5.34 0 5 C0 3.35 0 1.7 0 0 Z " fill="#A82E34" transform="translate(480,215)"/>
<path d="M0 0 C1.66666667 1.66666667 3.33333333 3.33333333 5 5 C5.8971875 5.8353125 5.8971875 5.8353125 6.8125 6.6875 C8 8 8 8 8 10 C7.01 10 6.02 10 5 10 C4.34 9.01 3.68 8.02 3 7 C2.34 6.67 1.68 6.34 1 6 C0.375 2.9375 0.375 2.9375 0 0 Z " fill="#DCE9F7" transform="translate(719,470)"/>
<path d="M0 0 C0.99 0 1.98 0 3 0 C3.2475 0.969375 3.495 1.93875 3.75 2.9375 C4.1625 3.948125 4.575 4.95875 5 6 C7.03243548 6.96877057 7.03243548 6.96877057 9 7 C8.01 7.99 7.02 8.98 6 10 C3.25722422 6.80009492 1.3697164 3.99500618 0 0 Z " fill="#374C8C" transform="translate(537,467)"/>
<path d="M0 0 C1.02328619 3.19411474 0.96256253 5.4215884 0.25 8.6875 C0.09015625 9.47511719 -0.0696875 10.26273437 -0.234375 11.07421875 C-0.61335938 12.02748047 -0.61335938 12.02748047 -1 13 C-1.99 13.33 -2.98 13.66 -4 14 C-3.52372025 12.04096255 -3.04388577 10.08278903 -2.5625 8.125 C-2.29566406 7.03445313 -2.02882813 5.94390625 -1.75390625 4.8203125 C-1 2 -1 2 0 0 Z " fill="#425492" transform="translate(264,412)"/>
<path d="M0 0 C2.1519437 3.22791555 2.20086443 4.28400809 2 8 C1.01 8.33 0.02 8.66 -1 9 C-2.35439668 6.29120665 -2.06501451 3.99066732 -2 1 C-1.34 0.67 -0.68 0.34 0 0 Z " fill="#354B8F" transform="translate(140,399)"/>
<path d="M0 0 C2.95749791 3.46741134 5.07848152 6.86873527 7 11 C5.68 10.34 4.36 9.68 3 9 C3 8.34 3 7.68 3 7 C2.01 7 1.02 7 0 7 C0 4.69 0 2.38 0 0 Z " fill="#DDEAF6" transform="translate(309,269)"/>
<path d="M0 0 C0.99 0.33 1.98 0.66 3 1 C4.1875 4.5625 4.1875 4.5625 5 8 C4.01 8.495 4.01 8.495 3 9 C2.54625 8.195625 2.0925 7.39125 1.625 6.5625 C0.25274335 3.91143428 0.25274335 3.91143428 -2 3 C-2 2.34 -2 1.68 -2 1 C-1.34 0.67 -0.68 0.34 0 0 Z " fill="#AE1C26" transform="translate(423,261)"/>
<path d="M0 0 C0.66 0 1.32 0 2 0 C2.75 2.1875 2.75 2.1875 3 5 C1.0625 7.8125 1.0625 7.8125 -1 10 C-1.66 9.67 -2.32 9.34 -3 9 C-2.690625 8.443125 -2.38125 7.88625 -2.0625 7.3125 C-0.94238179 4.87459567 -0.43962636 2.63775814 0 0 Z " fill="#ECEEFA" transform="translate(363,223)"/>
<path d="M0 0 C0.33 0.66 0.66 1.32 1 2 C1.66 2.33 2.32 2.66 3 3 C2.01 3.33 1.02 3.66 0 4 C-1.22445284 5.62948064 -1.22445284 5.62948064 -2.1875 7.5625 C-2.785625 8.696875 -3.38375 9.83125 -4 11 C-4.99 10.67 -5.98 10.34 -7 10 C-3.535 5.05 -3.535 5.05 0 0 Z " fill="#AA2C37" transform="translate(395,194)"/>
<path d="M0 0 C4 0 4 0 6 1 C5.67 1.99 5.34 2.98 5 4 C4.2575 3.95875 3.515 3.9175 2.75 3.875 C-0.08758952 4.00398134 -1.58773938 4.57051222 -4 6 C-2.25 3 -2.25 3 0 0 Z " fill="#EAF2F6" transform="translate(616,172)"/>
<path d="M0 0 C0.66 0 1.32 0 2 0 C4.42857143 7.42857143 4.42857143 7.42857143 3 11 C0.29417212 7.16674383 -0.32613618 4.67461851 0 0 Z " fill="#2C4284" transform="translate(194,472)"/>
<path d="M0 0 C0.66 0.33 1.32 0.66 2 1 C-0.13206212 5.67239145 -2.02502456 9.59287819 -6 13 C-6 11.68 -6 10.36 -6 9 C-5.34 8.67 -4.68 8.34 -4 8 C-2.87775145 6.11986894 -2.87775145 6.11986894 -1.875 3.9375 C-1.34519531 2.83728516 -1.34519531 2.83728516 -0.8046875 1.71484375 C-0.53914062 1.14894531 -0.27359375 0.58304687 0 0 Z " fill="#384D8B" transform="translate(640,464)"/>
<path d="M0 0 C0.66 0.66 1.32 1.32 2 2 C0.35 4.64 -1.3 7.28 -3 10 C-3.66 9.67 -4.32 9.34 -5 9 C-5 8.34 -5 7.68 -5 7 C-4.34 7 -3.68 7 -3 7 C-3.33 6.01 -3.66 5.02 -4 4 C-3.34 4 -2.68 4 -2 4 C-1.34 2.68 -0.68 1.36 0 0 Z " fill="#374C91" transform="translate(583,221)"/>
<path d="M0 0 C0.33 0.99 0.66 1.98 1 3 C1.66 3 2.32 3 3 3 C3 4.65 3 6.3 3 8 C2.34 7.34 1.68 6.68 1 6 C-0.98 6.66 -2.96 7.32 -5 8 C-3.35 5.36 -1.7 2.72 0 0 Z " fill="#AC262A" transform="translate(387,205)"/>
<path d="M0 0 C1.75 0.0625 1.75 0.0625 4 1 C5.59501537 3.24164322 6.74543018 5.53566643 8 8 C7.01 8.495 7.01 8.495 6 9 C5.566875 8.175 5.13375 7.35 4.6875 6.5 C4.130625 5.675 3.57375 4.85 3 4 C2.01 4 1.02 4 0 4 C0 2.68 0 1.36 0 0 Z " fill="#A61C26" transform="translate(459,186)"/>
<path d="M0 0 C0.66 0.33 1.32 0.66 2 1 C-0.31 4.63 -2.62 8.26 -5 12 C-5.33 10.68 -5.66 9.36 -6 8 C-4.625 6.4375 -4.625 6.4375 -3 5 C-2.67 4.01 -2.34 3.02 -2 2 C-1.34 2 -0.68 2 0 2 C0 1.34 0 0.68 0 0 Z " fill="#364B8B" transform="translate(609,179)"/>
<path d="M0 0 C0.99 0.66 1.98 1.32 3 2 C2.01 2 1.02 2 0 2 C-0.12117188 2.63808594 -0.24234375 3.27617187 -0.3671875 3.93359375 C-0.53476562 4.75988281 -0.70234375 5.58617187 -0.875 6.4375 C-1.03742188 7.26121094 -1.19984375 8.08492188 -1.3671875 8.93359375 C-1.57601563 9.61550781 -1.78484375 10.29742187 -2 11 C-2.99 11.495 -2.99 11.495 -4 12 C-3.9129995 10.37399059 -3.8048219 8.74910322 -3.6875 7.125 C-3.62949219 6.22007812 -3.57148438 5.31515625 -3.51171875 4.3828125 C-3 2 -3 2 0 0 Z " fill="#344B88" transform="translate(285,459)"/>
<path d="M0 0 C0.33 0.99 0.66 1.98 1 3 C-1.3125 5.0625 -1.3125 5.0625 -4 7 C-4.99 6.67 -5.98 6.34 -7 6 C-2.25 1.125 -2.25 1.125 0 0 Z " fill="#314B92" transform="translate(550,381)"/>
<path d="M0 0 C0.33 0.99 0.66 1.98 1 3 C-1.06430358 5.94900512 -3.3929227 8.52327657 -6 11 C-6.99 10.67 -7.98 10.34 -9 10 C-8.27683594 9.29423828 -8.27683594 9.29423828 -7.5390625 8.57421875 C-6.90742187 7.95160156 -6.27578125 7.32898438 -5.625 6.6875 C-4.68527344 5.76517578 -4.68527344 5.76517578 -3.7265625 4.82421875 C-1.81913393 2.91187472 -1.81913393 2.91187472 0 0 Z " fill="#FDE6E5" transform="translate(522,333)"/>
<path d="M0 0 C2.24107496 2.88138209 4.33168894 5.74679343 6 9 C5.67 9.99 5.34 10.98 5 12 C-0.27293578 5.04931193 -0.27293578 5.04931193 0 0 Z " fill="#F9DCD9" transform="translate(445,303)"/>
<path d="M0 0 C1.25541557 3.76624671 0.37061958 5.37188934 -1 9 C-0.34 9.33 0.32 9.66 1 10 C-0.65 10 -2.3 10 -4 10 C-3.43454163 6.04179141 -2.19097652 3.3340947 0 0 Z " fill="#344C8F" transform="translate(501,198)"/>
<path d="M0 0 C0.33 0.66 0.66 1.32 1 2 C-1.45614035 7 -1.45614035 7 -3 9 C-3.99 9.33 -4.98 9.66 -6 10 C-6.33 10.66 -6.66 11.32 -7 12 C-7.66 11.67 -8.32 11.34 -9 11 C-6.03 7.37 -3.06 3.74 0 0 Z " fill="#475A94" transform="translate(512,184)"/>
<path d="M0 0 C2.21399303 3.79541663 3.00980198 7.75629421 4 12 C3.01 12.495 3.01 12.495 2 13 C-1.62870159 4.738041 -1.62870159 4.738041 0 0 Z " fill="#405796" transform="translate(349,444)"/>
<path d="M0 0 C0.99 0.66 1.98 1.32 3 2 C0.53058944 4.59937954 -2.18060883 6.79020692 -5 9 C-4.29977385 4.56523436 -3.14753592 3.14753592 0 0 Z " fill="#324891" transform="translate(574,408)"/>
<path d="M0 0 C1.25127906 3.54667178 0.72285053 5.72253438 -0.4375 9.25 C-0.72496094 10.14203125 -1.01242187 11.0340625 -1.30859375 11.953125 C-1.53675781 12.62859375 -1.76492188 13.3040625 -2 14 C-2.33 14 -2.66 14 -3 14 C-3.29341888 8.32723489 -3.00559652 5.00932754 0 0 Z " fill="#E3EEFA" transform="translate(271,384)"/>
<path d="M0 0 C1.65 1.32 3.3 2.64 5 4 C4.34 4.66 3.68 5.32 3 6 C0.375 5.625 0.375 5.625 -2 5 C-1.125 1.125 -1.125 1.125 0 0 Z " fill="#A91D21" transform="translate(512,336)"/>
<path d="M0 0 C0.33 0.99 0.66 1.98 1 3 C-1.33347006 7.23481604 -2.59591211 8.79795605 -7 11 C-4.69 7.37 -2.38 3.74 0 0 Z " fill="#F9D6D3" transform="translate(532,319)"/>
<path d="M0 0 C3 1 3 1 4.1875 3.0625 C4.455625 3.701875 4.72375 4.34125 5 5 C4 6 4 6 1.4375 6.0625 C0.2309375 6.0315625 0.2309375 6.0315625 -1 6 C-1.042721 4.33388095 -1.04063832 2.66617115 -1 1 C-0.67 0.67 -0.34 0.34 0 0 Z " fill="#AD140D" transform="translate(484,262)"/>
<path d="M0 0 C-1.07401108 2.91517292 -1.77810176 4.77810176 -4 7 C-4.66 6.34 -5.32 5.68 -6 5 C-5.8125 2.9375 -5.8125 2.9375 -5 1 C-2 0 -2 0 0 0 Z " fill="#EEEEF9" transform="translate(495,209)"/>
<path d="M0 0 C0.33 0 0.66 0 1 0 C1.125 7.75 1.125 7.75 0 10 C-0.66 10 -1.32 10 -2 10 C-1.85950482 8.52031676 -1.71245174 7.04125484 -1.5625 5.5625 C-1.48128906 4.73878906 -1.40007812 3.91507812 -1.31640625 3.06640625 C-1 1 -1 1 0 0 Z " fill="#344B8B" transform="translate(259,429)"/>
<path d="M0 0 C6.0546875 0.390625 6.0546875 0.390625 8 1 C9.2578125 3.046875 9.2578125 3.046875 10 5 C8.51800098 4.55090939 7.03944764 4.09043436 5.5625 3.625 C4.73878906 3.36976563 3.91507812 3.11453125 3.06640625 2.8515625 C1 2 1 2 0 0 Z " fill="#A0282F" transform="translate(477,347)"/>
<path d="M0 0 C1.485 0.99 1.485 0.99 3 2 C2.44855089 6.08072342 2.08669204 6.91330796 -1 10 C-0.67 6.7 -0.34 3.4 0 0 Z " fill="#314586" transform="translate(416,306)"/>
<path d="M0 0 C1.875 0.3125 1.875 0.3125 4 1 C6.1519437 4.22791555 6.20086443 5.28400809 6 9 C3.59927045 6.11912454 1.52708963 3.43595166 0 0 Z " fill="#344A93" transform="translate(310,270)"/>
<path d="M0 0 C1.98 0.99 3.96 1.98 6 3 C5.67 3.66 5.34 4.32 5 5 C3.02 5 1.04 5 -1 5 C-1 2 -1 2 0 0 Z " fill="#2E4797" transform="translate(366,265)"/>
<path d="M0 0 C0.99 0 1.98 0 3 0 C2.34 1.32 1.68 2.64 1 4 C-1.64 4 -4.28 4 -7 4 C-6.67 3.34 -6.34 2.68 -6 2 C-4.02 2 -2.04 2 0 2 C0 1.34 0 0.68 0 0 Z " fill="#AA1612" transform="translate(429,170)"/>
<path d="M0 0 C0.928125 1.175625 0.928125 1.175625 1.875 2.375 C3.89858661 4.96837647 3.89858661 4.96837647 6 7 C5.01 7.33 4.02 7.66 3 8 C2.67 7.67 2.34 7.34 2 7 C1.34 7.66 0.68 8.32 0 9 C0 6 0 3 0 0 Z " fill="#DCE1F1" transform="translate(194,478)"/>
<path d="M0 0 C-0.33 0.66 -0.66 1.32 -1 2 C-4.375 2.75 -4.375 2.75 -8 3 C-8.99 2.34 -9.98 1.68 -11 1 C-3.375 -1.125 -3.375 -1.125 0 0 Z " fill="#E4EEF9" transform="translate(627,483)"/>
<path d="M0 0 C2.12038635 2.61514317 4.13091744 5.19637616 6 8 C5.01 8.33 4.02 8.66 3 9 C1.5 7.875 1.5 7.875 0 6 C-0.1875 2.8125 -0.1875 2.8125 0 0 Z " fill="#E9F1FA" transform="translate(538,470)"/>
<path d="M0 0 C0.66 0 1.32 0 2 0 C2.66 2.97 3.32 5.94 4 9 C3.34 9 2.68 9 2 9 C2 8.01 2 7.02 2 6 C1.34 6 0.68 6 0 6 C0 4.02 0 2.04 0 0 Z " fill="#3F5397" transform="translate(357,474)"/>
<path d="M0 0 C1.18771723 3.42943519 0.80226223 5.37784675 -0.4375 8.75 C-0.86869141 9.94882812 -0.86869141 9.94882812 -1.30859375 11.171875 C-1.65083984 12.07679688 -1.65083984 12.07679688 -2 13 C-2.33 13 -2.66 13 -3 13 C-3.38281159 7.76824163 -2.21854707 4.62197306 0 0 Z " fill="#2C4586" transform="translate(243,438)"/>
<path d="M0 0 C2.00293347 3.00440021 2.49271626 4.70993945 3.125 8.1875 C3.37636719 9.53908203 3.37636719 9.53908203 3.6328125 10.91796875 C3.75398438 11.60503906 3.87515625 12.29210937 4 13 C3.34 13 2.68 13 2 13 C1.66127487 11.58461283 1.32925376 10.16762037 1 8.75 C0.814375 7.96109375 0.62875 7.1721875 0.4375 6.359375 C0 4 0 4 0 0 Z " fill="#4A5CA0" transform="translate(342,421)"/>
<path d="M0 0 C0.33 0 0.66 0 1 0 C1 2.64 1 5.28 1 8 C0.34 8 -0.32 8 -1 8 C-1.33 8.99 -1.66 9.98 -2 11 C-1.85957123 9.35369672 -1.71250671 7.70795821 -1.5625 6.0625 C-1.48128906 5.14597656 -1.40007812 4.22945313 -1.31640625 3.28515625 C-1 1 -1 1 0 0 Z " fill="#2F4789" transform="translate(267,403)"/>
<path d="M0 0 C0.66 0.66 1.32 1.32 2 2 C1.01 5.3 0.02 8.6 -1 12 C-1.66 12 -2.32 12 -3 12 C-2.14285714 3.42857143 -2.14285714 3.42857143 0 0 Z " fill="#2F438E" transform="translate(259,384)"/>
<path d="M0 0 C2.26274788 0.35355436 3.95088852 0.97544426 6 2 C6 2.66 6 3.32 6 4 C6.99 4.33 7.98 4.66 9 5 C5.0507432 4.44894091 1.65079826 3.61064629 -2 2 C-1.34 1.34 -0.68 0.68 0 0 Z " fill="#405099" transform="translate(365,345)"/>
<path d="M0 0 C0.99 0.33 1.98 0.66 3 1 C2.34 2.32 1.68 3.64 1 5 C2.32 5.66 3.64 6.32 5 7 C3.33388095 7.042721 1.66617115 7.04063832 0 7 C-1 6 -1 6 -1.125 3.5 C-1 1 -1 1 0 0 Z " fill="#AB1920" transform="translate(475,340)"/>
<path d="M0 0 C0.66 0.66 1.32 1.32 2 2 C-1.96 3.98 -1.96 3.98 -6 6 C-6.99 5.34 -7.98 4.68 -9 4 C-6.03 2.68 -3.06 1.36 0 0 Z " fill="#E4F0F9" transform="translate(548,267)"/>
<path d="M0 0 C2.66735273 2.48952921 4.55746343 4.63408134 6 8 C3.13275314 7.42655063 2.1385485 7.1385485 0 5 C-0.125 2.375 -0.125 2.375 0 0 Z " fill="#E1EDF9" transform="translate(281,226)"/>
<path d="M0 0 C0.66 0.66 1.32 1.32 2 2 C0.68 3.65 -0.64 5.3 -2 7 C-2.66 5.68 -3.32 4.36 -4 3 C-2 1 -2 1 0 0 Z " fill="#EAEDF5" transform="translate(502,193)"/>
<path d="M0 0 C0 0.66 0 1.32 0 2 C-0.99 2 -1.98 2 -3 2 C-2.67 2.99 -2.34 3.98 -2 5 C-3.98 5.66 -5.96 6.32 -8 7 C-6.47663111 3.31852519 -4.31953005 0 0 0 Z " fill="#AC222B" transform="translate(410,179)"/>
<path d="M0 0 C2.475 0.495 2.475 0.495 5 1 C5 2.32 5 3.64 5 5 C5.99 5.33 6.98 5.66 8 6 C7.34 6.66 6.68 7.32 6 8 C4.02 5.36 2.04 2.72 0 0 Z " fill="#3A508E" transform="translate(723,474)"/>
<path d="M0 0 C0.66 0 1.32 0 2 0 C1.01 3.96 0.02 7.92 -1 12 C-1.66 10.68 -2.32 9.36 -3 8 C-2.34 8 -1.68 8 -1 8 C-1.020625 6.865625 -1.04125 5.73125 -1.0625 4.5625 C-1 1 -1 1 0 0 Z " fill="#E4F3FB" transform="translate(244,471)"/>
<path d="M0 0 C0.99 0.33 1.98 0.66 3 1 C3.33 2.65 3.66 4.3 4 6 C2.35 5.67 0.7 5.34 -1 5 C-0.67 3.35 -0.34 1.7 0 0 Z " fill="#E9F1F3" transform="translate(248,426)"/>
<path d="M0 0 C0.66 0.33 1.32 0.66 2 1 C0.515 6.445 0.515 6.445 -1 12 C-1.33 12 -1.66 12 -2 12 C-2.28571429 3.42857143 -2.28571429 3.42857143 0 0 Z " fill="#E5F0FC" transform="translate(221,392)"/>
<path d="M0 0 C1.65 1.65 3.3 3.3 5 5 C3.35 5.33 1.7 5.66 0 6 C-0.38218767 4.34385343 -0.71395102 2.67542976 -1 1 C-0.67 0.67 -0.34 0.34 0 0 Z " fill="#2D4288" transform="translate(633,385)"/>
<path d="M0 0 C-0.99 1.485 -0.99 1.485 -2 3 C-4.97 2.67 -7.94 2.34 -11 2 C-11 1.67 -11 1.34 -11 1 C-9.5437328 0.63743142 -8.08488815 0.28520207 -6.625 -0.0625 C-5.40683594 -0.35833984 -5.40683594 -0.35833984 -4.1640625 -0.66015625 C-2 -1 -2 -1 0 0 Z " fill="#FCE0DD" transform="translate(413,266)"/>
<path d="M0 0 C1.2065625 0.0309375 1.2065625 0.0309375 2.4375 0.0625 C-2.1875 4.9375 -2.1875 4.9375 -5.5625 6.0625 C-3.26136364 0.07954545 -3.26136364 0.07954545 0 0 Z " fill="#3C4F90" transform="translate(552.5625,261.9375)"/>
<path d="M0 0 C0.66 0 1.32 0 2 0 C2.33 0.66 2.66 1.32 3 2 C4.97888961 2.72693904 6.97954558 3.39816251 9 4 C8.67 4.66 8.34 5.32 8 6 C4.22454612 4.90931332 1.52956528 4.0916909 -1 1 C-0.67 0.67 -0.34 0.34 0 0 Z " fill="#A73034" transform="translate(373,259)"/>
<path d="M0 0 C0.66 0.99 1.32 1.98 2 3 C0.68 4.32 -0.64 5.64 -2 7 C-2.66 5.35 -3.32 3.7 -4 2 C-2.68 1.34 -1.36 0.68 0 0 Z " fill="#324894" transform="translate(261,185)"/>
<path d="M0 0 C1.65 0 3.3 0 5 0 C4.67 1.32 4.34 2.64 4 4 C3.34 4 2.68 4 2 4 C1.67 4.66 1.34 5.32 1 6 C0.01 5.01 -0.98 4.02 -2 3 C-1.34 2.67 -0.68 2.34 0 2 C0 1.34 0 0.68 0 0 Z " fill="#EDF2F2" transform="translate(334,176)"/>
<path d="M0 0 C0.33 0 0.66 0 1 0 C1.25 3.25 1.25 3.25 1 7 C-0.32 8.32 -1.64 9.64 -3 11 C-2.01 7.37 -1.02 3.74 0 0 Z " fill="#D5E4F2" transform="translate(284,464)"/>
<path d="M0 0 C1.32 0 2.64 0 4 0 C4 1.98 4 3.96 4 6 C2.35 4.35 0.7 2.7 -1 1 C-0.67 0.67 -0.34 0.34 0 0 Z " fill="#2D428E" transform="translate(706,451)"/>
<path d="M0 0 C2.08954032 4.17908064 2.16552619 4.80410573 1 9 C0.01 9 -0.98 9 -2 9 C-1.34 6.03 -0.68 3.06 0 0 Z " fill="#DCE7F1" transform="translate(262,379)"/>
<path d="M0 0 C0.33 0.99 0.66 1.98 1 3 C0.01 4.485 0.01 4.485 -1 6 C-2.32 6 -3.64 6 -5 6 C-5.33 5.01 -5.66 4.02 -6 3 C-5.195625 2.87625 -4.39125 2.7525 -3.5625 2.625 C-2.716875 2.41875 -1.87125 2.2125 -1 2 C-0.67 1.34 -0.34 0.68 0 0 Z " fill="#2F4AA1" transform="translate(134,378)"/>
<path d="M0 0 C3.82097239 0.53069061 6.06171403 1.49701566 9 4 C6.03 3.67 3.06 3.34 0 3 C0 2.01 0 1.02 0 0 Z " fill="#3D5394" transform="translate(621,379)"/>
<path d="M0 0 C0.66 0.66 1.32 1.32 2 2 C0.37660195 3.70884005 -1.29319053 5.37446717 -3 7 C-3.66 7 -4.32 7 -5 7 C-4.34 5.35 -3.68 3.7 -3 2 C-2.01 2 -1.02 2 0 2 C0 1.34 0 0.68 0 0 Z " fill="#394B8F" transform="translate(398,338)"/>
<path d="M0 0 C2.475 0.495 2.475 0.495 5 1 C4.67 2.65 4.34 4.3 4 6 C2 4.6875 2 4.6875 0 3 C0 2.01 0 1.02 0 0 Z " fill="#284087" transform="translate(354,336)"/>
<path d="M0 0 C2.95929119 2.75520215 5.03681826 5.46627288 7 9 C5.68 8.67 4.36 8.34 3 8 C3 7.01 3 6.02 3 5 C2.34 5 1.68 5 1 5 C0.34 3.68 -0.32 2.36 -1 1 C-0.67 0.67 -0.34 0.34 0 0 Z " fill="#E0E8F8" transform="translate(343,325)"/>
<path d="M0 0 C1.98 0.99 1.98 0.99 4 2 C4 3.98 4 5.96 4 8 C0 3.375 0 3.375 0 0 Z " fill="#31498A" transform="translate(328,297)"/>
<path d="M0 0 C1.32 1.65 2.64 3.3 4 5 C3.67 5.66 3.34 6.32 3 7 C2.34 7 1.68 7 1 7 C1 6.34 1 5.68 1 5 C0.01 4.67 -0.98 4.34 -2 4 C-1.34 2.68 -0.68 1.36 0 0 Z " fill="#354C91" transform="translate(398,277)"/>
<path d="M0 0 C0.79921875 0.20367187 1.5984375 0.40734375 2.421875 0.6171875 C3.02515625 0.78476562 3.6284375 0.95234375 4.25 1.125 C4.25 1.455 4.25 1.785 4.25 2.125 C-0.26617599 2.20154536 -4.34085217 2.22728696 -8.75 1.125 C-5.45750312 -0.91393155 -3.7130065 -0.98285466 0 0 Z " fill="#D0DBF2" transform="translate(392.75,272.875)"/>
<path d="M0 0 C0.33 0.66 0.66 1.32 1 2 C1.66 2.33 2.32 2.66 3 3 C2.01 4.485 2.01 4.485 1 6 C0.01 6 -0.98 6 -2 6 C-1.125 1.125 -1.125 1.125 0 0 Z " fill="#1B428D" transform="translate(358,262)"/>
<path d="M0 0 C0.66 0.33 1.32 0.66 2 1 C1.62875 1.7425 1.2575 2.485 0.875 3.25 C-0.29515863 5.94283647 -0.29515863 5.94283647 0.875 8.3125 C1.431875 9.1478125 1.431875 9.1478125 2 10 C1.34 10 0.68 10 0 10 C0 9.34 0 8.68 0 8 C-0.99 7.67 -1.98 7.34 -3 7 C-1.125 1.125 -1.125 1.125 0 0 Z " fill="#FCDBDA" transform="translate(360,240)"/>
<path d="M0 0 C1.1577506 3.47325181 1.06866652 6.36067448 1 10 C0.67 9.34 0.34 8.68 0 8 C-0.99 7.67 -1.98 7.34 -3 7 C-2.67 5.35 -2.34 3.7 -2 2 C-1.34 2 -0.68 2 0 2 C0 1.34 0 0.68 0 0 Z " fill="#FEEAEA" transform="translate(483,214)"/>
<path d="M0 0 C1.65 0 3.3 0 5 0 C5 0.99 5 1.98 5 3 C4.01 3.66 3.02 4.32 2 5 C1.34 3.35 0.68 1.7 0 0 Z " fill="#FAECEB" transform="translate(457,177)"/>
<path d="M0 0 C4.7517398 0.43197635 6.92000054 1.32769295 10 5 C5.59885603 4.49701212 3.28804981 2.91227269 0 0 Z " fill="#DAE7F6" transform="translate(598,411)"/>
<path d="M0 0 C0.66 0.66 1.32 1.32 2 2 C1.63723355 4.82957829 0.90305236 7.29084291 0 10 C-0.66 10 -1.32 10 -2 10 C-1.34 6.7 -0.68 3.4 0 0 Z " fill="#405691" transform="translate(158,405)"/>
<path d="M0 0 C2.89932357 2.39509338 3.50168276 4.31245243 4 8 C3.01 8 2.02 8 1 8 C0.67 5.36 0.34 2.72 0 0 Z " fill="#415598" transform="translate(638,391)"/>
<path d="M0 0 C2.39763185 2.39763185 2.34280586 3.33273498 2.625 6.625 C2.69976562 7.44226563 2.77453125 8.25953125 2.8515625 9.1015625 C2.90054688 9.72804688 2.94953125 10.35453125 3 11 C0.39665076 8.28817788 0.00543309 7.10866187 -0.1875 3.25 C-0.125625 2.1775 -0.06375 1.105 0 0 Z " fill="#2C4386" transform="translate(197,386)"/>
<path d="M0 0 C0.99 0 1.98 0 3 0 C3.33 0.99 3.66 1.98 4 3 C2.68 3.99 1.36 4.98 0 6 C-0.38218767 4.34385343 -0.71395102 2.67542976 -1 1 C-0.67 0.67 -0.34 0.34 0 0 Z " fill="#F2F7FE" transform="translate(332,382)"/>
<path d="M0 0 C2.31 0 4.62 0 7 0 C4.31158141 2.25245881 2.35358125 3.88213958 -1 5 C-0.67 3.35 -0.34 1.7 0 0 Z " fill="#A72732" transform="translate(503,345)"/>
<path d="M0 0 C2.76276177 0.52268466 5.3260876 1.10869587 8 2 C8 2.99 8 3.98 8 5 C4.62496331 3.8141763 2.35277269 2.72426311 0 0 Z " fill="#D8E6F6" transform="translate(367,265)"/>
<path d="M0 0 C0.33 2.31 0.66 4.62 1 7 C0.01 7.495 0.01 7.495 -1 8 C-2.5625 5.625 -2.5625 5.625 -4 3 C-3.00748537 1.01497074 -2.38353202 0 0 0 Z " fill="#38509A" transform="translate(482,236)"/>
<path d="M0 0 C0.99 0 1.98 0 3 0 C2.43628586 3.26954202 1.50037734 4.82575883 -1 7 C-1.04254356 5.00045254 -1.04080783 2.99958364 -1 1 C-0.67 0.67 -0.34 0.34 0 0 Z " fill="#2E4990" transform="translate(357,229)"/>
<path d="M0 0 C0.66 0.33 1.32 0.66 2 1 C-0.64 2.98 -3.28 4.96 -6 7 C-5 3 -5 3 -2.5625 1.1875 C-1.716875 0.795625 -0.87125 0.40375 0 0 Z " fill="#FDE2E1" transform="translate(414,170)"/>
<path d="M0 0 C0.99 0 1.98 0 3 0 C3.33 0.99 3.66 1.98 4 3 C2.625 4.5 2.625 4.5 1 6 C0.34 6 -0.32 6 -1 6 C-0.67 4.02 -0.34 2.04 0 0 Z " fill="#2C4387" transform="translate(244,478)"/>
<path d="M0 0 C0.66 1.32 1.32 2.64 2 4 C0.625 5.5 0.625 5.5 -1 7 C-1.66 7 -2.32 7 -3 7 C-3 6.01 -3 5.02 -3 4 C-2.34 4 -1.68 4 -1 4 C-0.67 2.68 -0.34 1.36 0 0 Z " fill="#334D8F" transform="translate(165,477)"/>
<path d="M0 0 C0.99 0.33 1.98 0.66 3 1 C2.34 3.64 1.68 6.28 1 9 C0.34 9 -0.32 9 -1 9 C-0.67 6.03 -0.34 3.06 0 0 Z " fill="#324893" transform="translate(245,427)"/>
<path d="M0 0 C1.98 0.495 1.98 0.495 4 1 C2.35 2.65 0.7 4.3 -1 6 C-0.67 4.02 -0.34 2.04 0 0 Z " fill="#2D458B" transform="translate(401,332)"/>
<path d="M0 0 C2.52588702 2.36292656 3.88820837 3.66462511 5 7 C4.01 7.495 4.01 7.495 3 8 C1.5 6.8125 1.5 6.8125 0 5 C-0.1875 2.3125 -0.1875 2.3125 0 0 Z " fill="#FAD9D9" transform="translate(426,270)"/>
<path d="M0 0 C1.32 0.33 2.64 0.66 4 1 C4.33 3.31 4.66 5.62 5 8 C2.74754119 5.31158141 1.11786042 3.35358125 0 0 Z " fill="#9F262F" transform="translate(427,270)"/>
<path d="M0 0 C3 1 3 1 5 4 C4.625 6.1875 4.625 6.1875 4 8 C0 2.25 0 2.25 0 0 Z " fill="#FADDE0" transform="translate(475,246)"/>
<path d="M0 0 C2.97 0.495 2.97 0.495 6 1 C5.01 2.98 4.02 4.96 3 7 C2.67 7 2.34 7 2 7 C1.34 4.69 0.68 2.38 0 0 Z " fill="#EEF3FB" transform="translate(480,224)"/>
<path d="M0 0 C0.33 0 0.66 0 1 0 C1.3125 2.25 1.3125 2.25 1 5 C-1.5 7.3125 -1.5 7.3125 -4 9 C-2.80100302 5.9168649 -1.52299523 2.93720508 0 0 Z " fill="#DFEBF7" transform="translate(588,216)"/>
<path d="M0 0 C0.66 0.66 1.32 1.32 2 2 C0.68 4.31 -0.64 6.62 -2 9 C-3.04449911 5.86650268 -2.93423645 5.01031744 -2 2 C-1.34 2 -0.68 2 0 2 C0 1.34 0 0.68 0 0 Z " fill="#354E8D" transform="translate(590,209)"/>
</svg>
